<?xml version="1.0" standalone="no"?>
<!DOCTYPE svg PUBLIC "-//W3C//DTD SVG 1.1//EN" "http://www.w3.org/Graphics/SVG/1.1/DTD/svg11.dtd" >
<svg xmlns="http://www.w3.org/2000/svg">
<defs>
<font id="HVDComicSerifPro" horiz-adv-x="1320" >
<font-face  font-family="HVD Comic Serif Pro" font-weight="400" font-stretch="normal" units-per-em="2048" panose-1="2 0 5 6 0 0 0 2 0 4" ascent="1516" descent="-532" x-height="1027" cap-height="1446" bbox="-260 -942 2406 2290.1" underline-thickness="102" underline-position="-102" unicode-range="U+0020-U+FB04"/>
<missing-glyph horiz-adv-x="716" />
<glyph glyph-name="ff" unicode="&#xfb00;" horiz-adv-x="1720" d="M98.5 0q-14.5 8 -31 153.5t-6.5 149.5q4 2 46.5 9t81 14.5t38.5 9.5l-24 360l-156 -2l-4 301q2 2 43 3t81 1t40 2q0 39 2 67t10 98.5t31.5 121.5t61.5 106.5t105.5 86t155.5 30.5q86 0 166 -20.5t118 -40.5l38 -20l-127 -293q-59 18 -111 18q-41 0 -61.5 -39t-21.5 -78 l-1 -39q39 0 104.5 -1t160 -3t151.5 -2q0 4 4 50.5t11.5 85t20.5 98t39 104.5t60.5 89t91 67.5t125.5 23.5q100 0 204 -32.5t158 -66.5l54 -34l-168 -270q-80 47 -157 47q-29 0 -44.5 -39t-16.5 -77l-1 -38l244 -14q12 -43 15 -118.5t0 -129.5l-3 -53l-252 4l6 -354l179 -12 q10 -219 -9 -312l-607 -14q-29 0 -32 2q-14 8 -25.5 153.5t-0.5 149.5q4 2 38.5 9t66.5 14.5t32 9.5l-23 360l-421 -4l6 -356l166 -12l10 -324q-647 -8 -661.5 0z" />
<glyph glyph-name="fi" unicode="&#xfb01;" horiz-adv-x="1574" d="M98.5 0q-14.5 8 -31 153.5t-6.5 149.5q4 2 46.5 9t81 14.5t38.5 9.5l-24 360l-156 -2l-4 301q2 2 43 3t81 1t40 2q0 100 21.5 186.5t68.5 162t135 118.5t211 43q115 0 227.5 -18t167.5 -38l56 -19q-29 -207 -101 -308q-158 53 -286 54q-63 0 -97.5 -45t-35.5 -90l-1 -46 q27 4 173.5 1t349 -17t266.5 -29v-639l168 -26l4 -287q-2 -2 -39 -3t-95.5 -2t-126 -1h-137t-125 1t-92 1t-34.5 0q-2 18 -4 51t-6.5 114t-4.5 138l136 8l2 375q-23 2 -31 1t-123 -1t-276 4l6 -354l157 -12l11 -324q-639 -8 -653.5 0z" />
<glyph glyph-name="fl" unicode="&#xfb02;" horiz-adv-x="1671" d="M98.5 0q-14.5 8 -31 153.5t-6.5 149.5q4 2 46.5 9t81 14.5t38.5 9.5l-24 360l-156 -2l-4 301q2 2 43 3t81 1t40 2q0 111 25.5 197t86 160t175 113.5t278.5 39.5q168 0 334 -23.5t247 -46.5l81 -24v-1120l168 -14l4 -279q-2 -2 -41 -3t-100.5 -2t-134.5 -1h-147.5t-133 1 t-97.5 1t-37 0q-4 16 -10 45t-15 104.5t-9 133.5l176 28l-6 791q-90 53 -267 53q-61 0 -105 -15.5t-63.5 -39t-30 -46t-11.5 -37.5l-1 -16l244 -14q12 -43 15.5 -118.5t0.5 -129.5l-4 -53l-251 4l6 -354l178 -12l10 -324q-659 -8 -673.5 0z" />
<glyph glyph-name="ffi" unicode="&#xfb03;" horiz-adv-x="2394" d="M98.5 0q-14.5 8 -31 153.5t-6.5 149.5q4 2 46.5 9t81 14.5t38.5 9.5l-24 360l-156 -2l-4 301q2 2 43 3t81 1t40 2q0 39 2 67t10 98.5t31.5 121.5t61.5 106.5t105.5 86t155.5 30.5q86 0 166 -20.5t118 -40.5l38 -20l-127 -293q-59 18 -111 18q-41 0 -61.5 -39t-21.5 -78 l-1 -39q209 4 426 2q0 100 21.5 186.5t69 162t135.5 118.5t211 43q115 0 227.5 -18t167.5 -38l55 -19q-29 -207 -100 -308q-158 53 -287 54q-63 0 -97 -45t-35 -90l-1 -46q29 4 176.5 1t350 -16t261.5 -30v-639l168 -26l5 -287q-2 -2 -39 -3t-95.5 -2t-126 -1h-137t-125 1 t-92.5 1t-35 0q-2 18 -4 51t-6 114t-4 138l135 8l2 375q-20 2 -79.5 1t-172 -1t-178.5 4l10 -354l154 -17q10 -219 -8 -311l-585 -10q-27 1 -30 2q-14 8 -25.5 153.5t-0.5 149.5q4 2 38.5 9t66.5 14.5t32 9.5l-23 360l-421 -4l6 -356l166 -12l10 -324q-647 -8 -661.5 0z" />
<glyph glyph-name="ffl" unicode="&#xfb04;" horiz-adv-x="2471" d="M98.5 0q-14.5 8 -31 153.5t-6.5 149.5q4 2 46.5 9t81 14.5t38.5 9.5l-24 360l-156 -2l-4 301q2 2 43 3t81 1t40 2q0 39 2 67t10 98.5t31.5 121.5t61.5 106.5t105.5 86t155.5 30.5q86 0 166 -20.5t118 -40.5l38 -20l-127 -293q-59 18 -111 18q-41 0 -61.5 -39t-21.5 -78 l-1 -39q213 4 435 2q0 111 25.5 197t86 160t175 113.5t278.5 39.5q168 0 334 -23.5t246 -46.5l81 -24v-1120l168 -14l4 -279q-2 -2 -42 -3t-102 -2t-136 -1h-148.5t-134 1t-99.5 1t-38 0q-2 18 -3 45t-3 107.5t2 130.5l156 28l-7 791q-90 53 -266 53q-61 0 -105 -15.5 t-63.5 -39t-30 -46t-11.5 -37.5l-1 -16l244 -14q12 -43 15 -118.5t0 -129.5l-3 -53l-252 4l6 -354l179 -12q6 -219 -13 -312l-607 -14q-29 0 -32 2q-14 8 -25.5 153.5t-0.5 149.5q4 2 38.5 9t66.5 14.5t32 9.5l-23 360l-421 -4l6 -356l166 -12l10 -324q-647 -8 -661.5 0z " />
<glyph glyph-name=".notdef" horiz-adv-x="716" />
<glyph glyph-name=".null" horiz-adv-x="0" />
<glyph glyph-name="nonmarkingreturn" horiz-adv-x="682" />
<glyph glyph-name="space" unicode=" "  horiz-adv-x="716" />
<glyph glyph-bame="tab" unicode="&#x09;" horiz-adv-x="716" />
<glyph glyph-bame="uni00A0" unicode="&#xa0;" horiz-adv-x="716" />
<glyph glyph-name="exclam" unicode="!" horiz-adv-x="630" d="M229 623q-10 12 -51 146t-82 331.5t-41 331.5q25 16 218.5 16t291.5 -21q0 -215 -38 -414.5t-75.5 -295.5t-52.5 -99q-25 -4 -94.5 -2.5t-75.5 7.5zM117 193q-2 96 57 154.5t143 58.5t148.5 -61.5t64.5 -141.5q0 -92 -47 -155.5t-143 -63.5q-104 0 -161.5 55.5 t-61.5 153.5z" />
<glyph glyph-name="quotedbl" unicode="&#x22;" horiz-adv-x="909" d="M512 1024q-4 6 -3 244.5t5 240.5q-4 2 80 0t168 -6t82 -6l-117 -473q-211 -8 -215 0zM137 1014q-4 4 -13 121.5t-16 233.5l-8 116q23 8 106 8t154.5 -3t71.5 -5q0 -4 -52 -241.5t-54 -237.5q-181 0 -189 8z" />
<glyph glyph-name="numbersign" unicode="#" horiz-adv-x="1253" d="M170 8l72 348l-133 -13q-31 0 -33 5q-6 12 1 92t15 82q4 2 50 9.5l89 14.5l43 7q0 4 28 115.5t30 111.5l-176 -3q-16 1 -19 3q-8 8 4.5 95.5t18.5 87.5q14 0 111.5 7t101.5 11l92 451q4 4 63.5 9t108.5 5t57 -4q0 -6 -55 -230.5t-55 -226.5q0 -4 123.5 0t134.5 6 q6 2 48 216t42 227q0 8 209 8q4 0 -22.5 -112.5l-53.5 -224.5t-21 -110q10 4 90 3t80 -7q0 -16 -8 -114.5t-12 -98.5t-100 3l-97 3l-53 -221q186 -6 186 -18q0 -186 -8 -187q-193 0 -200 -12l-95 -360q-195 2 -200 6q-2 0 69 354q0 2 -25.5 3t-63.5 0t-75.5 -3t-65.5 -3 l-28 -1l-19 -86l-39 -173l-20 -87zM487 565q6 -8 123 -6t121 10l41 217h-240l-44 -201q-3 -18 -1 -20z" />
<glyph glyph-name="dollar" unicode="$" horiz-adv-x="1161" d="M63 -16q-4 45 -4 520q213 47 322 31q27 -98 80 -155.5t106 -57.5q47 0 80 24.5t33 69.5q0 33 -13.5 60.5t-43 50t-53 37t-71.5 38l-73 35.5q-86 45 -136 79t-108.5 92t-86 138t-27.5 184q0 150 110.5 254.5t296.5 112.5q-6 172 -4 182q2 8 92 18.5t92 2.5q0 -4 1 -47 t3.5 -99.5t2.5 -76.5q82 -25 116 -60l15 99q172 8 272 -35q4 -2 -2 -102.5t-14.5 -219.5t-8.5 -143q0 -14 -79.5 -20.5t-159.5 -5.5t-80 5q-6 82 -48 123t-95 41q-39 0 -76 -23.5t-37 -76.5q0 -33 37 -61.5t130 -74.5t138 -73q82 -47 132 -84t102.5 -93.5t77 -128 t24.5 -161.5q0 -162 -116 -277.5t-267 -125.5v-201q0 -2 -19.5 -2h-49t-58.5 1t-50 2l-22 1q-8 0 -18 221q-119 35 -164 90q-2 -18 -4 -51t-4 -54l-2 -22z" />
<glyph glyph-name="percent" unicode="%" horiz-adv-x="1705" d="M178 117l251 341l503 679t260 338q14 0 105.5 -78t86.5 -94q-6 -29 -494.5 -713t-508.5 -670q-14 10 -65.5 57.5t-95.5 92.5t-42 47zM393.5 782q-157.5 0 -250 73t-92.5 222q0 147 94.5 216t245.5 69q145 0 234.5 -76t89.5 -209q0 -123 -82 -209t-239.5 -86zM393 1004 q78 0 78 69q0 78 -78 78q-86 0 -86 -78q0 -69 86 -69zM883 264q0 168 103.5 246t270.5 78q162 0 260.5 -85t98.5 -239q0 -139 -91 -235.5t-265.5 -96.5t-275.5 82t-101 250zM1157 252q0 -43 33 -65.5t76 -22.5q88 0 88 88q0 98 -92 98q-105 0 -105 -98z" />
<glyph glyph-name="ampersand" unicode="&#x26;" horiz-adv-x="1757" d="M55 346q0 82 29 162t69 137t79.5 102.5t68.5 67.5l29 23q-131 156 -131 280q0 162 100 266.5t293 104.5q168 0 281.5 -100.5t113.5 -272.5q0 -61 -20.5 -118.5t-51 -94.5t-60.5 -64.5t-50 -39.5l-21 -13l156 -186q141 150 170 195q-18 8 -46 32.5t-45 44.5l-18 21 q176 248 185 258q4 6 259 -146.5t257 -162.5q0 -4 -40 -78l-80 -146l-40 -71q-123 86 -125 86q-35 -49 -93 -122t-99 -120l-41 -47q33 -61 110 -61q25 0 48.5 15t39 36.5t27.5 43t18 37.5l7 15q2 0 63.5 -21.5l120.5 -44t55 -22.5q-2 0 -8 -43t-27.5 -104.5t-57.5 -122 t-112.5 -103.5t-181.5 -43q-35 0 -69.5 5.5t-64.5 15.5t-55.5 21.5t-49 26.5l-42 27.5t-36 29l-26.5 24.5t-19 19l-11 11q-27 -27 -68.5 -57.5t-144 -67t-217.5 -36.5q-193 0 -310.5 120.5t-117.5 280.5zM596 1016q2 -4 21.5 8t39 37.5t19.5 54.5q0 84 -76 84 q-31 0 -50.5 -23.5t-19.5 -56.5q0 -27 21.5 -58.5t44.5 -45.5zM428 406q0 -37 32 -64t64 -27q37 0 75 16.5t57 34.5l20 17l-150 180q0 -2 -10 -9t-24.5 -21.5t-28.5 -32t-24.5 -42.5t-10.5 -52z" />
<glyph glyph-name="quotesingle" unicode="'" horiz-adv-x="579" d="M141 983l-3 37l-7 90l-9 117.5t-8 119t-4 92.5t1 40t174 8t174 -2q0 -16 -50.5 -256t-60.5 -240q-4 0 -57 -2t-102 -3z" />
<glyph glyph-name="parenleft" unicode="(" horiz-adv-x="819" d="M688 -131q-6 0 -38 7t-93 29.5t-126.5 58.5t-137.5 102.5t-127 151.5t-91 215t-36 283.5t37 281.5t95 210t130 145.5t143.5 96.5t131 52.5t96.5 25.5t37 4q12 -16 23 -113.5t11 -122.5q0 -2 -42 -11t-101 -40t-118.5 -86t-101.5 -172t-42 -276q0 -90 15.5 -169t40 -135.5 t57 -102.5t68.5 -76.5t73 -53t68.5 -35t57 -19.5t40.5 -10l14 -4q-2 -2 -21.5 -61l-39 -117.5t-23.5 -58.5z" />
<glyph glyph-name="parenright" unicode=")" horiz-adv-x="819" d="M43 111l14 2q14 2 39 9t57.5 18.5t68.5 34t72 51t67.5 74.5t57 101.5t40 134t14.5 169.5q0 117 -22.5 210t-57.5 151t-78 100t-86 62.5t-77.5 32t-57 16.5t-22.5 7q0 6 10 65.5t18.5 115t5.5 55.5q54 0 169 -41q330 -117 446 -427q56 -149 55 -335q0 -154 -35.5 -284 t-91 -215t-127 -150.5t-137.5 -101.5t-127 -58.5t-93 -28.5t-38 -6q-4 0 -23.5 58.5l-39 118t-21.5 61.5z" />
<glyph glyph-name="asterisk" unicode="*" horiz-adv-x="851" d="M330 834q-6 2 -6 194q0 2 -41 -20.5l-84 -46t-45 -23.5q-4 0 -52.5 78t-48.5 86q0 6 76 67.5t76 65.5t-75 64.5t-75 66.5q0 8 53.5 67.5t61.5 63.5q6 2 79 -41t75 -43q4 0 15 37l21 74l11 37q155 0 157 -7q2 -4 5.5 -53l6.5 -95t7 -46q2 0 45 17.5t85 32.5t46 11 t27.5 -52l46 -95t20.5 -47t-49 -14.5l-94 -30t-45 -17.5t35.5 -27.5l67.5 -51.5l34 -25q0 -4 -37 -77t-43 -77q-14 -8 -170 97q-2 0 -2 -5.5t-1 -15.5t-1 -22.5v-25.5v-24.5v-21.5v-12q0 -12 -86 -30.5t-96 -12.5z" />
<glyph glyph-name="plus" unicode="+" horiz-adv-x="1273" d="M537 158q-2 10 -10.5 131l-16.5 236.5t-10 117.5t-204 -5t-208 -1q-4 4 -11 56t-11.5 102.5t-2.5 50.5l459 6v475l226 -22v-435h450q2 -182 -8 -192q-6 -6 -210 -25.5t-208 -21.5q-6 -4 -12 -237.5t-8 -235.5q-6 -6 -107.5 -10t-107.5 10z" />
<glyph glyph-name="comma" unicode="," horiz-adv-x="630" d="M117 193q-2 96 57 154.5t143 58.5q80 0 140.5 -60.5t72.5 -142.5q47 -291 -20.5 -464t-247.5 -208q-8 18 -21.5 59t-21.5 74l-8 33q116 11 155 118q32 87 -8 142q-20 27 -53 27q-100 0 -142 52.5t-46 156.5z" />
<glyph glyph-name="hyphen" unicode="-" horiz-adv-x="868" d="M123 346q-10 0 -24.5 145.5t-8.5 149.5q10 6 342 37t334 20q4 -12 -6 -160.5t-15 -148.5q-2 0 -308 -21.5t-314 -21.5z" />
<glyph glyph-name="period" unicode="." horiz-adv-x="630" d="M117 193q-2 96 57 154.5t143 58.5t148.5 -61.5t64.5 -141.5q0 -92 -47 -155.5t-143 -63.5q-104 0 -161.5 55.5t-61.5 153.5z" />
<glyph glyph-name="slash" unicode="/" horiz-adv-x="1024" d="M78 59q0 4 304 740.5t308 740.5q233 -94 234 -104q0 -18 -303.5 -770t-323.5 -746q-23 6 -121 69.5t-98 69.5z" />
<glyph glyph-name="zero" unicode="0" horiz-adv-x="1220" d="M621 -53q-98 0 -177 19.5t-151 70.5t-120 134t-76.5 215t-28.5 306q0 215 44 368.5t122.5 236.5t171 119t205 36t206.5 -38t176 -121t128 -238.5t46 -368.5q1 -739 -546 -739zM602 336q152 0 152 326q0 385 -146 385q-76 0 -113.5 -103.5t-37.5 -259.5q0 -348 145 -348z " />
<glyph glyph-name="one" unicode="1" horiz-adv-x="1024" d="M166 0q-4 0 -6 81t-2 162v81l213 6l20 639q-156 -72 -172 -76q-8 -2 -47 53t-74 112.5t-37 63.5q0 4 111 97.5l222.5 184.5t111.5 89l278 -96l-12 -1061q2 -4 42 -4t85 -2t53 -11q12 -18 8 -162.5t-10 -152.5q-2 -4 -784 -4z" />
<glyph glyph-name="two" unicode="2" horiz-adv-x="1087" d="M104 0q-10 6 -28.5 129t-12.5 162l125 153.5l104 127l82 100.5l65.5 80.5l48 61.5t36 50.5l22.5 38t15 33.5t6 28.5t2 30.5q0 25 -25.5 48.5t-51.5 23.5q-57 0 -105.5 -24.5t-68.5 -49.5l-19 -24q-14 -12 -67.5 52t-100.5 139t-47 91q0 10 16.5 33t53 53.5t86 57t123 45 t155.5 18.5q221 0 360.5 -98t139.5 -297q0 -123 -70.5 -250t-326.5 -457l397 6q10 -12 13 -102t-2 -173t-13 -83q-16 4 -460 -3t-452 -1z" />
<glyph glyph-name="three" unicode="3" horiz-adv-x="1087" d="M59 291q215 246 232 246q4 0 35.5 -44t90 -88.5t126.5 -44.5q41 0 61.5 28t20.5 54q0 68 -56.5 100.5t-144.5 32.5q-8 8 -8 80t4 139l4 66q41 0 59.5 1t52 7t50 17.5t30 36t13.5 61.5q0 47 -29 73.5t-72 26.5q-49 0 -99 -31.5t-76 -64.5l-25 -33q-8 8 -22.5 20.5 t-49.5 45.5t-61.5 61.5t-47 57t-18.5 43.5q4 23 32.5 64.5t79 90.5t135.5 85t179 36q213 0 347 -115.5t134 -326.5q0 -49 -15 -95.5t-37.5 -76t-45.5 -52t-38 -32.5l-15 -10l18 -12.5t42 -36t52.5 -60.5t41 -86t18.5 -113q0 -211 -144.5 -339t-343.5 -128q-106 0 -198 33 t-147.5 79t-94.5 92t-54 79z" />
<glyph glyph-name="four" unicode="4" horiz-adv-x="1140" d="M336 -4q-4 10 -3 76.5t4 143.5l3 77l182 6l10 322q-457 27 -458 26l2 203q2 203 6 405.5t4 204.5l315 10l-2 -501h138l16 334q332 -8 336 -11l6 -342q160 2 160 -4v-315q0 -6 -176 -6q-4 0 -5 -336q0 -2 33 -3t70 -4t45 -10q4 -2 7 -18t4 -41t1 -52.5t-1 -56t-1 -50 t-1 -38.5l-1 -16q0 -4 -694 -4z" />
<glyph glyph-name="five" unicode="5" horiz-adv-x="1024" d="M18 291q215 246 232 246q4 0 35.5 -44t90 -88.5t126.5 -44.5q41 0 61.5 26t20.5 52q0 213 -418 213l-53 62l53 721q14 0 38.5 1l96.5 4t137.5 5t149.5 4t147.5 3t113.5 -1t64 -6q-35 -315 -45 -320l-354 -16l-14 -158q10 -2 28.5 -4t72.5 -16.5t102.5 -35t108.5 -61 t102 -91t72 -128t30 -172.5q0 -211 -144.5 -339t-343.5 -128q-106 0 -198 33t-147.5 79t-94.5 92t-54 79z" />
<glyph glyph-name="six" unicode="6" horiz-adv-x="1087" d="M582 -23q-96 0 -185.5 36t-166 105.5t-124 190.5t-47.5 275q0 141 51.5 285.5t125 248t147.5 187.5t125 127l51 43q-4 4 75 -35t161 -91.5t94 -84.5q0 -2 -26.5 -20.5t-66.5 -50.5t-83 -70t-81 -86t-54 -91q84 -18 160.5 -55t146 -96.5t111.5 -151.5t42 -203 q0 -223 -130.5 -343t-325.5 -120zM600 344q33 0 61.5 26.5t28.5 73.5q0 88 -73.5 137.5t-147.5 49.5q-20 -47 -23.5 -111.5t38.5 -120t116 -55.5z" />
<glyph glyph-name="seven" unicode="7" horiz-adv-x="1216" d="M197 141l465 920l-234 2l10 -182l-309 -11q-4 4 -26.5 132t-35 249t8.5 160q6 6 37.5 11t78 7.5t107.5 4.5t128 2t136.5 -1l135 -2t124 -2t101.5 -2.5t69 -2.5l27 -1l147 -198q-549 -1264 -553 -1264t-89 30t-189 74.5t-139 73.5z" />
<glyph glyph-name="eight" unicode="8" horiz-adv-x="1220" d="M68 406q0 238 157 348q-119 96 -119 299q0 129 77 223t181.5 135t213.5 41q106 0 213.5 -42t187.5 -138t80 -223q0 -195 -121 -293q172 -113 172 -357q0 -199 -151.5 -313.5t-356.5 -114.5q-98 0 -189 26t-170 76t-127 136t-48 197zM580 958q113 0 112 93q0 106 -108 106 q-57 0 -86 -27.5t-29 -72.5q0 -99 111 -99zM463 444q0 -131 127 -131q135 0 135 121q0 63 -31.5 102t-97.5 39q-68 0 -100.5 -37t-32.5 -94z" />
<glyph glyph-name="nine" unicode="9" horiz-adv-x="1089" d="M242 154l55 55q55 55 123.5 140t93.5 153q-84 18 -159.5 55t-145.5 95.5t-112 149.5t-42 202q0 223 134.5 344.5t328.5 121.5q98 0 187.5 -26.5t169 -86t128 -172t48.5 -265.5q0 -141 -48.5 -293t-118 -267.5t-139 -211t-117.5 -145.5l-48 -50l-9 3l-23.5 9t-37 15.5 l-45 20.5t-49 24.5t-52 29t-49 31.5t-42 34t-31.5 34zM627 827q20 47 24 108.5t-37 115t-114 53.5q-33 0 -61.5 -26.5t-28.5 -73.5q0 -88 70.5 -132.5t146.5 -44.5z" />
<glyph glyph-name="colon" unicode=":" horiz-adv-x="630" d="M340 721q-104 0 -161.5 55t-61.5 154q-2 96 57 154.5t143 58.5t148.5 -61.5t64.5 -141.5q0 -92 -47 -155.5t-143 -63.5zM117 193q-2 96 57 154.5t143 58.5t148.5 -61.5t64.5 -141.5q0 -92 -47 -155.5t-143 -63.5q-104 0 -161.5 55.5t-61.5 153.5z" />
<glyph glyph-name="semicolon" unicode=";" horiz-adv-x="630" d="M340 721q-104 0 -161.5 55t-61.5 154q-2 96 57 154.5t143 58.5t148.5 -61.5t64.5 -141.5q0 -92 -47 -155.5t-143 -63.5zM117 193q-2 96 57 154.5t143 58.5q80 0 140.5 -60.5t72.5 -142.5q47 -291 -20.5 -464t-247.5 -208q-8 18 -21.5 59t-21.5 74l-8 33q116 11 155 118 q32 87 -8 142q-20 27 -53 27q-100 0 -142 52.5t-46 156.5z" />
<glyph glyph-name="less" unicode="&#x3c;" horiz-adv-x="1024" d="M96 594q-23 0 -22 192q0 10 393 163t401 145q10 -8 42 -92t28 -93q-4 -6 -257 -118l-253 -113q-2 -2 135 -66.5l277.5 -129t144.5 -64.5t-12.5 -48l-34.5 -98.5t-22.5 -54.5t-205 90l-403.5 190.5t-211 96.5z" />
<glyph glyph-name="equal" unicode="=" horiz-adv-x="1024" d="M88 782q-15 2 -12 169q0 26 2 24q850 4 872 -35q10 -23 5 -62.5t-14 -76.5t-11 -39t-417 8t-425 12zM127 362q-10 10 -21.5 94.5t0.5 96.5q4 4 411 18.5t407 8.5q0 -10 -9.5 -124t-11.5 -114q-63 0 -416.5 7t-359.5 13z" />
<glyph glyph-name="greater" unicode="&#x3e;" horiz-adv-x="1024" d="M194.5 156q-4.5 4 -22.5 54l-34.5 98t-12.5 48t144.5 75l277.5 149.5t135 76.5l-294 123q-294 123 -298 129q-4 8 28 92t42 93q8 8 411.5 -144.5t403.5 -163.5q0 -2 2 -24.5t3 -49l2 -54t-1 -46t-8 -18.5q-8 0 -200.5 -111.5l-383 -221t-195 -105.5z" />
<glyph glyph-name="question" unicode="?" horiz-adv-x="1087" d="M424 555q-8 8 -8 85t4 148l4 72q41 0 59.5 1t52 7t50 17.5t30 36t13.5 61.5q0 47 -29 74.5t-72 27.5q-49 0 -98 -32.5t-73 -65.5l-23 -33q-8 8 -22.5 20.5t-49.5 45.5t-61.5 61.5t-47 57t-18.5 43.5q4 23 32 65.5t77 94t133 89t178 37.5q211 0 346 -125.5t135 -338.5 q0 -139 -50 -236.5t-140 -143.5t-193.5 -62.5t-228.5 -6.5zM348 193q-2 96 57.5 154.5t143.5 58.5t148.5 -61.5t64.5 -141.5q0 -92 -47 -155.5t-144 -63.5q-104 0 -161.5 55.5t-61.5 153.5z" />
<glyph glyph-name="at" unicode="@" horiz-adv-x="2058" d="M430 -272q-16 12 -43 36.5t-94.5 104.5t-119.5 166t-95 216t-43 259q0 145 32.5 281.5t110.5 265.5t192.5 224t294 153.5t400.5 58.5q420 0 678 -207t258 -598q0 -766 -827 -723l-11 139q-8 -12 -24.5 -29.5t-77 -47t-133.5 -29.5q-59 0 -123 26.5t-123 80t-97 147.5 t-38 215q0 195 123 306.5t264 111.5q59 0 111.5 -11.5t74.5 -22.5l23 -11l26 94q86 4 172 5t172 -1q0 -4 3.5 -64.5t5.5 -116.5l2 -57q-4 0 -58.5 -14t-56.5 -16l14 -400q33 -2 78 16.5t94.5 61.5t83 129t33.5 199q0 59 -18.5 126.5t-65.5 143.5t-117.5 135.5t-187.5 99.5 t-260 40q-193 0 -337 -65.5t-222 -174.5t-115 -224.5t-37 -236.5q0 -80 21.5 -157.5t52.5 -134t73 -113t72.5 -86l63.5 -60t35 -32.5q0 -16 -60.5 -68.5t-120.5 -96.5zM842 438q0 -84 38 -131t87 -47q57 0 91 45t34 129q0 80 -34 132t-85 52q-131 0 -131 -180z" />
<glyph glyph-name="A" unicode="A" horiz-adv-x="1435" d="M82 -25q-12 27 -19.5 101t-8.5 134l-1 60l135 33q41 225 104.5 508t106.5 453l43 170q49 12 141.5 9t183.5 -12l91 -10l399 -1128h119v-301l-499 -18q-68 0 -74 3q-14 10 -26.5 149.5t-2.5 143.5l105 6l-56 166l-276 4l-27 -135l139 -18q2 -18 4.5 -45t7.5 -99.5t5 -99 v-45.5zM582 698l182 11l-102 266z" />
<glyph glyph-name="B" unicode="B" horiz-adv-x="1327" d="M72 -8q-8 76 -5 194.5t11 132.5q6 8 43 9.5t70 -0.5l34 -2l30 627q4 146 -3 149q-8 4 -52 5t-85 -1l-41 -2q-12 35 -13.5 113.5t4.5 140.5l5 61q367 20 589 21q41 0 84 -4t112 -15.5t127 -39t112.5 -67.5t86 -106.5t31.5 -152.5q0 -70 -23.5 -129.5t-57 -96t-68.5 -62.5 t-58.5 -38t-23.5 -14l10 -4q10 -4 26.5 -12.5l38 -19.5t46 -27.5t49.5 -37t46.5 -48t37.5 -58.5t26.5 -71t10.5 -83q0 -96 -29 -166.5t-79 -113.5t-129 -68.5t-165 -35t-200 -9.5q-276 0 -598 31zM604 848q0 -4 56.5 1t113.5 38t57 94q2 78 -54 108.5t-112 23.5l-57 -7z M610 301q262 0 262 121q0 66 -65.5 94.5t-129.5 24.5l-65 -4z" />
<glyph glyph-name="C" unicode="C" horiz-adv-x="1308" d="M53 717q0 186 52.5 327.5t139.5 222.5t189.5 119.5t214.5 38.5q70 0 130.5 -21.5t85.5 -42.5l26 -22l22 121l61 -5q60 -5 141 -19.5t120 -38.5q6 -23 4 -136.5t-8 -243.5l-6 -130l-330 -41q-2 8 -6 22.5t-20.5 51t-39 64.5t-65.5 50.5t-94 22.5q-84 0 -140.5 -88 t-56.5 -252t78 -245t170 -81q59 0 117.5 31t87 58.5t45.5 49.5q41 -43 107.5 -106.5l113.5 -105.5l47 -42l-16.5 -32.5t-54.5 -72.5t-97 -92t-147.5 -73t-202.5 -33q-123 0 -239.5 48.5t-213 137.5t-156 234.5t-59.5 323.5z" />
<glyph glyph-name="D" unicode="D" horiz-adv-x="1382" d="M84 -10l-2 34q-2 34 -6 82t-7 100t-4.5 86t3.5 40q6 4 46 9t77 8l38 3l23 707q-158 -14 -162 -15q-2 0 -16.5 84t-25.5 171t-5 92q10 6 66.5 19t171 24.5t239.5 7.5q248 -5 338 -21q362 -66 455 -415q35 -130 35 -301q0 -162 -26 -286t-77 -205t-112.5 -134t-145.5 -80 t-161.5 -37t-178.5 -10q-92 0 -231.5 10t-233.5 19.5t-98 7.5zM610 330q143 -18 231.5 59.5t88.5 298.5q0 113 -21.5 190.5t-54.5 110.5t-74 52.5t-77.5 14.5t-65.5 -4q-8 -1 -12 -1q-33 -569 -15 -721z" />
<glyph glyph-name="E" unicode="E" horiz-adv-x="1325" d="M121 -6q-2 -2 -3 27.5t0 73.5l2 89t4 78t7 37q6 6 38 8t60 2h29l12 792q0 33 -2 34l-137 -13l-27 324q2 6 274.5 9t544.5 2l271 -1q8 -12 14 -38.5t8.5 -61.5t3.5 -77t0 -83t-3.5 -81l-4.5 -69.5t-3 -49.5l-1 -19q0 -4 -140 -6t-155 0q-6 0 -12 36.5t-9 75.5t-3 41 q-2 4 -116 6.5t-118 -2t-2 -119t6 -116.5q2 0 55.5 -2t104.5 -5t51 -5t2 -32l4.5 -70t3.5 -83t2 -68.5t-1 -29.5q-2 0 -59.5 -3t-113 -7t-57.5 -6q-4 -6 -4 -269q8 -4 63.5 -3t120 6.5t64.5 7.5q0 4 28.5 109.5t28.5 107.5t83 -6.5t167 -18.5t84 -12q0 -10 -19.5 -263 t-21.5 -255q-2 0 -561 6t-563 2z" />
<glyph glyph-name="F" unicode="F" horiz-adv-x="1261" d="M90 -20q-4 16 -7 142t5 136l176 21q-8 809 -14 817q-2 4 -45 8t-85 6l-42 2q2 270 28 322q1057 -12 1068 -19q4 -2 10 -109.5t9 -212.5l3 -106l-227 -40q-53 -7 -58 -1q-6 8 -11 43t-8 66l-3 30l-223 2q6 -256 10 -256q10 0 108.5 -11t98.5 -15q0 -23 -4.5 -159 t-6.5 -136t-103 -2t-103 -2q-2 -8 -1 -54t5 -102.5t6 -58.5t50 -4l94 -4t46 -4.5t10.5 -75t19.5 -145.5l9 -72z" />
<glyph glyph-name="G" unicode="G" horiz-adv-x="1583" d="M55 686q-2 203 59.5 357.5t168 242.5t229.5 131t258 43q174 0 277 -84q4 18 7 49t6 52l3 20q6 0 164.5 -26.5t161.5 -30.5l-37 -500l-348 -29q-47 195 -226 195q-133 0 -213 -125t-82 -293q-2 -147 86 -266t232 -119q61 0 101 33t48 64l8 32l-172 -2q-16 18 -22 90 t-4 134l2 63q55 10 204.5 5t308.5 -16l159 -12q20 -96 39.5 -359t19.5 -335q0 -4 -83 -9t-165 -9l-82 -5l-20 140q-47 -63 -149.5 -121.5t-219.5 -58.5q-336 0 -525.5 198.5t-193.5 550.5z" />
<glyph glyph-name="H" unicode="H" horiz-adv-x="1540" d="M84 14q-14 27 -13 134.5t9 115.5q4 4 41 9.5t72 8.5l34 3l-28 845q-119 -4 -129 7q-4 16 -2 82.5t6 141.5l4 75l592 -11l14 -290l-143 -15l10 -225l395 -18l-4 251q-119 12 -121 12.5t-8 43.5t-10 112.5t-2 124.5q117 27 266.5 26t278.5 -16l129 -16q-6 -281 -11 -280 l-151 -25l26 -809l142 -16v-293q-41 0 -99.5 -1t-218 -3t-218 -1t-99.5 1l-6 299l143 14l-6 270l-416 13q-4 -299 6 -299q2 0 18.5 1t35 1h38t33 -2t13.5 -6.5t7 -74t11 -134t0 -66.5q-16 -6 -314 -8t-325 18z" />
<glyph glyph-name="I" unicode="I" horiz-adv-x="899" d="M104 14q-14 27 -13 140.5t9 121.5q2 2 18.5 4.5t38 2.5h42h34.5h15l-29 847q-119 -4 -129 7q-4 16 -2 82.5t6 141.5l4 75l674 10l14 -291l-184 -35l27 -827q178 0 178 -14q0 -2 1 -33t3 -70t3 -78t0 -65.5t-3 -28.5q-16 -6 -348 -8t-359 18z" />
<glyph glyph-name="J" unicode="J" horiz-adv-x="1210" d="M33 231l152 147q96 87 114 83q12 -2 40 -41t72 -75t95 -36q63 0 97 39t34 105l-10 622q-213 -4 -230 0q-12 2 -22 122t-10 212q100 25 291.5 34t332.5 7t144 -6q23 -76 28 -344l-137 -23q16 -305 14 -635q-2 -147 -48 -255.5t-120.5 -164t-153.5 -81t-163 -25.5 q-102 0 -193.5 33t-148.5 79t-99 92t-61 79z" />
<glyph glyph-name="K" unicode="K" horiz-adv-x="1435" d="M90 -4q-2 6 -10 145.5t-2 139.5l147 10l-4 846q-160 12 -162 16q-2 2 2.5 133t6.5 135t274 15.5t281 5.5q6 -8 6 -150.5t-4 -148.5l-86 -35v-211q297 262 297 274q0 6 -21.5 7.5t-44 3.5t-25.5 6q-2 6 -10 124t-8 130q0 4 150.5 6t300 -1t149.5 -9v-273q-4 -6 -53 -12 t-51 -8q-6 -4 -144.5 -137.5t-144.5 -143.5t151.5 -290.5t165.5 -284.5q4 -2 35 -5l60 -6l28 -4q2 -2 9.5 -130t2.5 -130q-8 -6 -305 -15t-309 7q-4 12 -11 80t-11.5 128t-1.5 60l34 -3q35 -3 59.5 -4t30.5 1q0 6 -92 192.5t-100 192.5t-65.5 -50t-71.5 -73q-4 -18 -2 -64 l5 -111l3 -64q0 -6 63.5 -15.5t63.5 -11.5t-4 -127t-4 -131q0 -4 -144.5 -7t-289.5 -3h-144z" />
<glyph glyph-name="L" unicode="L" horiz-adv-x="1177" d="M51 0q0 6 -2 87t-3 137.5t1 74.5q2 2 70.5 5t70.5 5t4.5 162t6.5 364.5t10 288.5q-6 4 -32.5 4t-59.5 -2t-35 -2q-6 2 -12.5 157t6.5 165q6 2 178 -1t341 -7t169 -6l1 -14q1 -13 1 -33.5t1 -48l2 -55.5t1 -55.5v-49t-1 -35t-3 -13.5l-168 -22q-8 -66 -16.5 -264.5 t-12.5 -364.5t-2 -166q207 0 211 8q2 4 36 131.5t34 133.5t133 -12.5t139 -22.5q2 -2 5 -145.5t3 -265.5t-2 -142h-12q-1063 -16 -1063 4z" />
<glyph glyph-name="M" unicode="M" horiz-adv-x="1636" d="M78 6q0 -2 -3 27.5t-6 71.5t-5.5 86.5t-1.5 76t6 33.5q6 4 42.5 4t68.5 1t32 3q0 745 -6 789q0 6 -29 6t-55.5 -1t-40.5 5q-14 8 -19.5 168t3 168t243 8t242.5 -6q6 -4 112.5 -174t118.5 -195q8 16 129 188.5t129 178.5q6 4 132 5t250 -1t124 -4l2 -152q2 -152 2 -162 q0 -20 -149 -20q-2 0 -2 -198.5t2 -401.5t6 -209t43 -8t77 -3t38 -7q0 -4 5 -81t9 -147.5t2 -70.5h-174q-174 0 -344 4t-170 16q0 281 4 281t39 1t66.5 2t31.5 3l4 571q-143 -215 -147 -215l-30 -3q-30 -3 -63.5 -6t-63.5 -5t-32 0t-38.5 59.5l-73.5 113.5l-37 56l3 -134 q3 -134 7 -273.5t4 -143.5q0 -6 73 -13t73 -9l4 -76q4 -76 7 -146.5t1 -70.5z" />
<glyph glyph-name="N" unicode="N" horiz-adv-x="1468" d="M78 -10q4 6 -7.5 131t-9.5 127q4 2 70 11t68 11q4 4 0 313.5t-13 483.5q-23 -2 -75 -2t-56 4t-16 179t-6 179q2 2 33.5 2.5t77.5 0.5t101.5 -1.5t100.5 -1.5t78 -1l33 -1q2 0 250.5 -356t253.5 -358q4 14 2 109t-7 206l-4 111q-166 10 -168 10t-10 72.5t-12 136t2 76.5 q12 4 332.5 6t320.5 -2l2 -31q2 -31 3 -71t3 -81t1 -68.5t-5 -27.5q-12 0 -75.5 -7t-63.5 -9l3 -122l7 -287t7.5 -342t4.5 -284.5t-1 -119.5q-2 0 -53.5 -4.5t-107 -7.5t-106.5 -4t-53 3l-434 729q0 -399 10 -411q4 -4 40 -9.5t69.5 -9.5t33.5 -10q0 -2 7.5 -68.5 t11.5 -114.5t-2 -65q-2 -2 -40 -5t-95.5 -5t-125 -5l-135 -6t-123 -4t-90 -1t-32.5 2z" />
<glyph glyph-name="O" unicode="O" horiz-adv-x="1488" d="M61 731q0 197 54.5 343.5t154 230.5t222 123.5t272.5 39.5q297 0 481.5 -197.5t184.5 -543.5q0 -150 -40 -284t-118 -243.5t-208 -173t-298 -63.5q-326 0 -515.5 188.5t-189.5 579.5zM762 373q106 0 172.5 81t66.5 259q0 170 -59 272t-182 102q-274 0 -275 -376 q0 -166 83 -252t194 -86z" />
<glyph glyph-name="P" unicode="P" horiz-adv-x="1214" d="M111 0q-2 0 -12.5 72.5t-15.5 138t5 82.5q10 6 46 8t67 2h30q-18 795 -24 797l-139 -4l-13 288q0 46 4 48q35 10 514 10q96 0 174 -10.5t157 -39t132.5 -77.5t86 -134t30.5 -198q-4 -463 -571 -463v-65.5v-57t1 -43t1 -29.5v-12q0 -2 96 -18t102 -16q2 0 5.5 -68 t3.5 -138.5t-5 -76.5q-29 -6 -179 -5t-323 5zM584 840q0 -6 54 -1t108.5 39.5t54.5 104.5q0 63 -56.5 91t-112.5 24l-57 -4z" />
<glyph glyph-name="Q" unicode="Q" horiz-adv-x="1540" d="M557 -41q-229 59 -355 266t-126 496q0 330 186.5 537.5t476.5 207.5q309 0 503 -190.5t194 -568.5q0 -635 -451 -746q0 -2 2 -12t3 -14.5t4 -12.5l5 -13t6.5 -12.5t9.5 -11.5t12 -9t16.5 -8t19.5 -5q88 -20 223 65l31.5 -69.5t48.5 -126.5t25 -111q-33 -61 -159 -99 t-259 -14q-113 23 -198 76.5t-128 122t-64.5 131t-25.5 121.5zM770 313q260 2 260 367q0 406 -258 405q-143 0 -219 -112.5t-76 -270.5q0 -162 74 -276.5t219 -112.5z" />
<glyph glyph-name="R" unicode="R" horiz-adv-x="1429" d="M92 6q0 -2 -4 25.5t-9 66.5t-8 80t-1 68.5t12 27.5q35 0 83 6.5t48 14.5v821q-131 -4 -135 6q-4 8 0 159t10 157q35 4 121 2t237.5 -5t192.5 -3q59 0 97 -1t106.5 -8.5t115 -22t102.5 -42t91 -66.5t58.5 -99t23.5 -138q0 -80 -20.5 -149.5t-49 -111.5t-58.5 -72t-50 -42 l-21 -12l199 -406q121 4 121 0l2 -42q2 -42 5 -89t4 -90t-1 -47q-4 -10 -311.5 -7t-309.5 15q-4 18 -4 136t9 118q94 0 94 12q0 8 -68.5 157.5t-73 149.5t-78 -8t-77.5 -8t-5 -72.5t1 -145.5t10 -73q88 0 88 -8v-260zM551 866l45 1q45 1 91 8.5t86 45t40 103.5 q0 55 -64.5 77.5t-130.5 17.5l-65 -5v-41.5t-1 -81t-1 -91.5t0 -34z" />
<glyph glyph-name="S" unicode="S" horiz-adv-x="1161" d="M63 -16q-4 45 -4 520q213 47 322 31q27 -98 80 -155.5t106 -57.5q47 0 80 24.5t33 69.5q0 33 -13.5 60.5t-43 50t-53 37t-71.5 38l-73 35.5q-86 45 -136 79t-108.5 92t-86 138t-27.5 184q0 158 120.5 263.5t321.5 105.5q150 0 227 -82l15 99q213 8 313 -35 q4 -2 -2 -102.5t-14.5 -219.5t-8.5 -143q0 -14 -79.5 -20.5t-159.5 -5.5t-80 5q-6 82 -48 123t-95 41q-39 0 -76 -23.5t-37 -76.5q0 -33 37 -61.5t130 -74.5t138 -73q82 -47 132 -84t102.5 -93.5t77 -128t24.5 -161.5q0 -170 -124 -288t-282 -118q-217 0 -317 115 q-2 -18 -4 -51t-4 -54l-2 -22z" />
<glyph glyph-name="T" unicode="T" horiz-adv-x="1429" d="M283 -6q-2 4 1 143t5 142l63 5q63 5 125 13t62 16l-17 805l-170 -2q-10 -252 -10 -260q0 -2 -29.5 -3t-72.5 0t-86 3t-77 3t-36 1q-6 0 -7 135t4 275.5t15 152.5q10 10 329.5 25.5t636 25t318.5 5.5q2 -6 6.5 -306.5t2 -308.5t-136.5 -5t-138 9l-27 254q-141 -2 -151 -4 q-2 -8 0 -85t7 -201.5l10 -241.5t10 -204l4 -87q0 -2 54 -1t102 3t61 -2q6 -6 12 -142.5t0 -150.5t-438 -15t-432 3z" />
<glyph glyph-name="U" unicode="U" horiz-adv-x="1505" d="M205 543l-4 571l-150 23l-12 280q-2 -2 159.5 4l325.5 12.5t164 4.5q2 -8 8 -152.5t0 -152.5l-110 -17q6 -532 6 -575q0 -70 43 -117t131 -47q86 0 129 42t43 113l-2 594h-121l-4 306q35 12 188.5 14t289.5 -1l136 -3q12 -283 13 -287l-119 -35q2 -510 2 -600 q0 -258 -143.5 -402.5t-413.5 -144.5q-264 0 -411.5 151t-147.5 419z" />
<glyph glyph-name="V" unicode="V" horiz-adv-x="1509" d="M590 0q-4 2 -104.5 276.5l-197.5 547.5l-98 274q-109 16 -124 16q-10 0 -7.5 161t7.5 161q627 -4 634 -6q4 0 11.5 -81t12.5 -161l5 -80q-98 -14 -111 -14q-6 0 33 -117l81 -234l42 -116q10 31 27.5 80l54.5 153.5l60.5 174t21.5 69.5q-4 0 -53 -2t-51 -2 q-4 0 -17.5 163.5t-9.5 168t319.5 3.5t317.5 -5.5t1 -168t-3 -167.5q-2 -6 -137 -7q-4 0 -93.5 -269l-180.5 -541.5t-97 -276.5q-12 -6 -174 -6t-170 6z" />
<glyph glyph-name="W" unicode="W" horiz-adv-x="1998" d="M494 -4q-10 4 -150.5 557t-144.5 557q-6 10 -65.5 18.5t-80.5 8.5q-6 0 0 68.5t15.5 139t9.5 66.5q670 10 676 10q2 0 3 -75.5t0 -142t1 -83.5q0 -2 -11.5 -4t-30 -3t-39 -2l-40 -2t-30.5 -1h-15q-2 0 25.5 -109.5t59.5 -219t34 -107.5t47 113.5l90 223.5l45 111 q199 0 215 -8q2 0 63.5 -117.5l122 -232.5t60.5 -111q0 2 21.5 117l43 227.5t19.5 112.5q-199 0 -211 6q-4 2 -6 149.5t0 151.5q4 6 729 6q4 0 5 -77.5t1 -154.5v-77q-131 -10 -133 -10l-267 -1106q-283 -4 -290 -4q-4 0 -132 271.5t-132.5 271.5t-67 -136.5l-123.5 -272.5 l-61 -136q-240 0 -256 6z" />
<glyph glyph-name="X" unicode="X" horiz-adv-x="1542" d="M109 0q-2 2 -1 28.5t3 69.5l4 83t4 71l2 31l119 10l319 407l-338 465q-86 -2 -102 -2q-6 0 -8 72t-2 144.5t-5 76.5q-2 2 31 2t88.5 -1t121 -2t133 -3t123.5 -3t94 -2t40 -1q8 0 10.5 -66.5t0.5 -133.5l-1 -66l-108 -6l143 -201q10 12 25.5 33.5l47.5 65.5l53.5 74 t19.5 30q-80 0 -92 4q-6 12 -4.5 68.5t6.5 121.5l4 66q578 0 583 -4q4 -2 7.5 -131.5t-0.5 -135.5q-2 -4 -30 -4t-54 2l-27 2l-303 -430l340 -448q104 -8 112 -19q4 -4 7.5 -67.5t4.5 -124.5l1 -62l-621 -20l-10 258l102 16q-152 205 -153.5 205t-83.5 -106.5t-82 -108.5 t21.5 -3t46 -3t28.5 -2q10 -2 10 -244q1 -6 -630 -6z" />
<glyph glyph-name="Y" unicode="Y" horiz-adv-x="1437" d="M410 -14q-4 2 -6.5 141t-0.5 141q2 0 37 4t69 9.5t34 7.5v395q0 4 -77 108.5l-155 205t-80 98.5t-40.5 3l-77.5 10t-39 7l1 158q1 158 1 162l602 -11l22 -280q-2 -4 -98 -4l35 -40l71 -81l35 -41q8 10 23.5 27.5t45.5 54.5l49.5 62.5t17.5 27.5t-82 2q-6 2 -4 142.5 t4 142.5t276.5 -3t284.5 -9.5t19 -139.5t5 -139q-6 -6 -125 -6l-346 -463q6 -362 7 -383q0 -8 28.5 -10t60 -2t35.5 -4q6 -8 7 -275q0 -6 -317.5 -13t-321.5 -5z" />
<glyph glyph-name="Z" unicode="Z" horiz-adv-x="1314" d="M129 10q-2 0 -14.5 81l-24.5 163t-10 84q0 2 173 204.5l341 403.5t164 201q-266 0 -283 -10l-41 -181q-260 16 -280 27q-12 10 -12.5 229.5t3.5 223.5q1067 2 1067 -6q0 -2 10.5 -77t18.5 -146.5t4 -74t-164.5 -200l-318.5 -395t-156 -197.5q18 0 176 8t160 12 q2 2 10.5 58.5l17.5 112t11 55.5q39 0 145.5 -6.5t114.5 -18.5q6 -29 4 -151.5t-8 -261.5l-6 -138h-1102z" />
<glyph glyph-name="bracketleft" unicode="[" horiz-adv-x="808" d="M428 -223l289 -8q2 -258 -6 -263h-47.5t-112 2.5t-144 4.5t-143 5t-110.5 4l-45 1l-13 1933l625 27q2 0 3 -63.5t1 -120t-2 -68.5q-4 -4 -141.5 -17.5t-153.5 -13.5q-14 0 0 -1418v-5z" />
<glyph glyph-name="backslash" unicode="\" horiz-adv-x="1024" d="M707 -80q-20 -6 -323.5 745.5t-303.5 770.5q0 4 58.5 30.5l116.5 50.5l58 23q4 -4 308.5 -740.5t304.5 -740.5q0 -6 -98 -69.5t-121 -69.5z" />
<glyph glyph-name="bracketright" unicode="]" horiz-adv-x="808" d="M111 -211q18 0 47.5 -2t93 -5t105.5 -4l42 -1v5q14 1418 0 1418q-285 0 -295 10q-2 12 -2 68.5t1 120t3 63.5l625 -6q-51 -1933 -53 -1933q-553 0 -561 4q-4 2 -5 67.5t-1 130.5v64z" />
<glyph glyph-name="asciicircum" unicode="^" horiz-adv-x="872" d="M197 1159q-12 2 -34 26.5t-44.5 59.5l-43 69l-34.5 57l-14 24q-2 0 34.5 29.5l92 71.5l112 84l97 71.5t47.5 31.5q4 2 112.5 -68.5l214.5 -141.5l107 -72q-141 -211 -174 -227l-238 159z" />
<glyph glyph-name="underscore" unicode="_" horiz-adv-x="1110" d="M98 4q942 -8 942 -14t-7 -91t-9 -89.5t-464 -9.5t-472 -1q-8 4 -2 102.5t12 102.5z" />
<glyph glyph-name="grave" unicode="`" horiz-adv-x="872" d="M90 1356q-4 2 21.5 71.5t56.5 141t39 73.5q4 2 151.5 -49l291.5 -102l145 -51q-74 -238 -107 -254q-6 -2 -290.5 80t-307.5 90z" />
<glyph glyph-name="a" unicode="a" d="M498 -18q-78 0 -152 27.5t-144.5 86t-113.5 171t-43 261.5q0 139 41 241.5t110.5 157t146.5 80t161 25.5q78 0 153.5 -25.5t112.5 -51.5l37 -25v102q109 4 217.5 6t216.5 -2q0 -4 3 -72.5l6 -134.5l3 -65q-4 0 -76.5 -16.5t-74.5 -18.5l4 -432q170 0 172 -12 q4 -10 3 -148.5t-7 -138.5q-35 0 -250 5t-215 9l-21 105l-10 -15.5t-31.5 -32t-56.5 -41t-82 -32.5t-110 -14zM569 328q70 0 115 52t45 138q0 82 -44 140.5t-107 58.5q-78 0 -124 -51.5t-46 -143.5q0 -86 49 -140t112 -54z" />
<glyph glyph-name="b" unicode="b" d="M207 14l4 1135q-2 2 -82 13.5t-86 11.5l3 65l6 134.5t3 72.5t134.5 13t268.5 17l134 7v-512q8 8 24.5 20.5t79 34t140.5 21.5q68 0 127 -13.5t120.5 -49.5t104.5 -93t69.5 -151.5t26.5 -217.5q0 -150 -48 -262.5t-126 -171.5t-157 -88t-156 -29q-55 0 -101.5 9.5 t-71 21.5t-44 27.5t-24.5 22.5t-7 14l-21 -62q-2 -2 -36.5 -2t-82 2l-93.5 4t-78.5 4t-30.5 2zM618 512q0 -96 40 -150.5t108 -54.5q61 0 96 53.5t35 153.5q0 223 -143 223q-59 0 -97.5 -65.5t-38.5 -159.5z" />
<glyph glyph-name="c" unicode="c" horiz-adv-x="1136" d="M53 530q0 137 44 243t117 166t156 91t169 31q70 0 126 -16.5t77 -31.5l22 -16l18 105l21 -1q20 -1 53 -5t69 -9.5t73.5 -17.5t62.5 -29q6 -18 4 -110t-7 -198l-5 -105l-330 -45q0 6 -2 16t-11.5 35.5t-22.5 45t-38.5 35t-58.5 13.5q-59 -2 -102.5 -51t-43.5 -146 q0 -90 52.5 -138t113.5 -48q16 0 34 3t30 7t24.5 11.5t20.5 13.5t17 14t13.5 12.5t10.5 12.5l6 8q37 -8 109.5 -64.5t128.5 -108.5l55 -52q-4 -10 -14.5 -24.5t-47 -54.5t-82 -69.5t-123 -54.5t-167.5 -25q-250 0 -411 147.5t-161 409.5z" />
<glyph glyph-name="d" unicode="d" d="M520 -23q-78 0 -155.5 28t-152.5 86.5t-122 170t-47 260.5q0 123 26.5 217.5t69.5 151.5t104.5 93t121 49.5t127.5 13.5q78 0 138 -19.5t83 -38.5l22 -18v213q-150 23 -157 28q-6 14 -3 70.5t7 121.5l4 64l522 1q7 0 8 -1l2 -1155l164 -10l2 -303q2 0 -48 -2t-118.5 -3 t-139.5 -3t-122 -1t-53 3l-25 74q-2 -4 -6 -10.5t-24.5 -22t-46 -26.5t-74 -21.5t-107.5 -10.5zM555 305q66 0 104.5 54.5t38.5 150.5q0 94 -37.5 159.5t-97.5 65.5q-143 0 -143 -223q0 -98 37 -152.5t98 -54.5z" />
<glyph glyph-name="e" unicode="e" horiz-adv-x="1062" d="M35 547q0 262 149.5 392t374.5 130q168 0 306.5 -109.5t144.5 -189.5l-56 -209l-395 -217q31 -37 363 -37q-2 -59 -13.5 -142t-21.5 -135l-10 -53q-387 -29 -614.5 129t-227.5 441zM401 584l250 153q-6 18 -32.5 36t-55.5 18q-100 0 -146.5 -68.5t-15.5 -138.5z" />
<glyph glyph-name="f" unicode="f" horiz-adv-x="919" d="M98.5 0q-14.5 8 -31 153.5t-6.5 149.5q4 2 46.5 9t81 14.5t38.5 9.5l-24 360l-156 -2l-4 301q2 2 43 3t81 1t40 2v54.5t6 80t17.5 100.5t36 98.5t59 91t90 60t125.5 25.5q100 0 203.5 -32.5t157.5 -66.5l54 -34l-168 -270q-80 47 -157 47q-29 0 -43.5 -39t-14.5 -77v-38 l244 -14q12 -43 15.5 -118.5t0.5 -129.5l-4 -53l-251 4l6 -354l178 -12l10 -324q-659 -8 -673.5 0z" />
<glyph glyph-name="g" unicode="g" d="M385 -78q82 -72 231 -72q109 0 151 94.5t13 157.5q-8 -12 -26.5 -29.5t-91 -46t-164.5 -28.5q-59 0 -120 15.5t-122 55.5t-107.5 100t-76 157.5t-29.5 218.5q0 139 42 241.5t111.5 156.5t146.5 80t161 26q78 0 153.5 -26t112.5 -51l37 -26v103q109 4 217.5 6t216.5 -2 q0 -4 3 -83l6 -155l3 -76q-4 0 -66.5 -16t-64.5 -18q31 -430 31 -691q0 -57 -13.5 -119.5t-49 -134t-91 -127t-147.5 -92.5t-209 -37q-125 0 -218 31t-125 62l-32 30zM575 342q70 0 115 52t45 138q0 82 -44 140.5t-107 58.5q-78 0 -124 -51t-46 -143q0 -86 49 -140.5 t112 -54.5z" />
<glyph glyph-name="h" unicode="h" d="M109 0q-2 14 -4.5 40t-6.5 95.5t-4 126.5l115 8l2 883q-2 2 -82 12.5t-86 10.5l3 66l6 137.5t3 74.5t124 9t248 8l124 4v-476q8 8 24.5 20.5t79 34t140.5 21.5q420 0 419 -524l-2 -268l86 -19q14 -201 0 -266l-530 6l-10 260l100 19l-2 219q0 207 -156 207 q-61 0 -107 -58.5t-46 -148.5l2 -226l123 -26l4 -246q-2 -2 -35 -3t-83 -2t-109.5 -1h-121t-109.5 1t-79.5 1t-29.5 0z" />
<glyph glyph-name="i" unicode="i" horiz-adv-x="872" d="M434 1151q-104 0 -161.5 55.5t-61.5 153.5q-2 96 57.5 154.5t143.5 58.5t148.5 -61.5t64.5 -141.5q0 -92 -47.5 -155.5t-143.5 -63.5zM94 0q-2 14 -4 40t-6 95.5t-4 126.5l176 8l2 416q0 2 -26.5 1l-55.5 -2t-55 -3l-27 -2q-2 0 -17.5 135t-15.5 143q0 6 113 11.5 t254 3.5t205 -17v-680l168 -26l4 -246q-2 -2 -42 -3t-103.5 -2t-138.5 -1h-151.5t-137 1t-100.5 1t-38 0z" />
<glyph glyph-name="j" unicode="j" horiz-adv-x="677" d="M367 1151q-104 0 -162 55.5t-62 153.5q-2 96 57.5 154.5t143.5 58.5t148.5 -61.5t64.5 -141.5q0 -92 -47 -155.5t-143 -63.5zM51 -102q43 -41 121 -41q86 0 86 129q0 133 -20.5 329.5t-38.5 280.5l-138 18l-10 342q492 4 500 -10q27 -51 51.5 -374.5t24.5 -573.5 q0 -63 -6.5 -121.5t-30 -132.5t-63.5 -127t-112.5 -91t-168.5 -38q-100 0 -190.5 33t-131.5 66l-41 34z" />
<glyph glyph-name="k" unicode="k" horiz-adv-x="1435" d="M63 -4q-2 6 -10 142t-2 136l148 11l-4 852q-160 2 -162 6q-2 2 2 133t6 135t231.5 36t237.5 26q16 -12 24.5 -73t10.5 -162t2 -192.5t-2 -218.5t-2 -186q213 115 213 127q0 6 -45 17.5t-47 15.5q-2 6 -10.5 111.5t-8.5 117.5q25 4 167 2t309 -9t167 -13v-273 q-2 -6 -69.5 0t-69.5 4q-10 -6 -108.5 -88t-104.5 -90q-6 -10 141.5 -151.5t159.5 -145.5q4 -2 38 -5t65 -7l32 -4q2 -2 9.5 -124t2.5 -124q-8 -6 -324.5 -14t-328.5 8q-4 12 -11 76.5t-11 122t-2 57.5q8 0 42.5 7t34.5 11q-25 29 -120 107t-109 61q-6 -8 -6 -153 q0 -6 43 -15.5t43 -11.5t-4 -124t-4 -128q0 -4 -141.5 -7t-281.5 -3h-141z" />
<glyph glyph-name="l" unicode="l" horiz-adv-x="872" d="M117 0q-4 16 -10.5 45t-15.5 104.5t-9 133.5l176 28l-6 858q-2 2 -65.5 12.5t-69.5 10.5q-2 0 -17.5 135t-15.5 143q0 6 111.5 16.5t234.5 13.5t205 -11v-1192l168 -14l4 -279q-2 -2 -41 -3t-100.5 -2t-134 -1h-147.5t-133 1t-97 1t-37 0z" />
<glyph glyph-name="m" unicode="m" horiz-adv-x="2009" d="M106 2q-2 14 -4 41t-6 96.5t-4 126.5l125 21l2 418q-10 10 -143 10q-2 0 -21.5 148.5t-19.5 156.5q0 4 101.5 26.5t202.5 42.5l101 19l54 -135q10 12 28.5 30.5t84 50t136.5 31.5q256 0 342 -143q90 133 345 133q80 0 149.5 -23.5t136 -77.5t104.5 -161.5t38 -259.5 l-15 -266l109 -19q14 -199 0 -264l-570 -2l-8 258l84 27l-2 235q0 102 -28.5 145.5t-98.5 43.5q-49 0 -88 -41t-41 -113l-2 -270l88 -13q12 -213 0 -278l-528 14l-8 258l96 19l-2 235q0 205 -131 205q-55 0 -91 -57.5t-36 -147.5l2 -241l86 -27l4 -244q-7 -8 -572 -8z" />
<glyph glyph-name="n" unicode="n" d="M88 0q-2 14 -4 40t-6 95.5t-4 126.5l135 8l2 490q-8 2 -32.5 0t-57.5 -4l-33 -2q-2 0 -17.5 139t-15.5 147q0 4 101.5 17.5t202.5 24.5l102 12l65 -148q10 14 31 36t90.5 57.5t147.5 35.5q420 0 419 -524l-2 -268l86 -19q14 -201 0 -266l-530 6l-10 260l100 19l-2 219 q0 207 -156 207q-61 0 -107 -58.5t-46 -148.5l2 -226l123 -26l4 -246q-2 -2 -36 -3t-86 -2t-113.5 -1h-125t-113.5 1t-83 1t-31 0z" />
<glyph glyph-name="o" unicode="o" horiz-adv-x="1124" d="M41 516q0 279 146.5 407t383.5 128q223 0 362.5 -143.5t139.5 -395.5q0 -231 -127 -392t-372.5 -161t-389 136t-143.5 421zM414 502q0 -86 52 -139.5t114 -53.5q63 0 102 49.5t39 143.5q0 88 -36 149.5t-105 61.5q-86 0 -126 -59.5t-40 -151.5z" />
<glyph glyph-name="p" unicode="p" d="M49 -190l156 12l-2 854h-152l-14 303q-2 0 112.5 18.5t230.5 34t120 10.5l43 -90q6 10 22.5 25.5t85 40t160.5 24.5q61 0 121.5 -15t124 -55t113 -99.5t80 -157t30.5 -217.5q0 -152 -41 -260.5t-110.5 -163t-144.5 -78t-161 -23.5q-78 0 -137 16.5t-80 33.5l-20 16v-203 q199 -23 207 -29q6 -4 7 -75.5t0 -131t1 -69.5h-740zM633 508q0 -92 38 -154.5t97 -62.5q143 0 143 215q0 98 -36.5 152.5t-98.5 54.5q-66 0 -104.5 -54.5t-38.5 -150.5z" />
<glyph glyph-name="q" unicode="q" horiz-adv-x="1216" d="M492 -23q-86 0 -161 24t-144.5 78t-109.5 162.5t-40 260.5q0 150 43 262.5t112.5 172.5t144.5 88t150 28q92 0 164 -21.5t97 -43.5l24 -21q39 84 43 96q4 4 84 -7.5t158 -24.5t76 -13l-17 -1192q2 -2 75 -9t81 -7l-1 -68l-2 -139.5t-1 -73.5q0 -4 -180.5 -6t-360.5 -2 h-180v280l184 33v209q-8 -8 -23.5 -18.5t-76.5 -29t-139 -18.5zM563 313q61 0 98 53.5t37 145.5q0 94 -40 145.5t-107 51.5q-131 0 -131 -199q0 -102 34.5 -149.5t108.5 -47.5z" />
<glyph glyph-name="r" unicode="r" horiz-adv-x="1171" d="M88 0q-2 16 -4 45t-6 104.5t-4 133.5l135 8l2 481q-8 2 -32.5 0t-57.5 -4l-33 -2q-2 0 -17.5 129t-15.5 137q0 4 103.5 22.5t207.5 34.5l103 15l66 -139q8 10 24 26.5t78.5 44t140.5 27.5q82 0 163 -38t121 -75t38 -47q-2 -16 -55.5 -89t-105.5 -136.5t-56 -59.5 q-82 82 -156 82q-80 0 -129 -57t-49 -149q0 -59 4 -108.5t8 -69.5l4 -19l209 -27l4 -266q-2 -2 -41 -3t-100.5 -2t-134 -1h-147t-133 1t-97.5 1t-37 0z" />
<glyph glyph-name="s" unicode="s" horiz-adv-x="1024" d="M63 -20q-4 31 -4 393q61 10 151.5 12t102.5 -2q18 -55 54 -87t71 -32q76 0 76 53q0 18 -8 34t-28.5 28t-37 20.5t-48.5 21.5t-48 19q-55 25 -94 48.5t-82 62.5t-65.5 98.5t-22.5 134.5q0 115 101.5 201t271.5 86q131 0 198 -59l13 71q205 6 292 -24q4 -2 -1 -84t-12 -175 t-7 -106q-10 -8 -72.5 -6t-135.5 7t-73 10q-4 45 -36.5 67.5t-69.5 22.5q-63 0 -64 -52q0 -18 28 -35.5t93.5 -44t93.5 -40.5q106 -49 181 -140.5t75 -216.5q0 -123 -100 -208t-238 -85q-193 0 -266 68q-2 -12 -4 -34.5t-4 -36.5l-2 -13z" />
<glyph glyph-name="t" unicode="t" horiz-adv-x="1032" d="M522 -45q-59 0 -107 13.5t-82 46t-57.5 63.5t-39 92t-23.5 101t-11 123t-4 127t-1 140v46q0 2 -36 2t-72 1t-38 3l4 301l148 16q23 238 22 242q25 16 117 31.5t172 21.5l80 6l12 -313l258 4q14 -203 -12 -301l-270 -14l-2 -169q8 -178 57 -178q29 0 66.5 16.5t61.5 32.5 l23 15l148 -295q-8 -6 -21.5 -18.5t-58.5 -42t-91 -53t-113 -42t-130 -18.5z" />
<glyph glyph-name="u" unicode="u" d="M143 498l2 233l-86 8q-4 23 -8 56.5t-12 117.5t2 101l469 33q0 -137 2 -494q0 -207 145 -207q59 0 96.5 57.5t37.5 149.5l-3 145l-135 7l-16 290l508 39v-702q2 -2 64.5 -14.5t66.5 -12.5q2 0 2 -309q0 -4 -96.5 -7t-192.5 -4l-96 -1l-35 90q-12 -10 -35.5 -27.5 t-97.5 -45.5t-152 -28q-86 0 -156.5 23.5t-135 78t-101.5 162t-37 261.5z" />
<glyph glyph-name="v" unicode="v" horiz-adv-x="1419" d="M516 -6q-291 602 -321 770l-129 6q-4 23 -8.5 54.5t-13.5 113.5t1 98l612 -6l11 -262l-115 -4l156 -348l147 342l-102 6l-4 266q2 2 35.5 3t86 2t114 1h125t113.5 -1t82.5 -1t30.5 0q2 -14 4 -39.5t6.5 -95.5t4.5 -127l-123 -8q-254 -590 -379 -776q-248 -14 -334 6z" />
<glyph glyph-name="w" unicode="w" horiz-adv-x="1998" d="M469 -6q-250 596 -281 764l-129 6q-4 23 -8 55.5t-13 116.5t1 100l612 -6l11 -268l-109 -4l109 -250l245 434l187 -6l272 -432l98 248l-116 6l2 272q2 2 36.5 3t89 2t118 1h128t116.5 -1t86 -1t32 0q2 -16 4 -42.5t6 -99.5t4 -130l-123 -8q-203 -580 -327 -766 q-166 -14 -252 6l-279 446l-248 -452q-186 -14 -272 6z" />
<glyph glyph-name="x" unicode="x" horiz-adv-x="1372" d="M80 2q-4 2 -7 132t-1 132l23 4q24 4 49.5 7.5t29.5 5.5q10 4 106.5 116.5t90.5 122.5t-89 105.5t-89 99.5q-2 2 -70 -4t-70 0v287q0 6 145.5 11t270.5 5t145 -4q0 -2 5.5 -65.5l10.5 -125t3 -65.5t-25.5 -5t-45 -1t-21.5 -6t30.5 -43l59.5 -71l28 -34q127 147 127 160 q0 6 -23.5 4l-45 -4t-27.5 2q-2 4 -2 41t1 79l2 81t1 41q0 4 141.5 10t263.5 7t142 -5v-279q-4 -6 -53 -7t-51 -3q-4 -4 -90.5 -102.5t-92.5 -108.5t109 -122.5t127 -116.5q4 -2 29.5 -5.5t49.5 -7.5l23 -4q2 -2 9.5 -129t3.5 -129q-8 -6 -284 -10t-288 12q-4 12 -11 77 t-11 123t-2 58q8 0 42.5 7.5t34.5 11.5l-114 129l-92 -129q0 -4 30.5 -11.5t36.5 -7.5q2 0 5 -59t2 -125t-5 -78q-12 -16 -285.5 -13t-281.5 9z" />
<glyph glyph-name="y" unicode="y" horiz-adv-x="1419" d="M205 -352q-6 0 68.5 118.5l150.5 238.5t72 120q-287 471 -318 639l-112 6q-4 23 -8.5 54.5t-13.5 113.5t1 98l612 2l11 -270l-115 -4l156 -289l147 283l-102 6l-4 266q2 2 64.5 3t148.5 -1l171 -4t145 -4t58 -2q2 -14 4 -40t6.5 -95.5t4.5 -126.5l-113 -6 q-555 -1094 -680 -1280q-12 2 -31.5 7t-73 20.5t-97.5 35t-89 49t-63 62.5z" />
<glyph glyph-name="z" unicode="z" horiz-adv-x="1173" d="M115 2q-2 0 -28 135t-24 137q0 2 135.5 129l268.5 253t129 126q-2 0 -50 5.5t-93 9.5t-47 2l-23 -131q-289 20 -305 28q-6 14 -5 90t6 163l5 87q940 0 940 -6q0 -2 11.5 -68.5t21.5 -132t8 -65.5q-2 -2 -55.5 -49l-127 -116l-147 -136.5l-125 -114.5t-49.5 -47l34 -1 q34 -1 72 -2t71.5 -2t33.5 1t2 32.5l4 60.5t4 30q297 0 310 -19q6 -20 4 -109t-7 -190l-6 -100h-968z" />
<glyph glyph-name="braceleft" unicode="{" horiz-adv-x="841" d="M240 -180v534q0 27 -43 46.5t-92.5 29.5t-53.5 12q-10 8 -13 137.5t3 135.5q2 2 62.5 4t119 19.5t58.5 58.5q0 27 7 186.5t7 190.5q0 84 41 150.5t99.5 103t131 60t127 31t97.5 7.5q10 -25 13 -87.5t-1 -115.5t-10 -53q-254 -37 -254 -148q0 -70 -3.5 -189.5t-3.5 -135.5 q0 -49 -17 -91t-40.5 -66t-48.5 -41t-42 -24l-17 -6q6 -4 17 -10t40 -26.5t50.5 -43t39.5 -57.5t18 -72q0 -31 -3 -228.5t-3 -254.5q0 -47 62.5 -80t125 -44t64.5 -3l2 -229q-2 -2 -56 -4t-134 9t-159 38.5t-135 93.5t-56 162z" />
<glyph glyph-name="bar" unicode="|" horiz-adv-x="473" d="M182 -514q-6 16 -17 1015.5t-5 1007.5q8 10 53 14.5t86 2.5t41 -4v-2026l-121 -17q-35 -1 -37 7z" />
<glyph glyph-name="braceright" unicode="}" horiz-adv-x="841" d="M70 -254q2 -8 64.5 1t125 41t62.5 79q0 57 -3.5 260t-3.5 233q0 18 4.5 36t11.5 33t17 30.5t20.5 28t22.5 23.5t23.5 19.5l21.5 15.5l17.5 12t13.5 8l6 3q-6 2 -20.5 8.5t-41 23.5t-49 41t-39 65t-16.5 90v305q0 111 -252 147q-8 2 -14 53.5t-5 113t11 85.5q47 0 98.5 -5 t129 -24.5t135 -52.5t100.5 -97.5t43 -147.5q0 -31 7 -191t7 -186q0 -41 58.5 -57.5t119 -17.5t62.5 -3q6 -10 9 -148.5t-7 -150.5q-4 -4 -56.5 -8t-98.5 -17.5t-46 -40.5v-544q0 -96 -56 -162t-135 -91.5t-159 -35.5t-134 -8t-56 4z" />
<glyph glyph-name="asciitilde" unicode="~" horiz-adv-x="1431" d="M215 356q-6 -6 -75.5 81t-69.5 98q0 6 17 31.5t53 64.5t81 74.5t109.5 61.5t130.5 26q72 0 142.5 -36t119.5 -78t113.5 -78t121.5 -36q41 0 75 13.5t54.5 33t36 45t21.5 45l12 39t6 21.5q4 10 52.5 -20.5t95.5 -65.5t47 -39t-15.5 -37t-50.5 -83t-80 -97t-114.5 -81 t-143.5 -34q-90 0 -163.5 35t-114.5 77t-96.5 76.5t-112.5 34.5q-49 0 -92 -16t-71 -42t-46 -49.5t-29.5 -44t-13.5 -20.5z" />
<glyph glyph-name="exclamdown" unicode="&#xa1;" horiz-adv-x="630" d="M305 584q-84 0 -148.5 61.5t-64.5 140.5q0 92 47 156t144 64q104 0 161.5 -55.5t61.5 -153.5q2 -96 -57.5 -154.5t-143.5 -58.5zM223 371q25 4 94.5 3t75.5 -7q10 -12 51 -146.5t82 -332t41 -330.5q-25 -16 -218 -16.5t-292 20.5q0 215 38 414.5t76 296t52 98.5z" />
<glyph glyph-name="cent" unicode="&#xa2;" horiz-adv-x="1136" d="M201 -80q0 6 78 148q-225 152 -226 462q0 242 157 386.5t363 144.5q125 0 242 -45l32.5 58.5l24.5 44.5l9 16q8 2 40.5 -14.5t61.5 -34.5l29 -17l-70 -119q37 -31 67.5 -67.5t42.5 -57.5l11 -20q-104 -145 -219 -232q-2 2 -12.5 14.5l-24.5 30t-31 31.5l-190 -330 q18 -6 39 -6q84 0 168 97q37 -8 103.5 -60.5t114.5 -100.5l48 -48q-4 -10 -14.5 -24.5t-47 -54.5t-82 -69.5t-123 -54.5t-167.5 -25q-111 0 -226 37l-84 -147l-97 42q-18 10 -17 15zM485 389l181 330q-20 12 -48 12q-90 0 -141 -58.5t-51 -140.5q0 -102 59 -143z" />
<glyph glyph-name="sterling" unicode="&#xa3;" horiz-adv-x="1196" d="M129 4q-6 0 -7 22.5t1 59.5l4 72t5 68.5t3 39.5q150 39 115 361q-139 0 -141 2q-8 4 -2 80.5t12 81.5q47 0 108 -3q-39 238 -39 285q0 190 136.5 287.5t339.5 97.5q88 0 167.5 -20.5t130 -50t88 -63.5t54 -58.5t16.5 -34.5q0 -29 -87 -138.5t-148 -144.5 q-4 10 -14.5 26.5t-50.5 44.5t-91 28q-41 0 -66.5 -30t-25.5 -85t20 -148q221 -4 222 -6q0 -6 -7.5 -69.5t-9.5 -67.5q-2 -2 -180 -6q23 -182 -53 -256q0 -6 95 -7t203.5 -2t133.5 -8q14 -49 19 -138t3 -154.5t-6 -69.5q-8 -6 -470 1t-478 3z" />
<glyph glyph-name="currency" unicode="&#xa4;" horiz-adv-x="1179" d="M258 125q-2 4 -39 45t-60.5 69.5t-19.5 30.5l101 95q-68 100 -68 260q0 102 31 176q-111 106 -99 121q6 6 38 47l59.5 74.5t31.5 29.5l105 -119q100 59 250 60q129 0 227 -64l141 131q117 -121 119 -139t-125 -156q29 -76 29 -163q0 -152 -76 -258l129 -140 q-2 -2 -31.5 -28.5l-66.5 -58.5t-47 -40q-23 -14 -160 140q-59 -20 -139 -21q-102 0 -180 27q-132 -142 -150 -119zM584 442q68 0 106.5 43t38.5 123q0 72 -37 125t-108 53q-80 0 -118 -50t-38 -128q0 -74 50.5 -120t105.5 -46z" />
<glyph glyph-name="yen" unicode="&#xa5;" horiz-adv-x="1437" d="M410 -14q-4 2 -6.5 131t-0.5 131q2 0 37 4t69 9t34 7v107q-199 -6 -205 -4q-8 2 -12 80.5t2 80.5q92 2 215 7v79q-270 -4 -278.5 0.5t-2.5 81t12 80.5q119 -2 228 -2q-41 55 -107.5 134l-114 132.5t-49.5 51.5t-40.5 3l-77.5 10t-39 7l1 34q1 34 1 80t1 93t1 80t-2 33 l602 -11l22 -280q-2 -4 -98 -4l35 -40l71 -81l35 -41q8 10 23.5 27.5t45.5 54.5l49.5 62.5t17.5 27.5t-82 2q-6 2 -4 142.5t4 142.5t276.5 -3t284.5 -9.5t19 -139.5t5 -139q-6 -6 -125 -6q-8 0 -284 -371l145 -4q0 -6 -7 -69.5t-9 -67.5q-2 -2 -191 -6q0 -8 1 -37t1 -41 q188 0 217 -6q4 -2 5.5 -67.5t-0.5 -70.5q-4 -4 -220 -12q0 -35 1.5 -61.5t1.5 -39v-14.5q0 -8 28.5 -10t60 -2t35.5 -4q6 -8 7 -254q0 -6 -317.5 -13t-321.5 -5z" />
<glyph glyph-name="brokenbar" unicode="&#xa6;" horiz-adv-x="473" d="M182 774q-14 2 -14 364.5t8 370.5q8 10 49 14.5t78 2.5t37 -4v-738l-29.5 -5t-64 -7t-64.5 2zM174 238q8 10 48 12t76 -1t36 -5l6 -748l-121 -17q-34 -1 -37 7q-6 16 -10 379t2 373z" />
<glyph glyph-name="section" unicode="&#xa7;" horiz-adv-x="1183" d="M164 -88q0 8 59.5 11t119.5 3t60 -4q8 -63 51.5 -107t105 -44t89 26.5t27.5 65.5q0 49 -61.5 93t-148.5 86t-174 94t-148.5 137t-61.5 194q0 215 151 346q-4 2 -23.5 20.5t-25.5 25.5l-22.5 26.5t-24.5 37t-17 42t-13.5 55.5t-4.5 65q0 147 106.5 258t287.5 111 q31 0 57.5 -3t50 -8t43 -11.5t37.5 -15.5l30.5 -15t26 -17.5t19.5 -15.5t17 -14l11 -11l17 123q147 6 235 -24q4 -2 -1 -94.5t-12 -195.5t-7 -116q0 -8 -59.5 -11t-120 -3t-60.5 4q-8 63 -51 107.5t-104.5 44.5t-89 -27t-27.5 -66q0 -41 44 -74.5t109.5 -57t143.5 -62.5 t143.5 -85t109.5 -130t44 -195q0 -217 -154 -346q4 -4 23.5 -25.5l28 -30.5t24.5 -30.5t23.5 -38t16.5 -40t13 -50t4 -57.5q0 -147 -106.5 -258t-286.5 -111q-31 0 -57.5 3t-50 8.5t-43 11.5t-38 15t-30.5 15.5t-25.5 17.5t-19.5 15t-17 14l-12 11l-16 -123q-147 -6 -236 24 q-4 2 1.5 94.5t12.5 196t7 115.5zM424 537q0 -53 48 -96.5t139 -91.5t110 -60q39 45 39 123q0 61 -57.5 106t-205.5 123q-22 12 -34 18q-39 -48 -39 -122z" />
<glyph glyph-name="dieresis" unicode="&#xa8;" horiz-adv-x="1134" d="M852 1159q-100 0 -154.5 53.5t-58.5 147.5q-2 92 54.5 148.5t136 56.5t141 -59.5t61.5 -135.5q0 -90 -44 -150.5t-136 -60.5zM317 1159q-100 0 -154 53.5t-59 147.5q-2 92 53.5 148.5t135.5 56.5t142.5 -59.5t62.5 -135.5q0 -90 -44.5 -150.5t-136.5 -60.5z" />
<glyph glyph-name="copyright" unicode="&#xa9;" horiz-adv-x="1572" d="M41 688q0 383 217 576.5t565 193.5q311 0 510 -193.5t199 -533.5q0 -150 -43 -281t-128 -237.5t-226.5 -168.5t-323.5 -62q-342 0 -556 193.5t-214 512.5zM195 688q0 -266 180 -418.5t438 -152.5q236 0 389.5 145.5t153.5 425.5q0 121 -31 229.5t-92.5 198.5 t-165.5 143.5t-242 53.5q-168 0 -293.5 -51.5t-197.5 -140.5t-105.5 -197.5t-33.5 -235.5zM410 711q0 199 102 295t246 96q41 0 75.5 -16.5t49.5 -32.5l14 -17l14 86l35 -2q35 -2 83 -10t71 -23q4 -14 2 -76.5t-5 -133.5l-3 -72l-203 -31q-2 12 -8 29.5t-37 47.5t-74 30 t-72.5 -44t-29.5 -126q0 -80 40 -121t89 -41q18 0 37.5 5t36 14.5t27.5 17.5l21.5 16t12.5 10q25 -12 65.5 -48l70.5 -65l30 -30q-2 -6 -9.5 -18.5t-32 -41t-55 -51t-86 -41t-118.5 -18.5q-156 0 -272.5 109.5t-116.5 302.5z" />
<glyph glyph-name="ordfeminine" unicode="&#xaa;" horiz-adv-x="946" d="M373 829q-106 0 -198.5 79t-92.5 249q0 158 90 230.5t205 72.5q47 0 92 -15t68 -31l22 -15v61q70 2 140.5 3t140.5 -1l8 -184q-2 0 -46 -9t-46 -12l4 -219q100 2 102 -6q2 -6 1 -99t-3 -93q-299 0 -299 8l-12 63l-17.5 -22.5t-56.5 -37t-102 -22.5zM416 1049 q37 0 61.5 28.5t24.5 73.5t-23.5 75.5t-56.5 30.5q-41 0 -66.5 -27.5t-25.5 -76.5q0 -47 25.5 -75.5t60.5 -28.5z" />
<glyph glyph-name="guillemotleft" unicode="&#xab;" horiz-adv-x="1161" d="M66 440q0 6 201.5 273.5t207.5 271.5q2 2 42 -13.5t79 -33.5t37 -23l-252 -442l258 -436l-172 -111q-2 -2 -102.5 125l-199.5 256t-99 133zM555 493.5q0 10.5 182.5 226.5t190.5 222q6 4 64.5 -38t58.5 -48q0 -2 -98.5 -192.5t-96.5 -194.5q0 -2 106.5 -181t106.5 -185.5 t-70.5 -66t-74.5 -57t-186.5 253t-182.5 261z" />
<glyph glyph-name="logicalnot" unicode="&#xac;" horiz-adv-x="1124" d="M88 637q-6 0 -8 52t0 104.5t4 52.5q31 6 893 22l4 -534q0 -10 -105.5 -23.5t-107.5 -3.5q-14 98 -14 324q-453 -23 -666 6z" />
<glyph glyph-name="registered" unicode="&#xae;" horiz-adv-x="1060" d="M545 649q-227 0 -365.5 124t-138.5 349q0 236 142.5 366t359.5 130q213 0 345 -127t132 -352q0 -205 -121 -347.5t-354 -142.5zM551 774q141 0 229 86t88 254q0 154 -78.5 262.5t-238.5 108.5q-193 0 -280 -103.5t-87 -267.5q0 -156 107.5 -248t259.5 -92zM340 930l-2 9 q-2 9 -3 23.5t-3 29t-1 24.5t3 10q41 0 41 6v213q-41 0 -41 2q-2 4 -1 57.5t3 57.5h41t77 -1t62 -1q190 0 191 -115q0 -39 -15.5 -70.5t-32.5 -44.5l-16 -12l51 -96q39 2 39 0l1 -15q1 -15 1 -32v-33v-16q-2 -4 -95 -3t-95 5t-1 46t3 46q12 4 20 4q0 4 -14 35t-16 31l-27 -3 l-27 -2v-61l29 -2v-94zM483 1180l22 1q22 1 43 10t21 32q0 16 -20.5 21t-41.5 3l-22 -2v-11t-1 -21.5t-1 -23.5v-9z" />
<glyph glyph-name="macron" unicode="&#xaf;" horiz-adv-x="925" d="M113 1186q-10 0 -8.5 141t8.5 146q10 4 356 12t352 -2q4 -12 -2 -146.5t-10 -134.5q-2 0 -345 -8t-351 -8z" />
<glyph glyph-name="degree" unicode="&#xb0;" horiz-adv-x="651" d="M346 901q-285 0 -285 281q0 137 79 201.5t206 64.5q119 0 193.5 -71.5t74.5 -196.5q0 -117 -67.5 -198t-200.5 -81zM344 1057q45 0 72.5 29.5t27.5 82.5q0 49 -25.5 86t-74.5 37q-55 0 -81.5 -34.5t-26.5 -88.5q0 -49 34.5 -80.5t73.5 -31.5z" />
<glyph glyph-name="plusminus" unicode="&#xb1;" horiz-adv-x="1273" d="M537 512q-2 10 -5.5 67.5l-6.5 110.5t-5 55.5t-214 -5t-218 -1.5q-4 4 -11 56.5t-11.5 102.5t-2.5 50l459 6v394l226 -2v-373h430q2 -182 -9 -193q-6 -6 -209.5 -25.5t-207.5 -21.5q-6 -2 -2 -110.5t2 -110.5q-6 -6 -107.5 -10t-107.5 10zM143 162q-6 0 -8 52t0 104.5 t4 52.5l957 4q10 0 12 -94.5t-6 -98.5q-55 -27 -443.5 -32.5t-515.5 12.5z" />
<glyph glyph-name="uni00B2" unicode="&#xb2;" horiz-adv-x="681" d="M113 827q-4 4 -13.5 83t-7.5 98q25 27 91.5 91t99 103t32.5 62q0 12 -12 23t-27 11q-27 0 -51 -9t-35 -18l-10 -9q-4 -4 -16 10t-25.5 37.5l-27 49t-21.5 45t-8 23.5q0 10 27.5 33t88 45.5t132.5 22.5q100 0 181 -47t81 -142q0 -100 -156 -299l156 2q2 -4 4 -27.5t2 -54 v-60.5t-2 -50.5t-4 -20.5q-8 2 -242.5 -1t-236.5 -1z" />
<glyph glyph-name="uni00B3" unicode="&#xb3;" horiz-adv-x="684" d="M326 811q-51 0 -95.5 13.5t-70 33t-45 38.5t-26.5 33l-7 13q100 113 106 113q2 0 14.5 -11.5t35 -23.5t47.5 -12q51 0 51 43q0 59 -96 59q-4 8 -3 33.5t3 54.5l2 29q33 0 47 1t32.5 12t18.5 34q0 27 -16.5 43t-40.5 16q-18 0 -39 -7t-31 -14l-10 -7q-2 2 -5 6t-13.5 15 t-18.5 22.5t-19.5 26t-18.5 24.5t-12 19t-5 14q2 14 25.5 33.5t85 39t145.5 19.5q92 0 158.5 -48.5t66.5 -140.5q0 -47 -18.5 -85t-32 -50t-23.5 -16q8 -4 24.5 -17.5t38 -50.5t21.5 -80q0 -100 -88 -162.5t-188 -62.5z" />
<glyph glyph-name="acute" unicode="&#xb4;" horiz-adv-x="925" d="M223 1167q-14 8 -45 69.5t-53 120.5l-23 58l569 230q24 9 25 8q8 -2 41 -76t60.5 -146.5t23.5 -74.5q-586 -195 -598 -189z" />
<glyph glyph-name="uni00B5" unicode="&#xb5;" d="M502 2q2 -90 9 -207t12 -182.5t1 -65.5l-348 -26q-4 90 -11 233.5t-16.5 468t-3.5 508.5l-86 8q-4 23 -8 56.5t-12 117.5t2 101l469 33q0 -137 2 -494q0 -207 145 -207q59 0 96.5 57.5t37.5 149.5l-3 145l-135 7l-16 290l508 39v-702q2 -2 64.5 -14.5t66.5 -12.5 q2 0 2 -309q0 -4 -96.5 -7t-192.5 -4l-96 -1l-35 90q-111 -100 -215 -101q-71 0 -141 29z" />
<glyph glyph-name="paragraph" unicode="&#xb6;" horiz-adv-x="1630" d="M565 -479q-6 131 -4 370.5t7 475.5l5 235q-80 0 -157.5 20.5t-149 62.5t-116 119t-46.5 179q-2 113 31 198t85 133t132 77.5t158 40t174 10.5q803 0 838 -10q6 -14 4 -89t-7 -161l-6 -86q-61 0 -139 2q0 -23 1 -385.5t1 -656.5v-531l-260 -9q-32 1 -35 5q-8 207 -5 838.5 t7 740.5h-172q-47 -1081 -51 -1575l-260 -9q-32 2 -35 5z" />
<glyph glyph-name="periodcentered" unicode="&#xb7;" horiz-adv-x="630" d="M340 565q-104 0 -161.5 55.5t-61.5 153.5q-2 96 57 154.5t143 58.5t148.5 -61.5t64.5 -141.5q0 -92 -47 -155.5t-143 -63.5z" />
<glyph glyph-name="cedilla" unicode="&#xb8;" horiz-adv-x="608" d="M229 25q152 2 242 -5l-8 -124q6 -2 17.5 -7.5t40 -24t50 -40t40 -59t18.5 -80.5q0 -31 -11.5 -59.5t-31 -51.5t-45 -41t-54 -31.5t-56.5 -25t-54.5 -18.5l-46 -12t-31.5 -7l-12 -2q-2 -2 -18.5 44t-29 92t-8.5 48q2 0 18.5 3t35 9.5t38 14.5t32 21.5t12.5 29.5 q0 33 -36 54.5t-71 25.5l-35 4z" />
<glyph glyph-name="uni00B9" unicode="&#xb9;" horiz-adv-x="638" d="M133 840l-4 196l102 2l9 267q-74 -35 -82 -37q-6 -2 -40 52t-34 58q0 2 53 46l106.5 88t53.5 42l174 -45l-6 -469q0 -2 40 -1t46 -5q2 -2 3 -13t1 -28.5v-37t-1 -40t-1 -37t-1 -26.5l-1 -10q-2 -2 -418 -2z" />
<glyph glyph-name="ordmasculine" unicode="&#xba;" horiz-adv-x="651" d="M346 901q-285 0 -285 281q0 137 79 201.5t206 64.5q119 0 193.5 -71.5t74.5 -196.5q0 -117 -67.5 -198t-200.5 -81zM344 1057q45 0 72.5 29.5t27.5 82.5q0 49 -25.5 86t-74.5 37q-55 0 -81.5 -34.5t-26.5 -88.5q0 -49 34.5 -80.5t73.5 -31.5z" />
<glyph glyph-name="guillemotright" unicode="&#xbb;" horiz-adv-x="1161" d="M496 37l258 436l-232 442q-2 4 32 21.5t73 33t51 15.5q391 -537 391 -545q0 -4 -99.5 -133l-199.5 -256t-102 -125zM66 41q0 6 106.5 216t106.5 212q2 4 -96.5 194.5t-98.5 192.5q0 6 58.5 48t64.5 38q8 -6 180 -242.5t172 -247t-172 -271.5t-176 -263t-74.5 57.5 t-70.5 65.5z" />
<glyph glyph-name="onequarter" unicode="&#xbc;" horiz-adv-x="1658" d="M133 840l-4 196l102 2l9 267q-74 -35 -82 -37q-6 -2 -40 52t-34 58q0 2 53 46l106.5 88t53.5 42l174 -45l-6 -469q0 -2 40 -1t46 -5q2 -2 3 -13t1 -28.5v-37t-1 -40t-1 -37t-1 -26.5l-1 -10q-2 -2 -418 -2zM166 117l251 341l502.5 679t260.5 338q14 0 88.5 -57.5 t70.5 -74.5q-6 -29 -494.5 -712.5t-508.5 -669.5q-16 10 -58 47t-78 72t-34 37zM1026 289l1 102l2 205l1 102l193 7v-242h65l8 162q199 -6 201 -7l4 -163q76 0 76 -2v-172l-84 -5q-2 -96 -2 -98l15 -1q15 -1 32.5 -3t22.5 -4q6 -4 6 -172q0 -2 -398 -2l1 46l2 92l2 46l106 2 l6 94z" />
<glyph glyph-name="onehalf" unicode="&#xbd;" horiz-adv-x="1574" d="M133 840l-4 196l102 2l9 267q-74 -35 -82 -37q-6 -2 -40 52t-34 58q0 2 53 46l106.5 88t53.5 42l174 -45l-6 -469q0 -2 40 -1t46 -5q2 -2 3 -13t1 -28.5v-37t-1 -40t-1 -37t-1 -26.5l-1 -10q-2 -2 -418 -2zM166 117l251 341l502.5 679t260.5 338q14 0 88.5 -57.5 t70.5 -74.5q-6 -29 -494.5 -712.5t-508.5 -669.5q-16 10 -58 47t-78 72t-34 37zM985 178q25 27 91.5 91.5t99 103.5t32.5 61q0 12 -12 23.5t-27 11.5q-27 0 -51 -9t-35 -19l-10 -9q-4 -4 -16.5 10.5t-25.5 38l-26.5 49t-21.5 45t-8 23.5q0 10 27.5 32.5t88 45t132.5 22.5 q100 0 181 -47t81 -141q0 -100 -156 -299l156 2q2 -4 4 -27.5t2 -54.5v-60.5t-2 -50t-4 -20.5q-8 2 -242.5 -1t-236.5 -1q-4 4 -13.5 83t-7.5 97z" />
<glyph glyph-name="threequarters" unicode="&#xbe;" horiz-adv-x="1658" d="M326 811q-51 0 -95.5 13.5t-70 33t-45 38.5t-26.5 33l-7 13q100 133 106 133q2 0 14.5 -11t35 -23.5t47.5 -12.5q31 0 30 31q0 51 -75 51q-4 8 -3 33.5t3 54.5l2 29h22t19.5 2t19.5 7t11 14.5t5 23.5q0 39 -36 39q-18 0 -39 -7.5t-31 -14.5l-10 -7q-4 4 -10.5 13.5 l-22.5 32l-28.5 41t-21.5 36.5t-9 25q2 14 25.5 33.5t80.5 39t129 19.5q88 0 166 -51.5t80 -137.5q2 -47 -16.5 -85t-33 -49t-24.5 -17q8 -4 24.5 -17.5t38 -50.5t21.5 -80q0 -100 -88 -162.5t-188 -62.5zM166 117l251 341l502.5 679t260.5 338q14 0 88.5 -57.5t70.5 -74.5 q-6 -29 -494.5 -712.5t-508.5 -669.5q-16 10 -58 47t-78 72t-34 37zM1026 289l1 102l2 205l1 102l193 7v-242h65l8 162q199 -6 201 -7l4 -163q76 0 76 -2v-172l-84 -5q-2 -96 -2 -98l15 -1q15 -1 32.5 -3t22.5 -4q6 -4 6 -172q0 -2 -398 -2l1 46l2 92l2 46l106 2l6 94z" />
<glyph glyph-name="questiondown" unicode="&#xbf;" horiz-adv-x="1087" d="M614 596q-84 0 -148.5 61.5t-64.5 141.5q0 92 47.5 155.5t143.5 63.5q104 0 161.5 -55.5t61.5 -153.5q2 -96 -57.5 -154.5t-143.5 -58.5zM127 -2q0 139 50 236.5t140.5 143.5t193.5 62.5t228 5.5q8 -8 8.5 -84.5t-4.5 -148.5l-4 -72q-41 0 -59 -1t-52 -7t-50.5 -17.5 t-29.5 -36t-13 -61.5q0 -47 28.5 -74.5t71.5 -27.5q49 0 98 33t73 65l23 33q8 -8 22.5 -20.5t49.5 -45t61.5 -61.5t47 -57.5t18.5 -42.5q-4 -23 -31.5 -66t-77 -94t-133.5 -89t-178 -38q-211 0 -346 126t-135 339z" />
<glyph glyph-name="Agrave" unicode="&#xc0;" horiz-adv-x="1435" d="M315 1722q-4 2 21.5 72t56.5 141.5t39 73.5q4 2 151.5 -49l292.5 -102l144 -52q-74 -238 -107 -254q-6 -2 -290.5 80t-307.5 90zM82 -25q-12 27 -19.5 101t-8.5 134l-1 60l135 33q41 225 104.5 508t106.5 453l43 170q49 12 141.5 9t183.5 -12l91 -10l399 -1128h119v-301 l-499 -18q-68 0 -74 3q-14 10 -26.5 149.5t-2.5 143.5l105 6l-56 166l-276 4l-27 -135l139 -18q2 -18 4.5 -45t7.5 -99.5t5 -99v-45.5zM582 698l182 11l-102 266z" />
<glyph glyph-name="Aacute" unicode="&#xc1;" horiz-adv-x="1435" d="M397 1556q-14 8 -44.5 70t-53.5 120l-23 58l569 230q24 9 25 8q8 -2 41 -76t60.5 -146.5t23.5 -74.5q-586 -195 -598 -189zM82 -25q-12 27 -19.5 101t-8.5 134l-1 60l135 33q41 225 104.5 508t106.5 453l43 170q49 12 141.5 9t183.5 -12l91 -10l399 -1128h119v-301 l-499 -18q-68 0 -74 3q-14 10 -26.5 149.5t-2.5 143.5l105 6l-56 166l-276 4l-27 -135l139 -18q2 -18 4.5 -45t7.5 -99.5t5 -99v-45.5zM582 698l182 11l-102 266z" />
<glyph glyph-name="Acircumflex" unicode="&#xc2;" horiz-adv-x="1435" d="M399 1561q-12 2 -33.5 26.5t-44 59l-43 68.5l-34.5 58l-15 23q-2 0 35 29.5l92.5 71.5l111.5 84l97 72t47 32q4 2 113 -68.5l215 -142.5l107 -72q-141 -211 -175 -227l-237 160zM82 -25q-12 27 -19.5 101t-8.5 134l-1 60l135 33q41 225 104.5 508t106.5 453l43 170 q49 12 141.5 9t183.5 -12l91 -10l399 -1128h119v-301l-499 -18q-68 0 -74 3q-14 10 -26.5 149.5t-2.5 143.5l105 6l-56 166l-276 4l-27 -135l139 -18q2 -18 4.5 -45t7.5 -99.5t5 -99v-45.5zM582 698l182 11l-102 266z" />
<glyph glyph-name="Atilde" unicode="&#xc3;" horiz-adv-x="1435" d="M178 1634q0 8 -1 21.5t2 51.5t12.5 73t31 78t53 73.5t85 51t122.5 20.5q63 0 126 -33t106 -66.5t63 -33.5q23 0 39.5 24.5t22.5 49.5l6 24q203 -16 252 -49q0 -8 -1 -20.5t-7.5 -49.5t-16.5 -70.5t-32.5 -74.5t-51 -70.5t-75 -50t-103.5 -20.5q-51 0 -100 21.5t-80 47 t-66 47t-61 21.5q-23 0 -35 -22.5t-18.5 -51.5t-10.5 -33q-12 -11 -262 41zM82 -25q-12 27 -19.5 101t-8.5 134l-1 60l135 33q41 225 104.5 508t106.5 453l43 170q49 12 141.5 9t183.5 -12l91 -10l399 -1128h119v-301l-499 -18q-68 0 -74 3q-14 10 -26.5 149.5t-2.5 143.5 l105 6l-56 166l-276 4l-27 -135l139 -18q2 -18 4.5 -45t7.5 -99.5t5 -99v-45.5zM582 698l182 11l-102 266z" />
<glyph glyph-name="Adieresis" unicode="&#xc4;" horiz-adv-x="1435" d="M922 1567q-100 0 -154.5 53t-58.5 147q-2 92 54 148.5t136 56.5t141.5 -59.5t61.5 -134.5q0 -90 -44 -150.5t-136 -60.5zM387 1567q-100 0 -154.5 53t-58.5 147q-2 92 53.5 148.5t135 56.5t142 -59.5t62.5 -134.5q0 -90 -44 -150.5t-136 -60.5zM82 -25q-12 27 -19.5 101 t-8.5 134l-1 60l135 33q41 225 104.5 508t106.5 453l43 170q49 12 141.5 9t183.5 -12l91 -10l399 -1128h119v-301l-499 -18q-68 0 -74 3q-14 10 -26.5 149.5t-2.5 143.5l105 6l-56 166l-276 4l-27 -135l139 -18q2 -18 4.5 -45t7.5 -99.5t5 -99v-45.5zM582 698l182 11 l-102 266z" />
<glyph glyph-name="Aring" unicode="&#xc5;" horiz-adv-x="1435" d="M645 1530q-285 0 -285 280q0 137 79 202t206 65q119 0 193.5 -72t74.5 -197q0 -117 -67.5 -197.5t-200.5 -80.5zM645 1702q80 0 80 90q0 39 -20.5 68.5t-59.5 29.5q-86 0 -86 -98q0 -41 27.5 -65.5t58.5 -24.5zM82 -25q-12 27 -19.5 101t-8.5 134l-1 60l135 33 q41 225 104.5 508t106.5 453l43 170q49 12 141.5 9t183.5 -12l91 -10l399 -1128h119v-301l-499 -18q-68 0 -74 3q-14 10 -26.5 149.5t-2.5 143.5l105 6l-56 166l-276 4l-27 -135l139 -18q2 -18 4.5 -45t7.5 -99.5t5 -99v-45.5zM582 698l182 11l-102 266z" />
<glyph glyph-name="AE" unicode="&#xc6;" horiz-adv-x="1976" d="M82 -25q-12 27 -19.5 101t-8.5 134l-1 60l135 33l357.5 751t210.5 392q2 6 274.5 9t543.5 2l271 -1q8 -12 14.5 -38.5t8.5 -61.5t3 -77t0 -83t-3 -81t-4 -69.5t-3 -49.5l-1 -19q0 -4 -140.5 -6t-154.5 0q-6 0 -12.5 36.5t-9.5 75.5t-3 41q-2 4 -115.5 6.5t-117.5 -2 t-2 -119t6 -116.5q2 0 55 -2t104.5 -5t51.5 -5t2 -32t4 -70t3 -83t2 -68.5t-1 -29.5q-2 0 -59.5 -3t-112.5 -7t-57 -6q-4 -6 -5 -269q8 -4 63.5 -3t120 6.5t64.5 7.5q0 4 29 109.5t29 107.5t82.5 -6.5t166.5 -18.5t84 -12q0 -10 -19.5 -263t-21.5 -255q-2 0 -105 -2 l-236.5 -4.5t-282 -3.5t-276.5 3.5t-183 14.5q0 283 10 305q10 10 115 10l-4 133l-305 4l-47 -135l98 -18q2 -18 4 -45t7 -99.5t5 -99v-45.5zM729 717l199 -8v401z" />
<glyph glyph-name="Ccedilla" unicode="&#xc7;" horiz-adv-x="1308" d="M535 0q-207 63 -344.5 248.5t-137.5 468.5q0 186 52.5 327.5t139.5 222.5t189.5 119.5t214.5 38.5q70 0 130.5 -21.5t85.5 -42.5l26 -22l22 121l61 -5q60 -5 141 -19.5t120 -38.5q6 -23 4 -136.5t-8 -243.5l-6 -130l-330 -41q-2 8 -6 22.5t-20.5 51t-39 64.5t-65.5 50.5 t-94 22.5q-84 0 -140.5 -88t-56.5 -252t78 -245t170 -81q59 0 117.5 31t87 58.5t45.5 49.5q41 -43 107.5 -106.5l113.5 -105.5l47 -42q-4 -10 -14.5 -29.5t-50 -68.5t-88 -88t-132.5 -73.5t-182 -41.5l-4 -79q6 -2 17.5 -7.5t40 -24t50 -40t40 -59t18.5 -80.5 q0 -31 -11.5 -59.5t-31 -51.5t-45 -41t-54 -31.5t-56 -25t-54.5 -18.5l-46.5 -12t-31.5 -7l-12 -2q-2 -2 -18.5 44t-29 92t-7.5 48q2 0 18 3t34.5 9.5t38 14.5t32 21.5t12.5 29.5q0 33 -35 54.5t-71 25.5l-36 4q5 162 5 217z" />
<glyph glyph-name="Egrave" unicode="&#xc8;" horiz-adv-x="1325" d="M358 1722q-4 2 22 72t56.5 141.5t38.5 73.5q4 2 151.5 -49l292.5 -102l144 -52q-74 -238 -107 -254q-6 -2 -290.5 80t-307.5 90zM121 -6q-2 -2 -3 27.5t0 73.5l2 89t4 78t7 37q6 6 38 8t60 2h29l12 792q0 33 -2 34l-137 -13l-27 324q2 6 274.5 9t544.5 2l271 -1 q8 -12 14 -38.5t8.5 -61.5t3.5 -77t0 -83t-3.5 -81l-4.5 -69.5t-3 -49.5l-1 -19q0 -4 -140 -6t-155 0q-6 0 -12 36.5t-9 75.5t-3 41q-2 4 -116 6.5t-118 -2t-2 -119t6 -116.5q2 0 55.5 -2t104.5 -5t51 -5t2 -32l4.5 -70t3.5 -83t2 -68.5t-1 -29.5q-2 0 -59.5 -3t-113 -7 t-57.5 -6q-4 -6 -4 -269q8 -4 63.5 -3t120 6.5t64.5 7.5q0 4 28.5 109.5t28.5 107.5t83 -6.5t167 -18.5t84 -12q0 -10 -19.5 -263t-21.5 -255q-2 0 -561 6t-563 2z" />
<glyph glyph-name="Eacute" unicode="&#xc9;" horiz-adv-x="1325" d="M440 1556q-14 8 -44.5 70t-53.5 120l-23 58l569 230q24 9 25 8q8 -2 41 -76t60.5 -146.5t23.5 -74.5q-586 -195 -598 -189zM121 -6q-2 -2 -3 27.5t0 73.5l2 89t4 78t7 37q6 6 38 8t60 2h29l12 792q0 33 -2 34l-137 -13l-27 324q2 6 274.5 9t544.5 2l271 -1 q8 -12 14 -38.5t8.5 -61.5t3.5 -77t0 -83t-3.5 -81l-4.5 -69.5t-3 -49.5l-1 -19q0 -4 -140 -6t-155 0q-6 0 -12 36.5t-9 75.5t-3 41q-2 4 -116 6.5t-118 -2t-2 -119t6 -116.5q2 0 55.5 -2t104.5 -5t51 -5t2 -32l4.5 -70t3.5 -83t2 -68.5t-1 -29.5q-2 0 -59.5 -3t-113 -7 t-57.5 -6q-4 -6 -4 -269q8 -4 63.5 -3t120 6.5t64.5 7.5q0 4 28.5 109.5t28.5 107.5t83 -6.5t167 -18.5t84 -12q0 -10 -19.5 -263t-21.5 -255q-2 0 -561 6t-563 2z" />
<glyph glyph-name="Ecircumflex" unicode="&#xca;" horiz-adv-x="1325" d="M442 1561q-12 2 -33.5 26.5t-44 59l-43 68.5l-34.5 58l-15 23q-2 0 35 29.5l92.5 71.5l111.5 84l97 72t47 32q4 2 113 -68.5l215 -142.5l107 -72q-141 -211 -175 -227l-237 160zM121 -6q-2 -2 -3 27.5t0 73.5l2 89t4 78t7 37q6 6 38 8t60 2h29l12 792q0 33 -2 34 l-137 -13l-27 324q2 6 274.5 9t544.5 2l271 -1q8 -12 14 -38.5t8.5 -61.5t3.5 -77t0 -83t-3.5 -81l-4.5 -69.5t-3 -49.5l-1 -19q0 -4 -140 -6t-155 0q-6 0 -12 36.5t-9 75.5t-3 41q-2 4 -116 6.5t-118 -2t-2 -119t6 -116.5q2 0 55.5 -2t104.5 -5t51 -5t2 -32l4.5 -70 t3.5 -83t2 -68.5t-1 -29.5q-2 0 -59.5 -3t-113 -7t-57.5 -6q-4 -6 -4 -269q8 -4 63.5 -3t120 6.5t64.5 7.5q0 4 28.5 109.5t28.5 107.5t83 -6.5t167 -18.5t84 -12q0 -10 -19.5 -263t-21.5 -255q-2 0 -561 6t-563 2z" />
<glyph glyph-name="Edieresis" unicode="&#xcb;" horiz-adv-x="1325" d="M965 1567q-100 0 -154.5 53t-58.5 147q-2 92 54 148.5t136 56.5t141.5 -59.5t61.5 -134.5q0 -90 -44 -150.5t-136 -60.5zM430 1567q-100 0 -154.5 53t-58.5 147q-2 92 53.5 148.5t135 56.5t142 -59.5t62.5 -134.5q0 -90 -44 -150.5t-136 -60.5zM121 -6q-2 -2 -3 27.5 t0 73.5l2 89t4 78t7 37q6 6 38 8t60 2h29l12 792q0 33 -2 34l-137 -13l-27 324q2 6 274.5 9t544.5 2l271 -1q8 -12 14 -38.5t8.5 -61.5t3.5 -77t0 -83t-3.5 -81l-4.5 -69.5t-3 -49.5l-1 -19q0 -4 -140 -6t-155 0q-6 0 -12 36.5t-9 75.5t-3 41q-2 4 -116 6.5t-118 -2t-2 -119 t6 -116.5q2 0 55.5 -2t104.5 -5t51 -5t2 -32l4.5 -70t3.5 -83t2 -68.5t-1 -29.5q-2 0 -59.5 -3t-113 -7t-57.5 -6q-4 -6 -4 -269q8 -4 63.5 -3t120 6.5t64.5 7.5q0 4 28.5 109.5t28.5 107.5t83 -6.5t167 -18.5t84 -12q0 -10 -19.5 -263t-21.5 -255q-2 0 -561 6t-563 2z" />
<glyph glyph-name="Igrave" unicode="&#xcc;" horiz-adv-x="899" d="M727 1552q-6 -2 -290.5 80t-307.5 90q-4 2 21.5 72t56.5 141.5t39 73.5q4 2 151.5 -49l291.5 -102l145 -52q-74 -238 -107 -254zM104 14q-14 27 -13 140.5t9 121.5q2 2 18.5 4.5t38 2.5h42h34.5h15l-29 847q-119 -4 -129 7q-4 16 -2 82.5t6 141.5l4 75l674 10l14 -291 l-184 -35l27 -827q178 0 178 -14q0 -2 1 -33t3 -70t3 -78t0 -65.5t-3 -28.5q-16 -6 -348 -8t-359 18z" />
<glyph glyph-name="Iacute" unicode="&#xcd;" horiz-adv-x="899" d="M211 1556q-14 8 -45 70t-53 120l-23 58l569 230q24 9 25 8q8 -2 41 -76t60.5 -146.5t23.5 -74.5q-586 -195 -598 -189zM104 14q-14 27 -13 140.5t9 121.5q2 2 18.5 4.5t38 2.5h42h34.5h15l-29 847q-119 -4 -129 7q-4 16 -2 82.5t6 141.5l4 75l674 10l14 -291l-184 -35 l27 -827q178 0 178 -14q0 -2 1 -33t3 -70t3 -78t0 -65.5t-3 -28.5q-16 -6 -348 -8t-359 18z" />
<glyph glyph-name="Icircumflex" unicode="&#xce;" horiz-adv-x="899" d="M213 1561q-12 2 -33.5 26.5t-44 59l-43 68.5l-35.5 58l-14 23q-2 0 35 29.5l92 71.5l111.5 84l97.5 72t47 32q4 2 112.5 -68.5l215.5 -142.5l106 -72q-141 -211 -174 -227l-237 160zM104 14q-14 27 -13 140.5t9 121.5q2 2 18.5 4.5t38 2.5h42h34.5h15l-29 847 q-119 -4 -129 7q-4 16 -2 82.5t6 141.5l4 75l674 10l14 -291l-184 -35l27 -827q178 0 178 -14q0 -2 1 -33t3 -70t3 -78t0 -65.5t-3 -28.5q-16 -6 -348 -8t-359 18z" />
<glyph glyph-name="Idieresis" unicode="&#xcf;" horiz-adv-x="899" d="M735 1567q-100 0 -154.5 53t-58.5 147q-2 92 54.5 148.5t136.5 56.5t141 -59.5t61 -134.5q0 -90 -44 -150.5t-136 -60.5zM201 1567q-100 0 -154.5 53t-58.5 147q-2 92 53 148.5t135 56.5t142.5 -59.5t62.5 -134.5q0 -90 -44 -150.5t-136 -60.5zM104 14q-14 27 -13 140.5 t9 121.5q2 2 18.5 4.5t38 2.5h42h34.5h15l-29 847q-119 -4 -129 7q-4 16 -2 82.5t6 141.5l4 75l674 10l14 -291l-184 -35l27 -827q178 0 178 -14q0 -2 1 -33t3 -70t3 -78t0 -65.5t-3 -28.5q-16 -6 -348 -8t-359 18z" />
<glyph glyph-name="Eth" unicode="&#xd0;" horiz-adv-x="1382" d="M84 -10l-2 34q-2 34 -6 82t-7 100t-4.5 86t3.5 40q6 4 46 9t77 8l38 3l9 275q-166 0 -170 2q-8 4 -2 80.5t12 81.5q70 -2 166 -3l8 271q-158 -14 -162 -15q-2 0 -16.5 84t-25.5 171t-5 92q10 6 66.5 19t171 24.5t239.5 7.5q248 -5 338 -21q362 -66 455 -415 q35 -130 35 -301q0 -162 -26 -286t-77 -205t-112.5 -134t-145.5 -80t-161.5 -37t-178.5 -10q-92 0 -231.5 10t-233.5 19.5t-98 7.5zM610 330q143 -18 231.5 59.5t88.5 298.5q0 113 -21.5 190.5t-54.5 110.5t-74 52.5t-77.5 14.5t-65.5 -4q-8 -1 -12 -1q-10 -164 -15 -269 q188 -4 189 -6q0 -6 -7.5 -69.5t-9.5 -67.5q-2 -2 -176 -6q-4 -235 4 -303z" />
<glyph glyph-name="Ntilde" unicode="&#xd1;" horiz-adv-x="1468" d="M270 1634q0 8 -1 21.5t2 51.5t12.5 73t31 78t53 73.5t85 51t122.5 20.5q63 0 126 -33t106 -66.5t63 -33.5q23 0 39.5 24.5t22.5 49.5l6 24q203 -16 252 -49q0 -8 -1 -20.5t-7 -49.5t-16.5 -70.5t-33 -74.5t-51 -70.5t-74.5 -50t-104 -20.5q-51 0 -100 21.5t-80 47 t-65.5 47t-61.5 21.5q-23 0 -35 -22.5t-18 -51.5t-11 -33q-12 -11 -262 41zM78 -10q4 6 -7.5 131t-9.5 127q4 2 70 11t68 11q4 4 0 313.5t-13 483.5q-23 -2 -75 -2t-56 4t-16 179t-6 179q2 2 33.5 2.5t77.5 0.5t101.5 -1.5t100.5 -1.5t78 -1l33 -1q2 0 250.5 -356 t253.5 -358q4 14 2 109t-7 206l-4 111q-166 10 -168 10t-10 72.5t-12 136t2 76.5q12 4 332.5 6t320.5 -2l2 -31q2 -31 3 -71t3 -81t1 -68.5t-5 -27.5q-12 0 -75.5 -7t-63.5 -9l3 -122l7 -287t7.5 -342t4.5 -284.5t-1 -119.5q-2 0 -53.5 -4.5t-107 -7.5t-106.5 -4t-53 3 l-434 729q0 -399 10 -411q4 -4 40 -9.5t69.5 -9.5t33.5 -10q0 -2 7.5 -68.5t11.5 -114.5t-2 -65q-2 -2 -40 -5t-95.5 -5t-125 -5l-135 -6t-123 -4t-90 -1t-32.5 2z" />
<glyph glyph-name="Ograve" unicode="&#xd2;" horiz-adv-x="1488" d="M455 1722q-4 2 21.5 72t56 141.5t38.5 73.5q4 2 151.5 -49l292.5 -102l144 -52q-74 -238 -106 -254q-6 -2 -290.5 80t-307.5 90zM61 731q0 197 54.5 343.5t154 230.5t222 123.5t272.5 39.5q297 0 481.5 -197.5t184.5 -543.5q0 -150 -40 -284t-118 -243.5t-208 -173 t-298 -63.5q-326 0 -515.5 188.5t-189.5 579.5zM762 373q106 0 172.5 81t66.5 259q0 170 -59 272t-182 102q-274 0 -275 -376q0 -166 83 -252t194 -86z" />
<glyph glyph-name="Oacute" unicode="&#xd3;" horiz-adv-x="1488" d="M537 1556q-14 8 -45 70t-54 120l-22 58l568 230q24 9 26 8q8 -2 40.5 -76t60.5 -146.5t24 -74.5q-586 -195 -598 -189zM61 731q0 197 54.5 343.5t154 230.5t222 123.5t272.5 39.5q297 0 481.5 -197.5t184.5 -543.5q0 -150 -40 -284t-118 -243.5t-208 -173t-298 -63.5 q-326 0 -515.5 188.5t-189.5 579.5zM762 373q106 0 172.5 81t66.5 259q0 170 -59 272t-182 102q-274 0 -275 -376q0 -166 83 -252t194 -86z" />
<glyph glyph-name="Ocircumflex" unicode="&#xd4;" horiz-adv-x="1488" d="M539 1561q-12 2 -34 26.5t-44.5 59l-43 68.5l-34.5 58l-14 23q-2 0 34.5 29.5l92 71.5l112 84l97 72t47.5 32q4 2 112.5 -68.5l214.5 -142.5l107 -72q-141 -211 -174 -227l-238 160zM61 731q0 197 54.5 343.5t154 230.5t222 123.5t272.5 39.5q297 0 481.5 -197.5 t184.5 -543.5q0 -150 -40 -284t-118 -243.5t-208 -173t-298 -63.5q-326 0 -515.5 188.5t-189.5 579.5zM762 373q106 0 172.5 81t66.5 259q0 170 -59 272t-182 102q-274 0 -275 -376q0 -166 83 -252t194 -86z" />
<glyph glyph-name="Otilde" unicode="&#xd5;" horiz-adv-x="1488" d="M317 1634q0 8 -1 21.5t2.5 51.5t12.5 73t30.5 78t53 73.5t85 51t123.5 20.5q63 0 125.5 -33t105.5 -66.5t64 -33.5q23 0 39 24.5t22 49.5l6 24q203 -16 252 -49q0 -8 -1 -20.5t-7 -49.5t-16.5 -70.5t-33 -74.5t-51 -70.5t-74.5 -50t-104 -20.5q-51 0 -100 21.5t-80 47 t-65.5 47t-61.5 21.5q-23 0 -35 -22.5t-18 -51.5t-10 -33q-13 -11 -263 41zM61 731q0 197 54.5 343.5t154 230.5t222 123.5t272.5 39.5q297 0 481.5 -197.5t184.5 -543.5q0 -150 -40 -284t-118 -243.5t-208 -173t-298 -63.5q-326 0 -515.5 188.5t-189.5 579.5zM762 373 q106 0 172.5 81t66.5 259q0 170 -59 272t-182 102q-274 0 -275 -376q0 -166 83 -252t194 -86z" />
<glyph glyph-name="Odieresis" unicode="&#xd6;" horiz-adv-x="1488" d="M1061 1567q-100 0 -154.5 53t-58.5 147q-2 92 54 148.5t136 56.5t141.5 -59.5t61.5 -134.5q0 -90 -44 -150.5t-136 -60.5zM526 1567q-100 0 -154.5 53t-58.5 147q-2 92 53.5 148.5t135.5 56.5t142.5 -59.5t62.5 -134.5q0 -90 -44.5 -150.5t-136.5 -60.5zM61 731 q0 197 54.5 343.5t154 230.5t222 123.5t272.5 39.5q297 0 481.5 -197.5t184.5 -543.5q0 -150 -40 -284t-118 -243.5t-208 -173t-298 -63.5q-326 0 -515.5 188.5t-189.5 579.5zM762 373q106 0 172.5 81t66.5 259q0 170 -59 272t-182 102q-274 0 -275 -376q0 -166 83 -252 t194 -86z" />
<glyph glyph-name="multiply" unicode="&#xd7;" horiz-adv-x="1273" d="M311 240q-10 0 -84.5 69.5t-68.5 83.5q4 6 85 97.5l156.5 179.5t75.5 92q0 2 -147.5 140t-147.5 147q0 6 32 48t64.5 79.5t34.5 35.5l328 -319l336 336l143 -174l-307 -307l319 -320q-127 -129 -141 -129q-8 0 -166.5 130t-163.5 132q-6 2 -175 -159.5t-173 -161.5z" />
<glyph glyph-name="Oslash" unicode="&#xd8;" horiz-adv-x="1488" d="M250 -55q0 4 76 141q-264 188 -265 645q0 197 54.5 343.5t154 230.5t222 123.5t272.5 39.5q162 0 295 -61l63 106q14 4 55.5 -15t75 -40.5t33.5 -23.5l-76 -131q219 -199 220 -576q0 -150 -40 -284t-118 -243.5t-208 -173t-298 -63.5q-164 0 -299 49l-76 -133l-113 43 q-31 15 -28 23zM545 487l319 574q-49 27 -104 26q-274 0 -275 -376q1 -138 60 -224zM682 385q40 -12 80 -12q106 0 172.5 81t66.5 259q0 100 -22 186z" />
<glyph glyph-name="Ugrave" unicode="&#xd9;" horiz-adv-x="1505" d="M451 1722q-4 2 21.5 72t56 141.5t38.5 73.5q4 2 151.5 -49l292.5 -102l144 -52q-74 -238 -106 -254q-6 -2 -290.5 80t-307.5 90zM205 543l-4 571l-150 23l-12 280q-2 -2 159.5 4l325.5 12.5t164 4.5q2 -8 8 -152.5t0 -152.5l-110 -17q6 -532 6 -575q0 -70 43 -117 t131 -47q86 0 129 42t43 113l-2 594h-121l-4 306q35 12 188.5 14t289.5 -1l136 -3q12 -283 13 -287l-119 -35q2 -510 2 -600q0 -258 -143.5 -402.5t-413.5 -144.5q-264 0 -411.5 151t-147.5 419z" />
<glyph glyph-name="Uacute" unicode="&#xda;" horiz-adv-x="1505" d="M532 1556q-14 8 -44.5 70t-53.5 120l-22 58l568 230q24 9 26 8q8 -2 40.5 -76t60.5 -146.5t23 -74.5q-586 -195 -598 -189zM205 543l-4 571l-150 23l-12 280q-2 -2 159.5 4l325.5 12.5t164 4.5q2 -8 8 -152.5t0 -152.5l-110 -17q6 -532 6 -575q0 -70 43 -117t131 -47 q86 0 129 42t43 113l-2 594h-121l-4 306q35 12 188.5 14t289.5 -1l136 -3q12 -283 13 -287l-119 -35q2 -510 2 -600q0 -258 -143.5 -402.5t-413.5 -144.5q-264 0 -411.5 151t-147.5 419z" />
<glyph glyph-name="Ucircumflex" unicode="&#xdb;" horiz-adv-x="1505" d="M535 1561q-12 2 -34 26.5t-44.5 59l-43 68.5l-34.5 58l-14 23q-2 0 34.5 29.5l92 71.5l111.5 84l97 72t48 32q4 2 112.5 -68.5l214.5 -142.5l107 -72q-141 -211 -174 -227l-238 160zM205 543l-4 571l-150 23l-12 280q-2 -2 159.5 4l325.5 12.5t164 4.5q2 -8 8 -152.5 t0 -152.5l-110 -17q6 -532 6 -575q0 -70 43 -117t131 -47q86 0 129 42t43 113l-2 594h-121l-4 306q35 12 188.5 14t289.5 -1l136 -3q12 -283 13 -287l-119 -35q2 -510 2 -600q0 -258 -143.5 -402.5t-413.5 -144.5q-264 0 -411.5 151t-147.5 419z" />
<glyph glyph-name="Udieresis" unicode="&#xdc;" horiz-adv-x="1505" d="M1057 1567q-100 0 -154.5 53t-58.5 147q-2 92 54 148.5t136 56.5t141.5 -59.5t61.5 -134.5q0 -90 -44 -150.5t-136 -60.5zM522 1567q-100 0 -154.5 53t-58.5 147q-2 92 53.5 148.5t135.5 56.5t142 -59.5t62 -134.5q0 -90 -44 -150.5t-136 -60.5zM205 543l-4 571l-150 23 l-12 280q-2 -2 159.5 4l325.5 12.5t164 4.5q2 -8 8 -152.5t0 -152.5l-110 -17q6 -532 6 -575q0 -70 43 -117t131 -47q86 0 129 42t43 113l-2 594h-121l-4 306q35 12 188.5 14t289.5 -1l136 -3q12 -283 13 -287l-119 -35q2 -510 2 -600q0 -258 -143.5 -402.5t-413.5 -144.5 q-264 0 -411.5 151t-147.5 419z" />
<glyph glyph-name="Yacute" unicode="&#xdd;" horiz-adv-x="1437" d="M489 1556q-14 8 -44.5 70t-53.5 120l-22 58l568 230q24 9 26 8q8 -2 40.5 -76t60.5 -146.5t23 -74.5q-586 -195 -598 -189zM410 -14q-4 2 -6.5 141t-0.5 141q2 0 37 4t69 9.5t34 7.5v395q0 4 -77 108.5l-155 205t-80 98.5t-40.5 3l-77.5 10t-39 7q0 309 2 320l602 -11 l22 -280q-2 -4 -98 -4l35 -40l71 -81l35 -41q8 10 23.5 27.5t45.5 54.5l49.5 62.5t17.5 27.5t-82 2q-6 2 -4 142.5t4 142.5t276.5 -3t284.5 -9.5t19 -139.5t5 -139q-6 -6 -125 -6l-346 -463q6 -362 7 -383q0 -8 28.5 -10t60 -2t35.5 -4q6 -8 7 -275q0 -6 -317.5 -13 t-321.5 -5z" />
<glyph glyph-name="Thorn" unicode="&#xde;" horiz-adv-x="1234" d="M86 0q-2 0 -6 70.5t-3 143.5t11 79t46 8t67 2h30q-18 795 -24 797l-139 -4l-13 288q0 46 4 48q16 4 103.5 10t219.5 3t202 -26q10 -49 10 -198q96 0 174 -10.5t157 -39t132 -78t86 -134.5t31 -197q-2 -121 -43 -214t-101.5 -146.5t-141.5 -87t-149.5 -45t-136.5 -11.5 q0 -4 5 -94t3 -160q0 -8 -131 -9t-262 2zM604 618q0 -6 49 -0.5t98.5 40t49.5 104.5q0 63 -51.5 91t-102.5 24l-51 -5z" />
<glyph glyph-name="germandbls" unicode="&#xdf;" horiz-adv-x="1363" d="M68 -6q2 -4 -4.5 62.5t-11.5 136t-3 73.5t29.5 12.5t53.5 15.5l26 7l-1 5q-33 622 -3 781q12 70 47 135.5t96 128t166.5 100.5t241.5 38q254 0 399 -131t145 -332q0 -63 -21.5 -117.5t-48 -83t-48 -60.5t-21.5 -56.5t30.5 -56t67.5 -62.5t68 -94.5t31 -141.5 q0 -74 -49.5 -147.5t-119 -125.5t-140 -93t-119.5 -62l-50 -20q-113 184 -145 321q6 2 16.5 6.5t35 16.5t44 27.5t35.5 40t16 51.5q0 37 -37.5 86t-75.5 110.5t-38 126.5q0 68 36 130.5t71.5 113.5t35.5 86q0 45 -36.5 74.5t-90.5 29.5q-55 0 -100 -44t-45 -97 q0 -6 1 -110.5t2 -242.5l2 -278.5t1 -239t-2 -100.5q-2 -4 -125 -7l-243.5 -6t-118.5 -7z" />
<glyph glyph-name="agrave" unicode="&#xe0;" d="M362 1356q-4 2 22 71.5t56.5 141t38.5 73.5q4 2 151.5 -49l292.5 -102l144 -51q-74 -238 -106 -254q-6 -2 -291 80t-308 90zM498 -18q-78 0 -152 27.5t-144.5 86t-113.5 171t-43 261.5q0 139 41 241.5t110.5 157t146.5 80t161 25.5q78 0 153.5 -25.5t112.5 -51.5l37 -25 v102q109 4 217.5 6t216.5 -2q0 -4 3 -72.5l6 -134.5l3 -65q-4 0 -76.5 -16.5t-74.5 -18.5l4 -432q170 0 172 -12q4 -10 3 -148.5t-7 -138.5q-35 0 -250 5t-215 9l-21 105l-10 -15.5t-31.5 -32t-56.5 -41t-82 -32.5t-110 -14zM569 328q70 0 115 52t45 138q0 82 -44 140.5 t-107 58.5q-78 0 -124 -51.5t-46 -143.5q0 -86 49 -140t112 -54z" />
<glyph glyph-name="aacute" unicode="&#xe1;" d="M469 1167q-14 8 -45 69.5t-53 120.5l-23 58l569 230q24 9 25 8q8 -2 41 -76t60.5 -146.5t23.5 -74.5q-586 -195 -598 -189zM498 -18q-78 0 -152 27.5t-144.5 86t-113.5 171t-43 261.5q0 139 41 241.5t110.5 157t146.5 80t161 25.5q78 0 153.5 -25.5t112.5 -51.5l37 -25 v102q109 4 217.5 6t216.5 -2q0 -4 3 -72.5l6 -134.5l3 -65q-4 0 -76.5 -16.5t-74.5 -18.5l4 -432q170 0 172 -12q4 -10 3 -148.5t-7 -138.5q-35 0 -250 5t-215 9l-21 105l-10 -15.5t-31.5 -32t-56.5 -41t-82 -32.5t-110 -14zM569 328q70 0 115 52t45 138q0 82 -44 140.5 t-107 58.5q-78 0 -124 -51.5t-46 -143.5q0 -86 49 -140t112 -54z" />
<glyph glyph-name="acircumflex" unicode="&#xe2;" d="M471 1159q-12 2 -33.5 26.5t-44 59.5l-43 69l-35.5 57l-14 24q-2 0 35 29.5l92 71.5l111.5 84l97.5 71.5t47 31.5q4 2 112.5 -68.5l215.5 -141.5l106 -72q-141 -211 -174 -227l-237 159zM498 -18q-78 0 -152 27.5t-144.5 86t-113.5 171t-43 261.5q0 139 41 241.5 t110.5 157t146.5 80t161 25.5q78 0 153.5 -25.5t112.5 -51.5l37 -25v102q109 4 217.5 6t216.5 -2q0 -4 3 -72.5l6 -134.5l3 -65q-4 0 -76.5 -16.5t-74.5 -18.5l4 -432q170 0 172 -12q4 -10 3 -148.5t-7 -138.5q-35 0 -250 5t-215 9l-21 105l-10 -15.5t-31.5 -32t-56.5 -41 t-82 -32.5t-110 -14zM569 328q70 0 115 52t45 138q0 82 -44 140.5t-107 58.5q-78 0 -124 -51.5t-46 -143.5q0 -86 49 -140t112 -54z" />
<glyph glyph-name="atilde" unicode="&#xe3;" d="M250 1225q0 8 -1 21.5t2 51t12 72.5t30.5 78t53.5 73.5t85 51t123 20.5q63 0 125.5 -32.5t105.5 -66.5t64 -34q23 0 39 24.5t22 49.5l7 25q203 -16 251 -50q0 -8 -1 -20t-7 -49t-16 -71t-32.5 -75t-51.5 -70.5t-75 -50t-103 -20.5q-51 0 -100.5 21.5t-80 47t-65.5 47 t-62 21.5q-23 0 -35 -22.5t-18 -51t-10 -32.5q-12 -11 -262 41zM498 -18q-78 0 -152 27.5t-144.5 86t-113.5 171t-43 261.5q0 139 41 241.5t110.5 157t146.5 80t161 25.5q78 0 153.5 -25.5t112.5 -51.5l37 -25v102q109 4 217.5 6t216.5 -2q0 -4 3 -72.5l6 -134.5l3 -65 q-4 0 -76.5 -16.5t-74.5 -18.5l4 -432q170 0 172 -12q4 -10 3 -148.5t-7 -138.5q-35 0 -250 5t-215 9l-21 105l-10 -15.5t-31.5 -32t-56.5 -41t-82 -32.5t-110 -14zM569 328q70 0 115 52t45 138q0 82 -44 140.5t-107 58.5q-78 0 -124 -51.5t-46 -143.5q0 -86 49 -140 t112 -54z" />
<glyph glyph-name="adieresis" unicode="&#xe4;" d="M993 1159q-100 0 -154.5 53.5t-58.5 147.5q-2 92 54.5 148.5t136.5 56.5t141.5 -59.5t61.5 -135.5q0 -90 -44.5 -150.5t-136.5 -60.5zM459 1159q-100 0 -154.5 53.5t-58.5 147.5q-2 92 53 148.5t135 56.5t142.5 -59.5t62.5 -135.5q0 -90 -44 -150.5t-136 -60.5zM498 -18 q-78 0 -152 27.5t-144.5 86t-113.5 171t-43 261.5q0 139 41 241.5t110.5 157t146.5 80t161 25.5q78 0 153.5 -25.5t112.5 -51.5l37 -25v102q109 4 217.5 6t216.5 -2q0 -4 3 -72.5l6 -134.5l3 -65q-4 0 -76.5 -16.5t-74.5 -18.5l4 -432q170 0 172 -12q4 -10 3 -148.5 t-7 -138.5q-35 0 -250 5t-215 9l-21 105l-10 -15.5t-31.5 -32t-56.5 -41t-82 -32.5t-110 -14zM569 328q70 0 115 52t45 138q0 82 -44 140.5t-107 58.5q-78 0 -124 -51.5t-46 -143.5q0 -86 49 -140t112 -54z" />
<glyph glyph-name="aring" unicode="&#xe5;" d="M717 1141q-285 0 -285 280q0 137 79 202t206 65q119 0 193.5 -72t74.5 -197q0 -117 -67.5 -197.5t-200.5 -80.5zM717 1313q80 0 80 90q0 39 -20.5 68.5t-59.5 29.5q-86 0 -86 -98q0 -41 27.5 -65.5t58.5 -24.5zM498 -18q-78 0 -152 27.5t-144.5 86t-113.5 171t-43 261.5 q0 139 41 241.5t110.5 157t146.5 80t161 25.5q78 0 153.5 -25.5t112.5 -51.5l37 -25v102q109 4 217.5 6t216.5 -2q0 -4 3 -72.5l6 -134.5l3 -65q-4 0 -76.5 -16.5t-74.5 -18.5l4 -432q170 0 172 -12q4 -10 3 -148.5t-7 -138.5q-35 0 -250 5t-215 9l-21 105l-10 -15.5 t-31.5 -32t-56.5 -41t-82 -32.5t-110 -14zM569 328q70 0 115 52t45 138q0 82 -44 140.5t-107 58.5q-78 0 -124 -51.5t-46 -143.5q0 -86 49 -140t112 -54z" />
<glyph glyph-name="ae" unicode="&#xe6;" horiz-adv-x="1685" d="M39 301q0 111 53 187.5t141.5 109.5t176.5 44t180 3q4 39 -32 68.5t-109 29.5q-51 0 -114 -13t-99 -27l-37 -13q-20 45 -45 113.5t-38 115.5l-14 46q14 10 41 26.5t121 44t201 27.5q113 0 210 -41t140 -98q133 145 367 145q168 0 306 -109.5t144 -189.5l-55 -209 l-395 -217q31 -37 362 -37q-2 -59 -13 -142t-22 -135l-10 -53q-420 -31 -637 150q-25 -23 -78 -53.5t-159.5 -65.5t-210.5 -35q-188 0 -281.5 89t-93.5 239zM1024 584l250 153q-6 18 -33 36t-55 18q-100 0 -146.5 -68.5t-15.5 -138.5zM420 313q8 -49 78.5 -46t126.5 50 q8 74 0 121q-82 0 -147.5 -34t-57.5 -91z" />
<glyph glyph-name="ccedilla" unicode="&#xe7;" horiz-adv-x="1136" d="M434 0q-174 47 -277.5 184.5t-103.5 345.5q0 137 44 243t117 166t156 91t169 31q70 0 126 -16.5t77 -31.5l22 -16l18 105l21 -1q20 -1 53 -5t69 -9.5t73.5 -17.5t62.5 -29q6 -18 4 -110t-7 -198l-5 -105l-330 -45q0 6 -2 16t-11.5 35.5t-22.5 45t-38.5 35t-58.5 13.5 q-59 -2 -102.5 -51t-43.5 -146q0 -90 52.5 -138t113.5 -48q16 0 34 3t30 7t24.5 11.5t20.5 13.5t17 14t13.5 12.5t10.5 12.5l6 8q37 -8 109.5 -64.5t128.5 -108.5l55 -52q-4 -8 -13.5 -22.5t-42 -50.5t-72.5 -64.5t-109.5 -55t-149.5 -33.5l-4 -79q6 -2 17 -7.5t40 -24 t50.5 -40t40 -59t18.5 -80.5q0 -31 -11.5 -59.5t-31 -51.5t-45 -41t-54 -31.5t-56.5 -25t-54.5 -18.5l-46 -12t-31.5 -7l-12 -2q-2 -2 -18.5 44t-29 92t-8.5 48q2 0 18.5 3t35 9.5t38 14.5t31.5 21.5t12 29.5q0 33 -35.5 54.5t-70.5 25.5l-35 4q4 158 4 217z" />
<glyph glyph-name="egrave" unicode="&#xe8;" horiz-adv-x="1062" d="M184 1356q-4 2 21.5 71.5t56.5 141t39 73.5q4 2 151.5 -49l291.5 -102l145 -51q-74 -238 -107 -254q-6 -2 -290.5 80t-307.5 90zM35 547q0 262 149.5 392t374.5 130q168 0 306.5 -109.5t144.5 -189.5l-56 -209l-395 -217q31 -37 363 -37q-2 -59 -13.5 -142t-21.5 -135 l-10 -53q-387 -29 -614.5 129t-227.5 441zM401 584l250 153q-6 18 -32.5 36t-55.5 18q-100 0 -146.5 -68.5t-15.5 -138.5z" />
<glyph glyph-name="eacute" unicode="&#xe9;" horiz-adv-x="1062" d="M291 1167q-14 8 -45 69.5t-53 120.5l-23 58l569 230q24 9 25 8q8 -2 41 -76t60.5 -146.5t23.5 -74.5q-586 -195 -598 -189zM35 547q0 262 149.5 392t374.5 130q168 0 306.5 -109.5t144.5 -189.5l-56 -209l-395 -217q31 -37 363 -37q-2 -59 -13.5 -142t-21.5 -135l-10 -53 q-387 -29 -614.5 129t-227.5 441zM401 584l250 153q-6 18 -32.5 36t-55.5 18q-100 0 -146.5 -68.5t-15.5 -138.5z" />
<glyph glyph-name="ecircumflex" unicode="&#xea;" horiz-adv-x="1062" d="M293 1159q-12 2 -33.5 26.5t-44 59.5l-43 69l-35.5 57l-14 24q-2 0 35 29.5l92 71.5l111.5 84l97.5 71.5t47 31.5q4 2 112.5 -68.5l215.5 -141.5l106 -72q-141 -211 -174 -227l-238 159zM35 547q0 262 149.5 392t374.5 130q168 0 306.5 -109.5t144.5 -189.5l-56 -209 l-395 -217q31 -37 363 -37q-2 -59 -13.5 -142t-21.5 -135l-10 -53q-387 -29 -614.5 129t-227.5 441zM401 584l250 153q-6 18 -32.5 36t-55.5 18q-100 0 -146.5 -68.5t-15.5 -138.5z" />
<glyph glyph-name="edieresis" unicode="&#xeb;" horiz-adv-x="1062" d="M815 1159q-100 0 -154.5 53.5t-58.5 147.5q-2 92 54.5 148.5t136 56.5t141 -59.5t61.5 -135.5q0 -90 -44 -150.5t-136 -60.5zM281 1159q-100 0 -154.5 53.5t-58.5 147.5q-2 92 53 148.5t135 56.5t142.5 -59.5t62.5 -135.5q0 -90 -44 -150.5t-136 -60.5zM35 547 q0 262 149.5 392t374.5 130q168 0 306.5 -109.5t144.5 -189.5l-56 -209l-395 -217q31 -37 363 -37q-2 -59 -13.5 -142t-21.5 -135l-10 -53q-387 -29 -614.5 129t-227.5 441zM401 584l250 153q-6 18 -32.5 36t-55.5 18q-100 0 -146.5 -68.5t-15.5 -138.5z" />
<glyph glyph-name="igrave" unicode="&#xec;" horiz-adv-x="872" d="M86 1356q-4 2 21.5 71.5t56.5 141t39 73.5q4 2 151.5 -49l291.5 -102l145 -51q-74 -238 -107 -254q-6 -2 -290.5 80t-307.5 90zM94 0q-2 14 -4 40t-6 95.5t-4 126.5l176 8l2 457q0 2 -26.5 1l-55.5 -2t-55 -3l-27 -2q-2 0 -17.5 135t-15.5 143q0 6 113 11.5t254 3.5 t205 -17v-721l168 -26l4 -246q-2 -2 -42 -3t-103.5 -2t-138.5 -1h-151.5t-137 1t-100.5 1t-38 0z" />
<glyph glyph-name="iacute" unicode="&#xed;" horiz-adv-x="872" d="M193 1167q-14 8 -45 69.5t-54 120.5l-22 58l568 230q24 9 26 8q8 -2 40.5 -76t60.5 -146.5t24 -74.5q-586 -195 -598 -189zM94 0q-2 14 -4 40t-6 95.5t-4 126.5l176 8l2 457q0 2 -26.5 1l-55.5 -2t-55 -3l-27 -2q-2 0 -17.5 135t-15.5 143q0 6 113 11.5t254 3.5t205 -17 v-721l168 -26l4 -246q-2 -2 -42 -3t-103.5 -2t-138.5 -1h-151.5t-137 1t-100.5 1t-38 0z" />
<glyph glyph-name="icircumflex" unicode="&#xee;" horiz-adv-x="872" d="M195 1159q-12 2 -34 26.5t-44.5 59.5l-43 69l-34.5 57l-14 24q-2 0 34.5 29.5l92 71.5l111.5 84l97 71.5t48 31.5q4 2 112.5 -68.5l214.5 -141.5l107 -72q-141 -211 -174 -227l-238 159zM94 0q-2 14 -4 40t-6 95.5t-4 126.5l176 8l2 457q0 2 -26.5 1l-55.5 -2t-55 -3 l-27 -2q-2 0 -17.5 135t-15.5 143q0 6 113 11.5t254 3.5t205 -17v-721l168 -26l4 -246q-2 -2 -42 -3t-103.5 -2t-138.5 -1h-151.5t-137 1t-100.5 1t-38 0z" />
<glyph glyph-name="idieresis" unicode="&#xef;" horiz-adv-x="872" d="M717 1159q-100 0 -154.5 53.5t-58.5 147.5q-2 92 54 148.5t136 56.5t141.5 -59.5t61.5 -135.5q0 -90 -44 -150.5t-136 -60.5zM182 1159q-100 0 -154.5 53.5t-58.5 147.5q-2 92 53.5 148.5t135.5 56.5t142 -59.5t62 -135.5q0 -90 -44 -150.5t-136 -60.5zM94 0q-2 14 -4 40 t-6 95.5t-4 126.5l176 8l2 457q0 2 -26.5 1l-55.5 -2t-55 -3l-27 -2q-2 0 -17.5 135t-15.5 143q0 6 113 11.5t254 3.5t205 -17v-721l168 -26l4 -246q-2 -2 -42 -3t-103.5 -2t-138.5 -1h-151.5t-137 1t-100.5 1t-38 0z" />
<glyph glyph-name="eth" unicode="&#xf0;" horiz-adv-x="1087" d="M59 440q0 111 42 203t112 151.5t146.5 96.5t160.5 55q-23 57 -82 123q-197 -117 -205 -117q-6 -2 -29.5 42t-44 90t-18.5 51l135 77l-33.5 25.5l-25.5 19.5l-8 7q8 16 23.5 36.5t34 39l39 38t41 37t41 32.5t36.5 28.5t28.5 22.5t19.5 13l7 5q55 -43 131 -115 q223 125 226 123l75 -166q0 -6 -166 -105q293 -342 293 -669q0 -154 -47 -275t-123.5 -190.5t-166 -105.5t-185.5 -36q-195 0 -326 120t-131 343zM408 444q0 -47 28.5 -73.5t61.5 -26.5q74 0 115.5 55.5t38.5 120t-23 111.5q-74 0 -147.5 -49.5t-73.5 -137.5z" />
<glyph glyph-name="ntilde" unicode="&#xf1;" d="M221 1225q0 8 -1 21.5t2 51t12.5 72.5t31 78t53 73.5t85 51t122.5 20.5q63 0 126 -32.5t106 -66.5t63 -34q23 0 39.5 24.5t22.5 49.5l6 25q203 -16 252 -50q0 -8 -1 -20t-7.5 -49t-16.5 -71t-32.5 -75t-51 -70.5t-75 -50t-103.5 -20.5q-51 0 -100 21.5t-80 47t-66 47 t-61 21.5q-23 0 -35 -22.5t-18.5 -51t-10.5 -32.5q-12 -11 -262 41zM88 0q-2 14 -4 40t-6 95.5t-4 126.5l135 8l2 490q-8 2 -32.5 0t-57.5 -4l-33 -2q-2 0 -17.5 139t-15.5 147q0 4 101.5 17.5t202.5 24.5l102 12l65 -148q10 14 31 36t90.5 57.5t147.5 35.5q420 0 419 -524 l-2 -268l86 -19q14 -201 0 -266l-530 6l-10 260l100 19l-2 219q0 207 -156 207q-61 0 -107 -58.5t-46 -148.5l2 -226l123 -26l4 -246q-2 -2 -36 -3t-86 -2t-113.5 -1h-125t-113.5 1t-83 1t-31 0z" />
<glyph glyph-name="ograve" unicode="&#xf2;" horiz-adv-x="1124" d="M233 1356q-4 2 22 71.5t56.5 141t38.5 73.5q4 2 151.5 -49l292.5 -102l144 -51q-74 -238 -107 -254q-6 -2 -290.5 80t-307.5 90zM41 516q0 279 146.5 407t383.5 128q223 0 362.5 -143.5t139.5 -395.5q0 -231 -127 -392t-372.5 -161t-389 136t-143.5 421zM414 502 q0 -86 52 -139.5t114 -53.5q63 0 102 49.5t39 143.5q0 88 -36 149.5t-105 61.5q-86 0 -126 -59.5t-40 -151.5z" />
<glyph glyph-name="oacute" unicode="&#xf3;" horiz-adv-x="1124" d="M340 1167q-14 8 -45 69.5t-53 120.5l-23 58l569 230q24 9 25 8q8 -2 41 -76t60.5 -146.5t23.5 -74.5q-586 -195 -598 -189zM41 516q0 279 146.5 407t383.5 128q223 0 362.5 -143.5t139.5 -395.5q0 -231 -127 -392t-372.5 -161t-389 136t-143.5 421zM414 502 q0 -86 52 -139.5t114 -53.5q63 0 102 49.5t39 143.5q0 88 -36 149.5t-105 61.5q-86 0 -126 -59.5t-40 -151.5z" />
<glyph glyph-name="ocircumflex" unicode="&#xf4;" horiz-adv-x="1124" d="M342 1159q-12 2 -33.5 26.5t-44 59.5l-43 69l-35.5 57l-14 24q-2 0 35 29.5l92 71.5l111.5 84l97.5 71.5t47 31.5q4 2 112.5 -68.5l215.5 -141.5l106 -72q-141 -211 -174 -227l-237 159zM41 516q0 279 146.5 407t383.5 128q223 0 362.5 -143.5t139.5 -395.5 q0 -231 -127 -392t-372.5 -161t-389 136t-143.5 421zM414 502q0 -86 52 -139.5t114 -53.5q63 0 102 49.5t39 143.5q0 88 -36 149.5t-105 61.5q-86 0 -126 -59.5t-40 -151.5z" />
<glyph glyph-name="otilde" unicode="&#xf5;" horiz-adv-x="1124" d="M121 1225q0 8 -1 21.5t2 51t12 72.5t30.5 78t53.5 73.5t85 51t123 20.5q63 0 125.5 -32.5t105.5 -66.5t64 -34q23 0 39 24.5t22 49.5l6 25q203 -16 252 -50q0 -8 -1 -20t-7 -49t-16 -71t-32.5 -75t-51.5 -70.5t-75 -50t-103 -20.5q-51 0 -100.5 21.5t-80 47t-65.5 47 t-62 21.5q-23 0 -35 -22.5t-18 -51t-10 -32.5q-12 -11 -262 41zM41 516q0 279 146.5 407t383.5 128q223 0 362.5 -143.5t139.5 -395.5q0 -231 -127 -392t-372.5 -161t-389 136t-143.5 421zM414 502q0 -86 52 -139.5t114 -53.5q63 0 102 49.5t39 143.5q0 88 -36 149.5 t-105 61.5q-86 0 -126 -59.5t-40 -151.5z" />
<glyph glyph-name="odieresis" unicode="&#xf6;" horiz-adv-x="1124" d="M864 1159q-100 0 -154.5 53.5t-58.5 147.5q-2 92 54.5 148.5t136.5 56.5t141 -59.5t61 -135.5q0 -90 -44 -150.5t-136 -60.5zM330 1159q-100 0 -154.5 53.5t-58.5 147.5q-2 92 53 148.5t135 56.5t142.5 -59.5t62.5 -135.5q0 -90 -44 -150.5t-136 -60.5zM41 516 q0 279 146.5 407t383.5 128q223 0 362.5 -143.5t139.5 -395.5q0 -231 -127 -392t-372.5 -161t-389 136t-143.5 421zM414 502q0 -86 52 -139.5t114 -53.5q63 0 102 49.5t39 143.5q0 88 -36 149.5t-105 61.5q-86 0 -126 -59.5t-40 -151.5z" />
<glyph glyph-name="divide" unicode="&#xf7;" horiz-adv-x="1124" d="M580 975q-100 0 -154.5 53t-58.5 148q-2 92 53 148t135 56t142.5 -59t62.5 -135q0 -90 -44 -150.5t-136 -60.5zM88 637q-6 0 -13 52t-10.5 104.5t-1.5 52.5l957 4q10 0 22.5 -94t4.5 -99q-55 -27 -443.5 -32.5t-515.5 12.5zM373 293q0 82 52 143.5t128 61.5 q90 0 151.5 -44t61.5 -137q0 -203 -197 -208q-90 -2 -143 50t-53 134z" />
<glyph glyph-name="oslash" unicode="&#xf8;" horiz-adv-x="1124" d="M160 -80q0 6 71 135q-190 137 -190 461q0 279 146.5 407t383.5 128q104 0 197 -35q63 111 72 119q8 2 40.5 -14.5t61.5 -34.5l29 -17l-74 -129q176 -145 176 -428q0 -231 -127 -392t-373 -161q-123 0 -223 35l-76 -131l-97 42q-18 10 -17 15zM406 365l200 358q-6 2 -18 2 q-106 0 -154.5 -72.5t-48.5 -181.5q1 -49 21 -106zM508 285q25 -6 53 -6q76 0 124 59t48 172q0 63 -20 129z" />
<glyph glyph-name="ugrave" unicode="&#xf9;" d="M297 1356q-4 2 21.5 71.5t56.5 141t39 73.5q4 2 151.5 -49l291.5 -102l144 -51q-74 -238 -106 -254q-6 -2 -290.5 80t-307.5 90zM143 498l2 233l-86 8q-4 23 -8 56.5t-12 117.5t2 101l469 33q0 -137 2 -494q0 -207 145 -207q59 0 96.5 57.5t37.5 149.5l-3 145l-135 7 l-16 290l508 39v-702q2 -2 64.5 -14.5t66.5 -12.5q2 0 2 -309q0 -4 -96.5 -7t-192.5 -4l-96 -1l-35 90q-12 -10 -35.5 -27.5t-97.5 -45.5t-152 -28q-86 0 -156.5 23.5t-135 78t-101.5 162t-37 261.5z" />
<glyph glyph-name="uacute" unicode="&#xfa;" d="M403 1167q-14 8 -44.5 69.5t-53.5 120.5l-22 58l568 230q24 9 26 8q8 -2 40.5 -76t60.5 -146.5t23 -74.5q-586 -195 -598 -189zM143 498l2 233l-86 8q-4 23 -8 56.5t-12 117.5t2 101l469 33q0 -137 2 -494q0 -207 145 -207q59 0 96.5 57.5t37.5 149.5l-3 145l-135 7 l-16 290l508 39v-702q2 -2 64.5 -14.5t66.5 -12.5q2 0 2 -309q0 -4 -96.5 -7t-192.5 -4l-96 -1l-35 90q-12 -10 -35.5 -27.5t-97.5 -45.5t-152 -28q-86 0 -156.5 23.5t-135 78t-101.5 162t-37 261.5z" />
<glyph glyph-name="ucircumflex" unicode="&#xfb;" d="M406 1159q-12 2 -34 26.5t-44.5 59.5l-43 69l-34.5 57l-14 24q-2 0 34.5 29.5l92 71.5l111.5 84l97 71.5t47 31.5q4 2 113 -68.5l215 -141.5l107 -72q-141 -211 -174 -227l-238 159zM143 498l2 233l-86 8q-4 23 -8 56.5t-12 117.5t2 101l469 33q0 -137 2 -494 q0 -207 145 -207q59 0 96.5 57.5t37.5 149.5l-3 145l-135 7l-16 290l508 39v-702q2 -2 64.5 -14.5t66.5 -12.5q2 0 2 -309q0 -4 -96.5 -7t-192.5 -4l-96 -1l-35 90q-12 -10 -35.5 -27.5t-97.5 -45.5t-152 -28q-86 0 -156.5 23.5t-135 78t-101.5 162t-37 261.5z" />
<glyph glyph-name="udieresis" unicode="&#xfc;" d="M928 1159q-100 0 -154.5 53.5t-58.5 147.5q-2 92 54 148.5t136 56.5t141.5 -59.5t61.5 -135.5q0 -90 -44 -150.5t-136 -60.5zM393 1159q-100 0 -154.5 53.5t-58.5 147.5q-2 92 53.5 148.5t135.5 56.5t142 -59.5t62 -135.5q0 -90 -44 -150.5t-136 -60.5zM143 498l2 233 l-86 8q-4 23 -8 56.5t-12 117.5t2 101l469 33q0 -137 2 -494q0 -207 145 -207q59 0 96.5 57.5t37.5 149.5l-3 145l-135 7l-16 290l508 39v-702q2 -2 64.5 -14.5t66.5 -12.5q2 0 2 -309q0 -4 -96.5 -7t-192.5 -4l-96 -1l-35 90q-12 -10 -35.5 -27.5t-97.5 -45.5t-152 -28 q-86 0 -156.5 23.5t-135 78t-101.5 162t-37 261.5z" />
<glyph glyph-name="yacute" unicode="&#xfd;" horiz-adv-x="1419" d="M457 1167q-14 8 -45 69.5t-54 120.5l-22 58l568 230q24 9 26 8q8 -2 41 -76t60.5 -146.5t23.5 -74.5q-586 -195 -598 -189zM205 -352q-6 0 68.5 118.5l150.5 238.5t72 120q-287 471 -318 639l-112 6q-4 23 -8.5 54.5t-13.5 113.5t1 98l612 2l11 -270l-115 -4l156 -289 l147 283l-102 6l-4 266q2 2 64.5 3t148.5 -1l171 -4t145 -4t58 -2q2 -14 4 -40t6.5 -95.5t4.5 -126.5l-113 -6q-555 -1094 -680 -1280q-12 2 -31.5 7t-73 20.5t-97.5 35t-89 49t-63 62.5z" />
<glyph glyph-name="thorn" unicode="&#xfe;" d="M49 -190l156 12l-2 1274l-152 20l-14 283q-4 0 126 18.5t260 33.5t134 11q2 -6 -2 -131l-8 -252l-4 -127q4 8 23.5 25.5t86 41t158.5 23.5q61 0 121.5 -15t124 -55t113 -99.5t80 -157t30.5 -217.5q0 -152 -41 -260.5t-110.5 -163t-144.5 -78t-161 -23.5q-78 0 -137 16.5 t-80 33.5l-20 16v-203q199 -23 207 -29q6 -4 7 -75.5t0 -131t1 -69.5h-740zM633 508q0 -92 38 -154.5t97 -62.5q143 0 143 215q0 98 -36.5 152.5t-98.5 54.5q-66 0 -104.5 -54.5t-38.5 -150.5z" />
<glyph glyph-name="ydieresis" unicode="&#xff;" horiz-adv-x="1419" d="M981 1159q-100 0 -154.5 53.5t-58.5 147.5q-2 92 54.5 148.5t136 56.5t141 -59.5t61.5 -135.5q0 -90 -44 -150.5t-136 -60.5zM446 1159q-100 0 -154 53.5t-59 147.5q-2 92 53.5 148.5t135.5 56.5t142.5 -59.5t62.5 -135.5q0 -90 -44.5 -150.5t-136.5 -60.5zM205 -352 q-6 0 68.5 118.5l150.5 238.5t72 120q-287 471 -318 639l-112 6q-4 23 -8.5 54.5t-13.5 113.5t1 98l612 2l11 -270l-115 -4l156 -289l147 283l-102 6l-4 266q2 2 64.5 3t148.5 -1l171 -4t145 -4t58 -2q2 -14 4 -40t6.5 -95.5t4.5 -126.5l-113 -6q-555 -1094 -680 -1280 q-12 2 -31.5 7t-73 20.5t-97.5 35t-89 49t-63 62.5z" />
<glyph glyph-name="Amacron" unicode="&#x100;" horiz-adv-x="1435" d="M287 1595q-10 0 -8 141.5t8 145.5q10 4 356 12.5t352 -2.5q4 -12 -2 -146t-10 -134q-2 0 -345 -8.5t-351 -8.5zM82 -25q-12 27 -19.5 101t-8.5 134l-1 60l135 33q41 225 104.5 508t106.5 453l43 170q49 12 141.5 9t183.5 -12l91 -10l399 -1128h119v-301l-499 -18 q-68 0 -74 3q-14 10 -26.5 149.5t-2.5 143.5l105 6l-56 166l-276 4l-27 -135l139 -18q2 -18 4.5 -45t7.5 -99.5t5 -99v-45.5zM582 698l182 11l-102 266z" />
<glyph glyph-name="amacron" unicode="&#x101;" d="M358 1186q-10 0 -8 141t8 146q10 4 356.5 12t352.5 -2q4 -12 -2 -146.5t-10 -134.5q-2 0 -345.5 -8t-351.5 -8zM498 -18q-78 0 -152 27.5t-144.5 86t-113.5 171t-43 261.5q0 139 41 241.5t110.5 157t146.5 80t161 25.5q78 0 153.5 -25.5t112.5 -51.5l37 -25v102 q109 4 217.5 6t216.5 -2q0 -4 3 -72.5l6 -134.5l3 -65q-4 0 -76.5 -16.5t-74.5 -18.5l4 -432q170 0 172 -12q4 -10 3 -148.5t-7 -138.5q-35 0 -250 5t-215 9l-21 105l-10 -15.5t-31.5 -32t-56.5 -41t-82 -32.5t-110 -14zM569 328q70 0 115 52t45 138q0 82 -44 140.5 t-107 58.5q-78 0 -124 -51.5t-46 -143.5q0 -86 49 -140t112 -54z" />
<glyph glyph-name="Abreve" unicode="&#x102;" horiz-adv-x="1435" d="M629 1536q-324 0 -324 360q100 20 211 0q0 -53 36 -91t91 -38q53 0 88 35t35 88q25 12 107.5 15.5t95.5 -4.5q0 -68 -18.5 -130.5t-56.5 -117t-106.5 -86t-158.5 -31.5zM82 -25q-12 27 -19.5 101t-8.5 134l-1 60l135 33q41 225 104.5 508t106.5 453l43 170q49 12 141.5 9 t183.5 -12l91 -10l399 -1128h119v-301l-499 -18q-68 0 -74 3q-14 10 -26.5 149.5t-2.5 143.5l105 6l-56 166l-276 4l-27 -135l139 -18q2 -18 4.5 -45t7.5 -99.5t5 -99v-45.5zM582 698l182 11l-102 266z" />
<glyph glyph-name="abreve" unicode="&#x103;" d="M700 1147q-324 0 -323 360q100 20 211 0q0 -53 35.5 -91t91.5 -38q53 0 88 35t35 88q25 12 107.5 15.5t94.5 -5.5q0 -68 -18 -130t-56 -116.5t-107 -86t-159 -31.5zM498 -18q-78 0 -152 27.5t-144.5 86t-113.5 171t-43 261.5q0 139 41 241.5t110.5 157t146.5 80t161 25.5 q78 0 153.5 -25.5t112.5 -51.5l37 -25v102q109 4 217.5 6t216.5 -2q0 -4 3 -72.5l6 -134.5l3 -65q-4 0 -76.5 -16.5t-74.5 -18.5l4 -432q170 0 172 -12q4 -10 3 -148.5t-7 -138.5q-35 0 -250 5t-215 9l-21 105l-10 -15.5t-31.5 -32t-56.5 -41t-82 -32.5t-110 -14zM569 328 q70 0 115 52t45 138q0 82 -44 140.5t-107 58.5q-78 0 -124 -51.5t-46 -143.5q0 -86 49 -140t112 -54z" />
<glyph glyph-name="Aogonek" unicode="&#x104;" horiz-adv-x="1435" d="M82 -25q-12 27 -19.5 101t-8.5 134l-1 60l135 33q41 225 104.5 508t106.5 453l43 170q49 12 141.5 9t183.5 -12l91 -10l399 -1128h119v-301q-68 -2 -155 -6q-86 -121 -86 -224q0 -39 30.5 -66.5t61.5 -35.5l30 -8q6 -2 -19.5 -85t-29.5 -83q-25 -4 -74 4t-114.5 29.5 t-112.5 80t-47 144.5q0 143 119 235q-168 -4 -176 0q-14 10 -26.5 149.5t-2.5 143.5l105 6l-56 166l-276 4l-27 -135l139 -18q2 -18 4.5 -45t7.5 -99.5t5 -99v-45.5zM582 698l182 11l-102 266z" />
<glyph glyph-name="aogonek" unicode="&#x105;" d="M498 -18q-78 0 -152 27.5t-144.5 86t-113.5 171t-43 261.5q0 139 41 241.5t110.5 157t146.5 80t161 25.5q78 0 153.5 -25.5t112.5 -51.5l37 -25v102q109 4 217.5 6t216.5 -2q0 -4 3 -72.5l6 -134.5l3 -65q-4 0 -76.5 -16.5t-74.5 -18.5l4 -432q170 0 172 -12 q4 -10 3 -148.5t-7 -138.5q-39 0 -90 2q-96 -125 -97 -238q0 -39 31 -66.5t62 -35.5l30 -8q6 -2 -19.5 -85t-29.5 -83q-25 -4 -74 4t-114.5 29.5t-112.5 80t-47 144.5q0 70 33 130t63.5 87t63.5 45q-164 4 -164 8l-21 105l-10 -15.5t-31.5 -32t-56.5 -41t-82 -32.5t-110 -14 zM569 328q70 0 115 52t45 138q0 82 -44 140.5t-107 58.5q-78 0 -124 -51.5t-46 -143.5q0 -86 49 -140t112 -54z" />
<glyph glyph-name="Cacute" unicode="&#x106;" horiz-adv-x="1308" d="M475 1556q-14 8 -45 70t-53 120l-23 58l569 230q24 9 25 8q8 -2 41 -76t60.5 -146.5t23.5 -74.5q-586 -195 -598 -189zM53 717q0 186 52.5 327.5t139.5 222.5t189.5 119.5t214.5 38.5q70 0 130.5 -21.5t85.5 -42.5l26 -22l22 121l61 -5q60 -5 141 -19.5t120 -38.5 q6 -23 4 -136.5t-8 -243.5l-6 -130l-330 -41q-2 8 -6 22.5t-20.5 51t-39 64.5t-65.5 50.5t-94 22.5q-84 0 -140.5 -88t-56.5 -252t78 -245t170 -81q59 0 117.5 31t87 58.5t45.5 49.5q41 -43 107.5 -106.5l113.5 -105.5l47 -42l-16.5 -32.5t-54.5 -72.5t-97 -92t-147.5 -73 t-202.5 -33q-123 0 -239.5 48.5t-213 137.5t-156 234.5t-59.5 323.5z" />
<glyph glyph-name="cacute" unicode="&#x107;" horiz-adv-x="1136" d="M383 1167q-14 8 -45 69.5t-53 120.5l-23 58l569 230q24 9 25 8q8 -2 41 -76t60.5 -146.5t23.5 -74.5q-586 -195 -598 -189zM53 530q0 137 44 243t117 166t156 91t169 31q70 0 126 -16.5t77 -31.5l22 -16l18 105l21 -1q20 -1 53 -5t69 -9.5t73.5 -17.5t62.5 -29 q6 -18 4 -110t-7 -198l-5 -105l-330 -45q0 6 -2 16t-11.5 35.5t-22.5 45t-38.5 35t-58.5 13.5q-59 -2 -102.5 -51t-43.5 -146q0 -90 52.5 -138t113.5 -48q16 0 34 3t30 7t24.5 11.5t20.5 13.5t17 14t13.5 12.5t10.5 12.5l6 8q37 -8 109.5 -64.5t128.5 -108.5l55 -52 q-4 -10 -14.5 -24.5t-47 -54.5t-82 -69.5t-123 -54.5t-167.5 -25q-250 0 -411 147.5t-161 409.5z" />
<glyph glyph-name="Ccircumflex" unicode="&#x108;" horiz-adv-x="1308" d="M477 1561q-12 2 -33.5 26.5t-44 59l-43 68.5l-34.5 58l-15 23q-2 0 35 29.5l92 71.5l111.5 84l97.5 72t47 32q4 2 112.5 -68.5l215.5 -142.5l106 -72q-141 -211 -174 -227l-237 160zM53 717q0 186 52.5 327.5t139.5 222.5t189.5 119.5t214.5 38.5q70 0 130.5 -21.5 t85.5 -42.5l26 -22l22 121l61 -5q60 -5 141 -19.5t120 -38.5q6 -23 4 -136.5t-8 -243.5l-6 -130l-330 -41q-2 8 -6 22.5t-20.5 51t-39 64.5t-65.5 50.5t-94 22.5q-84 0 -140.5 -88t-56.5 -252t78 -245t170 -81q59 0 117.5 31t87 58.5t45.5 49.5q41 -43 107.5 -106.5 l113.5 -105.5l47 -42l-16.5 -32.5t-54.5 -72.5t-97 -92t-147.5 -73t-202.5 -33q-123 0 -239.5 48.5t-213 137.5t-156 234.5t-59.5 323.5z" />
<glyph glyph-name="ccircumflex" unicode="&#x109;" horiz-adv-x="1136" d="M385 1159q-12 2 -33.5 26.5t-44 59.5l-43 69l-35.5 57l-14 24q-2 0 35 29.5l92 71.5l111.5 84l97.5 71.5t47 31.5q4 2 112.5 -68.5l215.5 -141.5l106 -72q-141 -211 -174 -227l-237 159zM53 530q0 137 44 243t117 166t156 91t169 31q70 0 126 -16.5t77 -31.5l22 -16 l18 105l21 -1q20 -1 53 -5t69 -9.5t73.5 -17.5t62.5 -29q6 -18 4 -110t-7 -198l-5 -105l-330 -45q0 6 -2 16t-11.5 35.5t-22.5 45t-38.5 35t-58.5 13.5q-59 -2 -102.5 -51t-43.5 -146q0 -90 52.5 -138t113.5 -48q16 0 34 3t30 7t24.5 11.5t20.5 13.5t17 14t13.5 12.5 t10.5 12.5l6 8q37 -8 109.5 -64.5t128.5 -108.5l55 -52q-4 -10 -14.5 -24.5t-47 -54.5t-82 -69.5t-123 -54.5t-167.5 -25q-250 0 -411 147.5t-161 409.5z" />
<glyph glyph-name="Cdotaccent" unicode="&#x10a;" horiz-adv-x="1308" d="M733 1567q-100 0 -154.5 53t-58.5 147q-2 92 53.5 148.5t135 56.5t142 -59.5t62.5 -134.5q0 -90 -44 -150.5t-136 -60.5zM53 717q0 186 52.5 327.5t139.5 222.5t189.5 119.5t214.5 38.5q70 0 130.5 -21.5t85.5 -42.5l26 -22l22 121l61 -5q60 -5 141 -19.5t120 -38.5 q6 -23 4 -136.5t-8 -243.5l-6 -130l-330 -41q-2 8 -6 22.5t-20.5 51t-39 64.5t-65.5 50.5t-94 22.5q-84 0 -140.5 -88t-56.5 -252t78 -245t170 -81q59 0 117.5 31t87 58.5t45.5 49.5q41 -43 107.5 -106.5l113.5 -105.5l47 -42l-16.5 -32.5t-54.5 -72.5t-97 -92t-147.5 -73 t-202.5 -33q-123 0 -239.5 48.5t-213 137.5t-156 234.5t-59.5 323.5z" />
<glyph glyph-name="cdotaccent" unicode="&#x10b;" horiz-adv-x="1136" d="M641 1159q-100 0 -154.5 53.5t-58.5 147.5q-2 92 53.5 148.5t135 56.5t142 -59.5t62.5 -135.5q0 -90 -44 -150.5t-136 -60.5zM53 530q0 137 44 243t117 166t156 91t169 31q70 0 126 -16.5t77 -31.5l22 -16l18 105l21 -1q20 -1 53 -5t69 -9.5t73.5 -17.5t62.5 -29 q6 -18 4 -110t-7 -198l-5 -105l-330 -45q0 6 -2 16t-11.5 35.5t-22.5 45t-38.5 35t-58.5 13.5q-59 -2 -102.5 -51t-43.5 -146q0 -90 52.5 -138t113.5 -48q16 0 34 3t30 7t24.5 11.5t20.5 13.5t17 14t13.5 12.5t10.5 12.5l6 8q37 -8 109.5 -64.5t128.5 -108.5l55 -52 q-4 -10 -14.5 -24.5t-47 -54.5t-82 -69.5t-123 -54.5t-167.5 -25q-250 0 -411 147.5t-161 409.5z" />
<glyph glyph-name="Ccaron" unicode="&#x10c;" horiz-adv-x="1308" d="M739 1565q-4 -2 -112.5 68.5l-214.5 142.5l-107 71q141 211 174 228l238 -160l235 174q12 -2 34 -26.5t44.5 -59.5l43 -68.5l34.5 -57.5l14 -24q2 0 -34.5 -29.5l-92 -71.5l-112 -84l-97.5 -71.5t-47 -31.5zM53 717q0 186 52.5 327.5t139.5 222.5t189.5 119.5t214.5 38.5 q70 0 130.5 -21.5t85.5 -42.5l26 -22l22 121l61 -5q60 -5 141 -19.5t120 -38.5q6 -23 4 -136.5t-8 -243.5l-6 -130l-330 -41q-2 8 -6 22.5t-20.5 51t-39 64.5t-65.5 50.5t-94 22.5q-84 0 -140.5 -88t-56.5 -252t78 -245t170 -81q59 0 117.5 31t87 58.5t45.5 49.5 q41 -43 107.5 -106.5l113.5 -105.5l47 -42l-16.5 -32.5t-54.5 -72.5t-97 -92t-147.5 -73t-202.5 -33q-123 0 -239.5 48.5t-213 137.5t-156 234.5t-59.5 323.5z" />
<glyph glyph-name="ccaron" unicode="&#x10d;" horiz-adv-x="1136" d="M647 1163q-4 -2 -112.5 69l-215.5 142l-106 72q141 211 174 227l238 -160l235 175q12 -2 33.5 -27t44.5 -59.5t43 -68.5t35 -57l14 -24q2 0 -35 -29.5l-92 -71.5l-111.5 -84l-97.5 -72t-47 -32zM53 530q0 137 44 243t117 166t156 91t169 31q70 0 126 -16.5t77 -31.5 l22 -16l18 105l21 -1q20 -1 53 -5t69 -9.5t73.5 -17.5t62.5 -29q6 -18 4 -110t-7 -198l-5 -105l-330 -45q0 6 -2 16t-11.5 35.5t-22.5 45t-38.5 35t-58.5 13.5q-59 -2 -102.5 -51t-43.5 -146q0 -90 52.5 -138t113.5 -48q16 0 34 3t30 7t24.5 11.5t20.5 13.5t17 14t13.5 12.5 t10.5 12.5l6 8q37 -8 109.5 -64.5t128.5 -108.5l55 -52q-4 -10 -14.5 -24.5t-47 -54.5t-82 -69.5t-123 -54.5t-167.5 -25q-250 0 -411 147.5t-161 409.5z" />
<glyph glyph-name="Dcaron" unicode="&#x10e;" horiz-adv-x="1382" d="M639 1565q-4 -2 -112.5 68.5l-215.5 142.5l-106 71q141 211 174 228l237 -160l236 174q12 -2 33.5 -26.5t44 -59.5l43 -68.5l35.5 -57.5l14 -24q2 0 -35 -29.5l-92 -71.5l-111.5 -84l-97.5 -71.5t-47 -31.5zM84 -10l-2 34q-2 34 -6 82t-7 100t-4.5 86t3.5 40q6 4 46 9 t77 8l38 3l23 707q-158 -14 -162 -15q-2 0 -16.5 84t-25.5 171t-5 92q10 6 66.5 19t171 24.5t239.5 7.5q248 -5 338 -21q362 -66 455 -415q35 -130 35 -301q0 -162 -26 -286t-77 -205t-112.5 -134t-145.5 -80t-161.5 -37t-178.5 -10q-92 0 -231.5 10t-233.5 19.5t-98 7.5z M610 330q143 -18 231.5 59.5t88.5 298.5q0 113 -21.5 190.5t-54.5 110.5t-74 52.5t-77.5 14.5t-65.5 -4q-8 -1 -12 -1q-33 -569 -15 -721z" />
<glyph glyph-name="dcaron" unicode="&#x10f;" horiz-adv-x="1619" d="M1339 891q-8 18 -21 59t-22 74l-8 33q120 11 164 108q33 75 -7 119q-18 20 -48 21q-100 0 -142.5 52t-46.5 156q-2 96 57.5 154.5t143.5 58.5q80 0 140.5 -60t72.5 -142q90 -561 -283 -633zM520 -23q-78 0 -155.5 28t-152.5 86.5t-122 170t-47 260.5q0 123 26.5 217.5 t69.5 151.5t104.5 93t121 49.5t127.5 13.5q78 0 138 -19.5t83 -38.5l22 -18v213q-150 23 -157 28q-6 14 -3 70.5t7 121.5l4 64l493 3q28 -1 37 -3l2 -1155l164 -10l2 -303q2 0 -48 -2t-118.5 -3t-139.5 -3t-122 -1t-53 3l-25 74q-2 -4 -6 -10.5t-24.5 -22t-46 -26.5 t-74 -21.5t-107.5 -10.5zM555 305q66 0 104.5 54.5t38.5 150.5q0 94 -37.5 159.5t-97.5 65.5q-143 0 -143 -223q0 -98 37 -152.5t98 -54.5z" />
<glyph glyph-name="Dcroat" unicode="&#x110;" horiz-adv-x="1382" d="M84 -10l-2 34q-2 34 -6 82t-7 100t-4.5 86t3.5 40q6 4 46 9t77 8l38 3l9 275q-166 0 -170 2q-8 4 -2 80.5t12 81.5q70 -2 166 -3l8 271q-158 -14 -162 -15q-2 0 -16.5 84t-25.5 171t-5 92q10 6 66.5 19t171 24.5t239.5 7.5q248 -5 338 -21q362 -66 455 -415 q35 -130 35 -301q0 -162 -26 -286t-77 -205t-112.5 -134t-145.5 -80t-161.5 -37t-178.5 -10q-92 0 -231.5 10t-233.5 19.5t-98 7.5zM610 330q143 -18 231.5 59.5t88.5 298.5q0 113 -21.5 190.5t-54.5 110.5t-74 52.5t-77.5 14.5t-65.5 -4q-8 -1 -12 -1q-10 -164 -15 -269 q188 -4 189 -6q0 -6 -7.5 -69.5t-9.5 -67.5q-2 -2 -176 -6q-4 -235 4 -303z" />
<glyph glyph-name="dcroat" unicode="&#x111;" d="M520 -23q-78 0 -155.5 28t-152.5 86.5t-122 170t-47 260.5q0 123 26.5 217.5t69.5 151.5t104.5 93t121 49.5t127.5 13.5q78 0 138 -19.5t83 -38.5l22 -18v233q-219 0 -223 2q-8 4 -2 81t12 81q94 0 213 -2l8 102h373v-110l127 -4q0 -2 1 -36l2 -66.5t1 -34.5 q-2 -2 -131 -7l2 -897l164 -10l2 -303q2 0 -48 -2t-118.5 -3t-139.5 -3t-122 -1t-53 3l-25 74q-2 -4 -6 -10.5t-24.5 -22t-46 -26.5t-74 -21.5t-107.5 -10.5zM555 305q66 0 104.5 54.5t38.5 150.5q0 94 -37.5 159.5t-97.5 65.5q-143 0 -143 -223q0 -98 37 -152.5t98 -54.5z " />
<glyph glyph-name="Emacron" unicode="&#x112;" horiz-adv-x="1325" d="M330 1595q-10 0 -8 141.5t8 145.5q10 4 356 12.5t352 -2.5q4 -12 -2 -146t-10 -134q-2 0 -345 -8.5t-351 -8.5zM121 -6q-2 -2 -3 27.5t0 73.5l2 89t4 78t7 37q6 6 38 8t60 2h29l12 792q0 33 -2 34l-137 -13l-27 324q2 6 274.5 9t544.5 2l271 -1q8 -12 14 -38.5t8.5 -61.5 t3.5 -77t0 -83t-3.5 -81l-4.5 -69.5t-3 -49.5l-1 -19q0 -4 -140 -6t-155 0q-6 0 -12 36.5t-9 75.5t-3 41q-2 4 -116 6.5t-118 -2t-2 -119t6 -116.5q2 0 55.5 -2t104.5 -5t51 -5t2 -32l4.5 -70t3.5 -83t2 -68.5t-1 -29.5q-2 0 -59.5 -3t-113 -7t-57.5 -6q-4 -6 -4 -269 q8 -4 63.5 -3t120 6.5t64.5 7.5q0 4 28.5 109.5t28.5 107.5t83 -6.5t167 -18.5t84 -12q0 -10 -19.5 -263t-21.5 -255q-2 0 -561 6t-563 2z" />
<glyph glyph-name="emacron" unicode="&#x113;" horiz-adv-x="1062" d="M180 1186q-10 0 -8 141t8 146q10 4 356.5 12t352.5 -2q4 -12 -2 -146.5t-10 -134.5q-2 0 -345.5 -8t-351.5 -8zM35 547q0 262 149.5 392t374.5 130q168 0 306.5 -109.5t144.5 -189.5l-56 -209l-395 -217q31 -37 363 -37q-2 -59 -13.5 -142t-21.5 -135l-10 -53 q-387 -29 -614.5 129t-227.5 441zM401 584l250 153q-6 18 -32.5 36t-55.5 18q-100 0 -146.5 -68.5t-15.5 -138.5z" />
<glyph glyph-name="Ebreve" unicode="&#x114;" horiz-adv-x="1325" d="M672 1536q-324 0 -324 360q100 20 211 0q0 -53 36 -91t91 -38q53 0 88 35t35 88q25 12 107.5 15.5t95.5 -4.5q0 -68 -18.5 -130.5t-56.5 -117t-106.5 -86t-158.5 -31.5zM121 -6q-2 -2 -3 27.5t0 73.5l2 89t4 78t7 37q6 6 38 8t60 2h29l12 792q0 33 -2 34l-137 -13 l-27 324q2 6 274.5 9t544.5 2l271 -1q8 -12 14 -38.5t8.5 -61.5t3.5 -77t0 -83t-3.5 -81l-4.5 -69.5t-3 -49.5l-1 -19q0 -4 -140 -6t-155 0q-6 0 -12 36.5t-9 75.5t-3 41q-2 4 -116 6.5t-118 -2t-2 -119t6 -116.5q2 0 55.5 -2t104.5 -5t51 -5t2 -32l4.5 -70t3.5 -83t2 -68.5 t-1 -29.5q-2 0 -59.5 -3t-113 -7t-57.5 -6q-4 -6 -4 -269q8 -4 63.5 -3t120 6.5t64.5 7.5q0 4 28.5 109.5t28.5 107.5t83 -6.5t167 -18.5t84 -12q0 -10 -19.5 -263t-21.5 -255q-2 0 -561 6t-563 2z" />
<glyph glyph-name="ebreve" unicode="&#x115;" horiz-adv-x="1062" d="M522 1147q-324 0 -323 360q100 20 211 0q0 -53 35.5 -91t91.5 -38q53 0 87.5 35t34.5 88q25 12 108 15.5t95 -5.5q0 -68 -18.5 -130t-56 -116.5t-106.5 -86t-159 -31.5zM35 547q0 262 149.5 392t374.5 130q168 0 306.5 -109.5t144.5 -189.5l-56 -209l-395 -217 q31 -37 363 -37q-2 -59 -13.5 -142t-21.5 -135l-10 -53q-387 -29 -614.5 129t-227.5 441zM401 584l250 153q-6 18 -32.5 36t-55.5 18q-100 0 -146.5 -68.5t-15.5 -138.5z" />
<glyph glyph-name="Edotaccent" unicode="&#x116;" horiz-adv-x="1325" d="M698 1567q-100 0 -154.5 53t-58.5 147q-2 92 53.5 148.5t135.5 56.5t142.5 -59.5t62.5 -134.5q0 -90 -44.5 -150.5t-136.5 -60.5zM121 -6q-2 -2 -3 27.5t0 73.5l2 89t4 78t7 37q6 6 38 8t60 2h29l12 792q0 33 -2 34l-137 -13l-27 324q2 6 274.5 9t544.5 2l271 -1 q8 -12 14 -38.5t8.5 -61.5t3.5 -77t0 -83t-3.5 -81l-4.5 -69.5t-3 -49.5l-1 -19q0 -4 -140 -6t-155 0q-6 0 -12 36.5t-9 75.5t-3 41q-2 4 -116 6.5t-118 -2t-2 -119t6 -116.5q2 0 55.5 -2t104.5 -5t51 -5t2 -32l4.5 -70t3.5 -83t2 -68.5t-1 -29.5q-2 0 -59.5 -3t-113 -7 t-57.5 -6q-4 -6 -4 -269q8 -4 63.5 -3t120 6.5t64.5 7.5q0 4 28.5 109.5t28.5 107.5t83 -6.5t167 -18.5t84 -12q0 -10 -19.5 -263t-21.5 -255q-2 0 -561 6t-563 2z" />
<glyph glyph-name="edotaccent" unicode="&#x117;" horiz-adv-x="1062" d="M549 1159q-100 0 -154.5 53.5t-58.5 147.5q-2 92 53 148.5t135 56.5t142.5 -59.5t62.5 -135.5q0 -90 -44 -150.5t-136 -60.5zM35 547q0 262 149.5 392t374.5 130q168 0 306.5 -109.5t144.5 -189.5l-56 -209l-395 -217q31 -37 363 -37q-2 -59 -13.5 -142t-21.5 -135 l-10 -53q-387 -29 -614.5 129t-227.5 441zM401 584l250 153q-6 18 -32.5 36t-55.5 18q-100 0 -146.5 -68.5t-15.5 -138.5z" />
<glyph glyph-name="Eogonek" unicode="&#x118;" horiz-adv-x="1325" d="M121 -6q-2 -2 -3 27.5t0 73.5l2 89t4 78t7 37q6 6 38 8t60 2h29l12 792q0 33 -2 34l-137 -13l-27 324q2 6 274.5 9t544.5 2l271 -1q8 -12 14 -38.5t8.5 -61.5t3.5 -77t0 -83t-3.5 -81l-4.5 -69.5t-3 -49.5l-1 -19q0 -4 -140 -6t-155 0q-6 0 -12 36.5t-9 75.5t-3 41 q-2 4 -116 6.5t-118 -2t-2 -119t6 -116.5q2 0 55.5 -2t104.5 -5t51 -5t2 -32l4.5 -70t3.5 -83t2 -68.5t-1 -29.5q-2 0 -59.5 -3t-113 -7t-57.5 -6q-4 -6 -4 -269q8 -4 63.5 -3t120 6.5t64.5 7.5q0 4 28.5 109.5t28.5 107.5t83 -6.5t167 -18.5t84 -12q0 -10 -19.5 -263 t-21.5 -255h-76q-86 -115 -86 -224q0 -39 31 -66.5t62 -35.5l30 -8q6 -2 -19.5 -85t-29.5 -83q-25 -4 -74 4t-114.5 29.5t-112.5 80t-47 144.5q0 154 133 246q-817 10 -821 6z" />
<glyph glyph-name="eogonek" unicode="&#x119;" horiz-adv-x="1062" d="M436 -258q0 154 135 248q-254 41 -395 188.5t-141 368.5q0 262 149.5 392t374.5 130q168 0 306.5 -109.5t144.5 -189.5l-56 -209l-395 -217q31 -37 363 -37q-2 -59 -13.5 -142t-21.5 -135l-10 -53q-61 -4 -89 -4q-78 -106 -77 -211q0 -39 30.5 -66.5t61.5 -35.5l31 -8 q6 -2 -20 -85t-30 -83q-25 -4 -73.5 4t-114.5 29.5t-113 80t-47 144.5zM401 584l250 153q-6 18 -32.5 36t-55.5 18q-100 0 -146.5 -68.5t-15.5 -138.5z" />
<glyph glyph-name="Ecaron" unicode="&#x11a;" horiz-adv-x="1325" d="M705 1565q-4 -2 -113 68.5l-215 142.5l-107 71q141 211 174 228l238 -160l236 174q12 -2 33.5 -26.5t44 -59.5l43 -68.5l34.5 -57.5l14 -24q2 0 -34.5 -29.5l-92 -71.5l-111.5 -84l-97 -71.5t-47 -31.5zM121 -6q-2 -2 -3 27.5t0 73.5l2 89t4 78t7 37q6 6 38 8t60 2h29 l12 792q0 33 -2 34l-137 -13l-27 324q2 6 274.5 9t544.5 2l271 -1q8 -12 14 -38.5t8.5 -61.5t3.5 -77t0 -83t-3.5 -81l-4.5 -69.5t-3 -49.5l-1 -19q0 -4 -140 -6t-155 0q-6 0 -12 36.5t-9 75.5t-3 41q-2 4 -116 6.5t-118 -2t-2 -119t6 -116.5q2 0 55.5 -2t104.5 -5t51 -5 t2 -32l4.5 -70t3.5 -83t2 -68.5t-1 -29.5q-2 0 -59.5 -3t-113 -7t-57.5 -6q-4 -6 -4 -269q8 -4 63.5 -3t120 6.5t64.5 7.5q0 4 28.5 109.5t28.5 107.5t83 -6.5t167 -18.5t84 -12q0 -10 -19.5 -263t-21.5 -255q-2 0 -561 6t-563 2z" />
<glyph glyph-name="ecaron" unicode="&#x11b;" horiz-adv-x="1062" d="M555 1163q-4 -2 -112.5 69l-215.5 142l-106 72q141 211 174 227l237 -160l236 175q12 -2 33.5 -27t44 -59.5l43 -68.5l35.5 -57l14 -24q2 0 -35 -29.5l-92 -71.5l-111.5 -84l-97.5 -72t-47 -32zM35 547q0 262 149.5 392t374.5 130q168 0 306.5 -109.5t144.5 -189.5 l-56 -209l-395 -217q31 -37 363 -37q-2 -59 -13.5 -142t-21.5 -135l-10 -53q-387 -29 -614.5 129t-227.5 441zM401 584l250 153q-6 18 -32.5 36t-55.5 18q-100 0 -146.5 -68.5t-15.5 -138.5z" />
<glyph glyph-name="Gcircumflex" unicode="&#x11c;" horiz-adv-x="1583" d="M563 1561q-12 2 -33.5 26.5t-44 59l-43 68.5l-34.5 58l-15 23q-2 0 35 29.5l92 71.5l111.5 84l97.5 72t47 32q4 2 112.5 -68.5l215.5 -142.5l106 -72q-141 -211 -174 -227l-237 160zM55 686q-2 203 59.5 357.5t168 242.5t229.5 131t258 43q174 0 277 -84q4 18 7 49t6 52 l3 20q6 0 164.5 -26.5t161.5 -30.5l-37 -500l-348 -29q-47 195 -226 195q-133 0 -213 -125t-82 -293q-2 -147 86 -266t232 -119q61 0 101 33t48 64l8 32l-172 -2q-16 18 -22 90t-4 134l2 63q55 10 204.5 5t308.5 -16l159 -12q20 -96 39.5 -359t19.5 -335q0 -4 -83 -9 t-165 -9l-82 -5l-20 140q-47 -63 -149.5 -121.5t-219.5 -58.5q-336 0 -525.5 198.5t-193.5 550.5z" />
<glyph glyph-name="gcircumflex" unicode="&#x11d;" d="M434 1159q-12 2 -33.5 26.5t-44 59.5l-43 69l-34.5 57l-15 24q-2 0 35 29.5l92 71.5l111.5 84l97.5 71.5t47 31.5q4 2 112.5 -68.5l215.5 -141.5l106 -72q-141 -211 -174 -227l-237 159zM385 -78q82 -72 231 -72q109 0 151 94.5t13 157.5q-8 -12 -26.5 -29.5t-91 -46 t-164.5 -28.5q-59 0 -120 15.5t-122 55.5t-107.5 100t-76 157.5t-29.5 218.5q0 139 42 241.5t111.5 156.5t146.5 80t161 26q78 0 153.5 -26t112.5 -51l37 -26v103q109 4 217.5 6t216.5 -2q0 -4 3 -83l6 -155l3 -76q-4 0 -66.5 -16t-64.5 -18q31 -430 31 -691 q0 -57 -13.5 -119.5t-49 -134t-91 -127t-147.5 -92.5t-209 -37q-125 0 -218 31t-125 62l-32 30zM575 342q70 0 115 52t45 138q0 82 -44 140.5t-107 58.5q-78 0 -124 -51t-46 -143q0 -86 49 -140.5t112 -54.5z" />
<glyph glyph-name="Gbreve" unicode="&#x11e;" horiz-adv-x="1583" d="M793 1536q-324 0 -324 360q100 20 211 0q0 -53 36 -91t91 -38q53 0 88 35t35 88q25 12 107.5 15.5t95.5 -4.5q0 -68 -18.5 -130.5t-56.5 -117t-106.5 -86t-158.5 -31.5zM55 686q-2 203 59.5 357.5t168 242.5t229.5 131t258 43q174 0 277 -84q4 18 7 49t6 52l3 20 q6 0 164.5 -26.5t161.5 -30.5l-37 -500l-348 -29q-47 195 -226 195q-133 0 -213 -125t-82 -293q-2 -147 86 -266t232 -119q61 0 101 33t48 64l8 32l-172 -2q-16 18 -22 90t-4 134l2 63q55 10 204.5 5t308.5 -16l159 -12q20 -96 39.5 -359t19.5 -335q0 -4 -83 -9t-165 -9 l-82 -5l-20 140q-47 -63 -149.5 -121.5t-219.5 -58.5q-336 0 -525.5 198.5t-193.5 550.5z" />
<glyph glyph-name="gbreve" unicode="&#x11f;" d="M664 1147q-324 0 -324 360q100 20 211 0q0 -53 36 -91t91 -38q53 0 88 35t35 88q25 12 107.5 15.5t95.5 -5.5q0 -68 -18.5 -130t-56.5 -116.5t-106.5 -86t-158.5 -31.5zM385 -78q82 -72 231 -72q109 0 151 94.5t13 157.5q-8 -12 -26.5 -29.5t-91 -46t-164.5 -28.5 q-59 0 -120 15.5t-122 55.5t-107.5 100t-76 157.5t-29.5 218.5q0 139 42 241.5t111.5 156.5t146.5 80t161 26q78 0 153.5 -26t112.5 -51l37 -26v103q109 4 217.5 6t216.5 -2q0 -4 3 -83l6 -155l3 -76q-4 0 -66.5 -16t-64.5 -18q31 -430 31 -691q0 -57 -13.5 -119.5t-49 -134 t-91 -127t-147.5 -92.5t-209 -37q-125 0 -218 31t-125 62l-32 30zM575 342q70 0 115 52t45 138q0 82 -44 140.5t-107 58.5q-78 0 -124 -51t-46 -143q0 -86 49 -140.5t112 -54.5z" />
<glyph glyph-name="Gdotaccent" unicode="&#x120;" horiz-adv-x="1583" d="M819 1567q-100 0 -154.5 53t-58.5 147q-2 92 53.5 148.5t135 56.5t142 -59.5t62.5 -134.5q0 -90 -44 -150.5t-136 -60.5zM55 686q-2 203 59.5 357.5t168 242.5t229.5 131t258 43q174 0 277 -84q4 18 7 49t6 52l3 20q6 0 164.5 -26.5t161.5 -30.5l-37 -500l-348 -29 q-47 195 -226 195q-133 0 -213 -125t-82 -293q-2 -147 86 -266t232 -119q61 0 101 33t48 64l8 32l-172 -2q-16 18 -22 90t-4 134l2 63q55 10 204.5 5t308.5 -16l159 -12q20 -96 39.5 -359t19.5 -335q0 -4 -83 -9t-165 -9l-82 -5l-20 140q-47 -63 -149.5 -121.5t-219.5 -58.5 q-336 0 -525.5 198.5t-193.5 550.5z" />
<glyph glyph-name="gdotaccent" unicode="&#x121;" d="M690 1159q-100 0 -154.5 53.5t-58.5 147.5q-2 92 53.5 148.5t135 56.5t142 -59.5t62.5 -135.5q0 -90 -44 -150.5t-136 -60.5zM385 -78q82 -72 231 -72q109 0 151 94.5t13 157.5q-8 -12 -26.5 -29.5t-91 -46t-164.5 -28.5q-59 0 -120 15.5t-122 55.5t-107.5 100t-76 157.5 t-29.5 218.5q0 139 42 241.5t111.5 156.5t146.5 80t161 26q78 0 153.5 -26t112.5 -51l37 -26v103q109 4 217.5 6t216.5 -2q0 -4 3 -83l6 -155l3 -76q-4 0 -66.5 -16t-64.5 -18q31 -430 31 -691q0 -57 -13.5 -119.5t-49 -134t-91 -127t-147.5 -92.5t-209 -37q-125 0 -218 31 t-125 62l-32 30zM575 342q70 0 115 52t45 138q0 82 -44 140.5t-107 58.5q-78 0 -124 -51t-46 -143q0 -86 49 -140.5t112 -54.5z" />
<glyph glyph-name="Gcommaaccent" unicode="&#x122;" horiz-adv-x="1583" d="M55 686q-2 203 59.5 357.5t168 242.5t229.5 131t258 43q174 0 277 -84q4 18 7 49t6 52l3 20q6 0 164.5 -26.5t161.5 -30.5l-37 -500l-348 -29q-47 195 -226 195q-133 0 -213 -125t-82 -293q-2 -147 86 -266t232 -119q61 0 101 33t48 64l8 32l-172 -2q-16 18 -22 90 t-4 134l2 63q55 10 204.5 5t308.5 -16l159 -12q20 -96 39.5 -359t19.5 -335q0 -4 -83 -9t-165 -9l-82 -5l-20 140q-47 -63 -149.5 -121.5t-219.5 -58.5q-336 0 -525.5 198.5t-193.5 550.5zM594 -317q-2 94 59.5 151t151.5 57q84 0 146.5 -58t76.5 -140q96 -567 -283 -635 q-8 16 -21 57l-23 73l-9 32q125 11 165 112q31 78 -13 125q-21 23 -53 23q-104 0 -148.5 51.5t-48.5 151.5z" />
<glyph glyph-name="gcommaaccent" unicode="&#x123;" d="M647 1145q-84 0 -146.5 58.5t-76.5 139.5q-94 555 297 625q8 -16 21.5 -57t22.5 -73l9 -32q-126 -11 -171 -108q-35 -75 6 -120q20 -22 53 -22q104 0 148 -51t48 -151q2 -94 -59.5 -151.5t-151.5 -57.5zM385 -78q82 -72 231 -72q109 0 151 94.5t13 157.5 q-8 -12 -26.5 -29.5t-91 -46t-164.5 -28.5q-59 0 -120 15.5t-122 55.5t-107.5 100t-76 157.5t-29.5 218.5q0 139 42 241.5t111.5 156.5t146.5 80t161 26q78 0 153.5 -26t112.5 -51l37 -26v103q109 4 217.5 6t216.5 -2q0 -4 3 -83l6 -155l3 -76q-4 0 -66.5 -16t-64.5 -18 q31 -430 31 -691q0 -57 -13.5 -119.5t-49 -134t-91 -127t-147.5 -92.5t-209 -37q-125 0 -218 31t-125 62l-32 30zM575 342q70 0 115 52t45 138q0 82 -44 140.5t-107 58.5q-78 0 -124 -51t-46 -143q0 -86 49 -140.5t112 -54.5z" />
<glyph glyph-name="Hcircumflex" unicode="&#x124;" horiz-adv-x="1540" d="M535 1561q-12 2 -34 26.5t-44.5 59l-43 68.5l-34.5 58l-14 23q-2 0 34.5 29.5l92 71.5l111.5 84l97 72t48 32q4 2 112.5 -68.5l214.5 -142.5l107 -72q-141 -211 -174 -227l-238 160zM84 14q-14 27 -13 134.5t9 115.5q4 4 41 9.5t72 8.5l34 3l-28 845q-119 -4 -129 7 q-4 16 -2 82.5t6 141.5l4 75l592 -11l14 -290l-143 -15l10 -225l395 -18l-4 251q-119 12 -121 12.5t-8 43.5t-10 112.5t-2 124.5q117 27 266.5 26t278.5 -16l129 -16q-6 -281 -11 -280l-151 -25l26 -809l142 -16v-293q-41 0 -99.5 -1t-218 -3t-218 -1t-99.5 1l-6 299l143 14 l-6 270l-416 13q-4 -299 6 -299q2 0 18.5 1t35 1h38t33 -2t13.5 -6.5t7 -74t11 -134t0 -66.5q-16 -6 -314 -8t-325 18z" />
<glyph glyph-name="hcircumflex" unicode="&#x125;" d="M131 1571q-12 2 -33.5 26.5t-44 59.5l-43 68.5l-35.5 57.5l-14 23q-2 0 35 30l92 72l111.5 84l97.5 71.5t47 31.5q4 2 112.5 -68.5l215.5 -142.5l106 -72q-141 -211 -174 -227l-237 160zM109 0q-2 14 -4.5 40t-6.5 95.5t-4 126.5l115 8l2 883q-2 2 -82 12.5t-86 10.5 l3 66l6 137.5t3 74.5t124 9t248 8l124 4v-476q8 8 24.5 20.5t79 34t140.5 21.5q420 0 419 -524l-2 -268l86 -19q14 -201 0 -266l-530 6l-10 260l100 19l-2 219q0 207 -156 207q-61 0 -107 -58.5t-46 -148.5l2 -226l123 -26l4 -246q-2 -2 -35 -3t-83 -2t-109.5 -1h-121 t-109.5 1t-79.5 1t-29.5 0z" />
<glyph glyph-name="Hbar" unicode="&#x126;" horiz-adv-x="1540" d="M84 14q-14 27 -13 134.5t9 115.5q4 4 41 9.5t72 8.5l34 3l-22 655q-106 0 -109 2q-8 4 -6 69.5t8 69.5h103l-2 90q-119 -4 -129 7q-4 14 -2 71.5t6 121.5l4 65l592 -11l14 -249l-143 -15l2 -84q63 0 198.5 -1t200.5 -1v94q-119 12 -121 12.5t-8 33t-10 92t-2 114.5 q117 27 266.5 26t278.5 -16l129 -16q-6 -240 -11 -239l-151 -25l2 -80l160 -4q0 -90 -9 -115q0 -4 -147 -4l20 -647l142 -16v-293q-41 0 -99.5 -1t-218 -3t-218 -1t-99.5 1l-6 299l143 14l-6 229l-416 13q-4 -258 6 -258q2 0 18.5 1t35 1h38t33 -2t13.5 -6.5t7 -74t11 -134 t0 -66.5q-16 -6 -314 -8t-325 18zM551 834l395 -19l-2 129q-131 -2 -397 -2z" />
<glyph glyph-name="hbar" unicode="&#x127;" d="M109 0q-2 14 -4.5 40t-6.5 95.5t-4 126.5l115 8l10 934q-127 0 -129 2q-8 4 -2 81t12 81q47 0 117 -2q8 78 8 92q0 4 86 8t173 7l87 2l-6 -113q256 -4 256 -8q0 -6 -7 -69.5t-9 -67.5q-4 -4 -246 -9l-8 -209q8 8 24.5 20.5t79 34t140.5 21.5q420 0 419 -524l-2 -268 l86 -19q14 -201 0 -266l-530 6l-10 260l100 19l-2 219q0 207 -156 207q-61 0 -107 -58.5t-46 -148.5l2 -226l123 -26l4 -246q-2 -2 -35 -3t-83 -2t-109.5 -1h-121t-109.5 1t-79.5 1t-29.5 0z" />
<glyph glyph-name="Itilde" unicode="&#x128;" horiz-adv-x="899" d="M254 1593q-12 -11 -262 41q0 8 -1 21.5t2 51.5t12 73t30.5 78t53.5 73.5t85 51t123 20.5q63 0 125.5 -33t105.5 -66.5t64 -33.5q23 0 39 24.5t22 49.5l6 24q203 -16 252 -49q0 -8 -1 -20.5t-7 -49.5t-16 -70.5t-33 -74.5t-51.5 -70.5t-74.5 -50t-103 -20.5 q-51 0 -100.5 21.5t-80 47t-65.5 47t-62 21.5q-23 0 -35 -22.5t-18 -51.5t-10 -33zM104 14q-14 27 -13 140.5t9 121.5q2 2 18.5 4.5t38 2.5h42h34.5h15l-29 847q-119 -4 -129 7q-4 16 -2 82.5t6 141.5l4 75l674 10l14 -291l-184 -35l27 -827q178 0 178 -14q0 -2 1 -33t3 -70 t3 -78t0 -65.5t-3 -28.5q-16 -6 -348 -8t-359 18z" />
<glyph glyph-name="itilde" unicode="&#x129;" horiz-adv-x="872" d="M236 1184q-12 -11 -263 41q0 8 -1 21.5t2 51t12.5 72.5t31 78t53 73.5t85 51t123.5 20.5q63 0 125.5 -32.5t105.5 -66.5t63 -34q23 0 39.5 24.5t22.5 49.5l6 25q203 -16 252 -50q0 -8 -1 -20t-7 -49t-16.5 -71t-33 -75t-51 -70.5t-74.5 -50t-104 -20.5q-51 0 -100 21.5 t-80 47t-65.5 47t-61.5 21.5q-23 0 -35 -22.5t-18 -51t-10 -32.5zM94 0q-2 14 -4 40t-6 95.5t-4 126.5l176 8l2 457q0 2 -26.5 1l-55.5 -2t-55 -3l-27 -2q-2 0 -17.5 135t-15.5 143q0 6 113 11.5t254 3.5t205 -17v-721l168 -26l4 -246q-2 -2 -42 -3t-103.5 -2t-138.5 -1 h-151.5t-137 1t-100.5 1t-38 0z" />
<glyph glyph-name="Imacron" unicode="&#x12a;" horiz-adv-x="899" d="M100 1595q-10 0 -8 141.5t8 145.5q10 4 356.5 12.5t352.5 -2.5q4 -12 -2 -146t-10 -134q-2 0 -345.5 -8.5t-351.5 -8.5zM104 14q-14 27 -13 140.5t9 121.5q2 2 18.5 4.5t38 2.5h42h34.5h15l-29 847q-119 -4 -129 7q-4 16 -2 82.5t6 141.5l4 75l674 10l14 -291l-184 -35 l27 -827q178 0 178 -14q0 -2 1 -33t3 -70t3 -78t0 -65.5t-3 -28.5q-16 -6 -348 -8t-359 18z" />
<glyph glyph-name="imacron" unicode="&#x12b;" horiz-adv-x="872" d="M82 1186q-10 0 -8 141t8 146q10 4 356 12t353 -2q4 -12 -2.5 -146.5t-10.5 -134.5q-2 0 -345 -8t-351 -8zM94 0q-2 14 -4 40t-6 95.5t-4 126.5l176 8l2 457q0 2 -26.5 1l-55.5 -2t-55 -3l-27 -2q-2 0 -17.5 135t-15.5 143q0 6 113 11.5t254 3.5t205 -17v-721l168 -26 l4 -246q-2 -2 -42 -3t-103.5 -2t-138.5 -1h-151.5t-137 1t-100.5 1t-38 0z" />
<glyph glyph-name="Ibreve" unicode="&#x12c;" horiz-adv-x="899" d="M442 1536q-324 0 -323 360q100 20 211 0q0 -53 35.5 -91t91.5 -38q53 0 88 35t35 88q25 12 107.5 15.5t94.5 -4.5q0 -68 -18.5 -130.5t-56 -117t-106.5 -86t-159 -31.5zM104 14q-14 27 -13 140.5t9 121.5q2 2 18.5 4.5t38 2.5h42h34.5h15l-29 847q-119 -4 -129 7 q-4 16 -2 82.5t6 141.5l4 75l674 10l14 -291l-184 -35l27 -827q178 0 178 -14q0 -2 1 -33t3 -70t3 -78t0 -65.5t-3 -28.5q-16 -6 -348 -8t-359 18z" />
<glyph glyph-name="ibreve" unicode="&#x12d;" horiz-adv-x="872" d="M424 1147q-324 0 -324 360q100 20 211 0q0 -53 36 -91t91 -38q53 0 88 35t35 88q25 12 108 15.5t95 -5.5q0 -68 -18.5 -130t-56.5 -116.5t-106.5 -86t-158.5 -31.5zM94 0q-2 14 -4 40t-6 95.5t-4 126.5l176 8l2 457q0 2 -26.5 1l-55.5 -2t-55 -3l-27 -2q-2 0 -17.5 135 t-15.5 143q0 6 113 11.5t254 3.5t205 -17v-721l168 -26l4 -246q-2 -2 -42 -3t-103.5 -2t-138.5 -1h-151.5t-137 1t-100.5 1t-38 0z" />
<glyph glyph-name="Iogonek" unicode="&#x12e;" horiz-adv-x="899" d="M104 14q-14 27 -13 140.5t9 121.5q2 2 18.5 4.5t38 2.5h42h34.5h15l-29 847q-119 -4 -129 7q-4 16 -2 82.5t6 141.5l4 75l674 10l14 -291l-184 -35l27 -827q178 0 178 -14q0 -2 1 -33t3 -70t3 -78t0 -65.5t-3 -28.5q-4 -2 -188 -6q-96 -123 -97 -236q0 -39 31 -66.5 t61 -35.5l31 -8q6 -2 -19.5 -85t-29.5 -83q-25 -4 -74 4t-114.5 29.5t-112.5 80t-47 144.5q0 156 143 254q-279 0 -291 18z" />
<glyph glyph-name="iogonek" unicode="&#x12f;" horiz-adv-x="872" d="M434 1151q-104 0 -161.5 55.5t-61.5 153.5q-2 96 57.5 154.5t143.5 58.5t148.5 -61.5t64.5 -141.5q0 -92 -47.5 -155.5t-143.5 -63.5zM94 0q-2 14 -4 40t-6 95.5t-4 126.5l176 8l2 416q0 2 -26.5 1l-55.5 -2t-55 -3l-27 -2q-2 0 -17.5 135t-15.5 143q0 6 113 11.5 t254 3.5t205 -17v-680l168 -26l4 -246q-2 -2 -201 -6q-96 -117 -96 -236q0 -39 30.5 -66.5t61.5 -35.5l31 -8q6 -2 -19.5 -85t-29.5 -83q-25 -4 -74 4t-114.5 29.5t-113 80t-47.5 144.5q0 166 150 256h-63.5h-61.5t-54.5 1t-45 1h-34.5h-23h-7z" />
<glyph glyph-name="Idotaccent" unicode="&#x130;" horiz-adv-x="899" d="M469 1567q-100 0 -154.5 53t-58.5 147q-2 92 53.5 148.5t135 56.5t142 -59.5t62.5 -134.5q0 -90 -44 -150.5t-136 -60.5zM104 14q-14 27 -13 140.5t9 121.5q2 2 18.5 4.5t38 2.5h42h34.5h15l-29 847q-119 -4 -129 7q-4 16 -2 82.5t6 141.5l4 75l674 10l14 -291l-184 -35 l27 -827q178 0 178 -14q0 -2 1 -33t3 -70t3 -78t0 -65.5t-3 -28.5q-16 -6 -348 -8t-359 18z" />
<glyph glyph-name="dotlessi" unicode="&#x131;" horiz-adv-x="872" d="M94 0q-2 14 -4 40t-6 95.5t-4 126.5l176 8l2 457q0 2 -26.5 1l-55.5 -2t-55 -3l-27 -2q-2 0 -17.5 135t-15.5 143q0 6 113 11.5t254 3.5t205 -17v-721l168 -26l4 -246q-2 -2 -42 -3t-103.5 -2t-138.5 -1h-151.5t-137 1t-100.5 1t-38 0z" />
<glyph glyph-name="IJ" unicode="&#x132;" horiz-adv-x="2048" d="M104 14q-14 27 -13 140.5t9 121.5q2 2 18.5 4.5t38 2.5h42h34.5h15l-29 847q-119 -4 -129 7q-4 16 -2 82.5t6 141.5l4 75l674 10l14 -291l-184 -35l27 -827q178 0 178 -14q0 -2 1 -33t3 -70t3 -78t0 -65.5t-3 -28.5q-16 -6 -348 -8t-359 18zM870 231l152 147 q96 87 115 83q12 -2 39.5 -41t71.5 -75t95 -36q63 0 97.5 39t34.5 105l-11 622q-213 -4 -229 0q-12 2 -22.5 122t-10.5 212q100 25 292 34t333 7t143 -6q23 -76 29 -344l-137 -23q16 -305 14 -635q-2 -147 -48 -255.5t-121 -164t-153.5 -81t-162.5 -25.5q-102 0 -193.5 33 t-149 79t-99.5 92t-60 79z" />
<glyph glyph-name="ij" unicode="&#x133;" horiz-adv-x="1490" d="M1180 1151q-104 0 -161.5 55.5t-62.5 153.5q-2 96 57.5 154.5t143.5 58.5t148.5 -61.5t64.5 -141.5q0 -92 -47 -155.5t-143 -63.5zM434 1151q-104 0 -161.5 55.5t-61.5 153.5q-2 96 57.5 154.5t143.5 58.5t148.5 -61.5t64.5 -141.5q0 -92 -47.5 -155.5t-143.5 -63.5z M94 0q-2 14 -4 40t-6 95.5t-4 126.5l176 8l2 416q0 2 -26.5 1l-55.5 -2t-55 -3l-27 -2q-2 0 -17.5 135t-15.5 143q0 6 113 11.5t254 3.5t205 -17v-680l168 -26l4 -246q-2 -2 -42 -3t-103.5 -2t-138.5 -1h-151.5t-137 1t-100.5 1t-38 0zM696 -379l168 277q43 -41 121 -41 q86 0 86 129q0 133 -20.5 329.5t-38.5 280.5l-138 18l-10 342q492 4 500 -10q27 -51 51.5 -374.5t24.5 -573.5q0 -63 -6.5 -121.5t-30 -132.5t-63.5 -127t-112.5 -91t-168.5 -38q-100 0 -190.5 33t-131.5 66z" />
<glyph glyph-name="Jcircumflex" unicode="&#x134;" horiz-adv-x="1210" d="M539 1561q-12 2 -34 26.5t-44.5 59l-43 68.5l-34.5 58l-14 23q-2 0 34.5 29.5l92 71.5l112 84l97 72t47.5 32q4 2 112.5 -68.5l214.5 -142.5l107 -72q-141 -211 -174 -227l-238 160zM33 231l152 147q96 87 114 83q12 -2 40 -41t72 -75t95 -36q63 0 97 39t34 105l-10 622 q-213 -4 -230 0q-12 2 -22 122t-10 212q100 25 291.5 34t332.5 7t144 -6q23 -76 28 -344l-137 -23q16 -305 14 -635q-2 -147 -48 -255.5t-120.5 -164t-153.5 -81t-163 -25.5q-102 0 -193.5 33t-148.5 79t-99 92t-61 79z" />
<glyph glyph-name="jcircumflex" unicode="&#x135;" horiz-adv-x="677" d="M109 1155q-12 2 -34 26.5t-44.5 59.5l-43 68.5l-34.5 57.5l-14 24q-2 0 34.5 29.5l92 71.5l111.5 84l97 71.5t48 31.5q4 2 112.5 -68.5l214.5 -142.5l107 -71q-141 -211 -174 -228l-238 160zM51 -102q43 -41 121 -41q86 0 86 129q0 135 -20.5 353t-38.5 298l-138 18 l-10 342q492 4 500 -10q27 -51 51.5 -393t24.5 -596q0 -63 -6.5 -121.5t-30 -132.5t-63.5 -127t-112.5 -91t-168.5 -38q-100 0 -190.5 33t-131.5 66l-41 34z" />
<glyph glyph-name="Kcommaaccent" unicode="&#x136;" horiz-adv-x="1435" d="M90 -4q-2 6 -10 145.5t-2 139.5l147 10l-4 846q-160 12 -162 16q-2 2 2.5 133t6.5 135t274 15.5t281 5.5q6 -8 6 -150.5t-4 -148.5l-86 -35v-211q297 262 297 274q0 6 -21.5 7.5t-44 3.5t-25.5 6q-2 6 -10 124t-8 130q0 4 150.5 6t300 -1t149.5 -9v-273q-4 -6 -53 -12 t-51 -8q-6 -4 -144.5 -137.5t-144.5 -143.5t151.5 -290.5t165.5 -284.5q4 -2 35 -5l60 -6l28 -4q2 -2 9.5 -130t2.5 -130q-8 -6 -305 -15t-309 7q-4 12 -11 80t-11.5 128t-1.5 60l34 -3q35 -3 59.5 -4t30.5 1q0 6 -92 192.5t-100 192.5t-65.5 -50t-71.5 -73q-4 -18 -2 -64 l5 -111l3 -64q0 -6 63.5 -15.5t63.5 -11.5t-4 -127t-4 -131q0 -4 -144.5 -7t-289.5 -3h-144zM498 -317q-2 94 59 151t152 57q84 0 146.5 -58t76.5 -140q96 -567 -283 -635q-8 16 -21.5 57t-22.5 73l-9 32q125 11 165 112q31 78 -13 125q-21 23 -54 23q-104 0 -148 51.5 t-48 151.5z" />
<glyph glyph-name="kcommaaccent" unicode="&#x137;" horiz-adv-x="1435" d="M63 -4q-2 6 -10 142t-2 136l148 11l-4 852q-160 2 -162 6q-2 2 2 133t6 135t231.5 36t237.5 26q16 -12 24.5 -73t10.5 -162t2 -192.5t-2 -218.5t-2 -186q213 115 213 127q0 6 -45 17.5t-47 15.5q-2 6 -10.5 111.5t-8.5 117.5q25 4 167 2t309 -9t167 -13v-273 q-2 -6 -69.5 0t-69.5 4q-10 -6 -108.5 -88t-104.5 -90q-6 -10 141.5 -151.5t159.5 -145.5q4 -2 38 -5t65 -7l32 -4q2 -2 9.5 -124t2.5 -124q-8 -6 -324.5 -14t-328.5 8q-4 12 -11 76.5t-11 122t-2 57.5q8 0 42.5 7t34.5 11q-25 29 -120 107t-109 61q-6 -8 -6 -153 q0 -6 43 -15.5t43 -11.5t-4 -124t-4 -128q0 -4 -141.5 -7t-281.5 -3h-141zM483 -317q-2 94 59.5 151t151.5 57q84 0 146.5 -58t77.5 -140q96 -567 -283 -635q-8 16 -21.5 57t-22.5 73l-9 32q125 11 165 112q31 78 -13 125q-21 23 -54 23q-104 0 -148.5 51.5t-48.5 151.5z " />
<glyph glyph-name="kgreenlandic" unicode="&#x138;" horiz-adv-x="1343" d="M94 -4q-2 6 -10 142t-2 136l106 11l-4 428q-119 2 -121 6q-2 2 2.5 153.5t6.5 155.5t269 8t275 -2q27 -39 17 -145.5t-25 -138.5l-76 -15v-114q254 127 254 139q0 6 -34.5 17t-36.5 16q-2 6 -10.5 115.5t-8.5 121.5q23 4 152 2t279.5 -9t150.5 -13v-281q-2 -6 -49 0 t-49 4l-61 -34l-118.5 -68.5t-62.5 -40.5q-6 -10 105.5 -165t121.5 -159q4 -2 33 -5t55 -7l27 -4q2 -2 9 -124t3 -124q-8 -6 -283.5 -14t-287.5 8q-4 12 -11.5 76.5t-11.5 122t-2 57.5q8 0 43 7t35 11q-2 2 -17.5 31t-37 65.5t-41.5 61.5l-133 -70q-6 -8 -6 -73 q0 -6 43 -15.5t43 -11.5t-4.5 -124t-4.5 -128q0 -4 -130 -7t-261 -3h-131z" />
<glyph glyph-name="Lacute" unicode="&#x139;" horiz-adv-x="1177" d="M158 1556q-14 8 -45 70t-54 120l-22 58l568 230q24 9 26 8q8 -2 41 -76t60.5 -146.5t23.5 -74.5q-586 -195 -598 -189zM51 0q0 6 -2 87t-3 137.5t1 74.5q2 2 70.5 5t70.5 5t4.5 162t6.5 364.5t10 288.5q-6 4 -32.5 4t-59.5 -2t-35 -2q-6 2 -12.5 157t6.5 165q6 2 178 -1 t341 -7t169 -6l1 -14q1 -13 1 -33.5t1 -48l2 -55.5t1 -55.5v-49t-1 -35t-3 -13.5l-168 -22q-8 -66 -16.5 -264.5t-12.5 -364.5t-2 -166q207 0 211 8q2 4 36 131.5t34 133.5t133 -12.5t139 -22.5q2 -2 5 -145.5t3 -265.5t-2 -142h-12q-1063 -16 -1063 4z" />
<glyph glyph-name="lacute" unicode="&#x13a;" horiz-adv-x="872" d="M207 1579q-14 8 -45 69.5t-53 119.5l-23 59l569 229q24 9 25 8q8 -2 41 -75.5t60.5 -146.5t23.5 -75q-586 -194 -598 -188zM117 0q-4 16 -10.5 45t-15.5 104.5t-9 133.5l176 28l-6 858q-2 2 -65.5 12.5t-69.5 10.5q-2 0 -17.5 135t-15.5 143q0 6 111.5 16.5t234.5 13.5 t205 -11v-1192l168 -14l4 -279q-2 -2 -41 -3t-100.5 -2t-134 -1h-147.5t-133 1t-97 1t-37 0z" />
<glyph glyph-name="Lcommaaccent" unicode="&#x13b;" horiz-adv-x="1177" d="M51 0q0 6 -2 87t-3 137.5t1 74.5q2 2 70.5 5t70.5 5t4.5 162t6.5 364.5t10 288.5q-6 4 -32.5 4t-59.5 -2t-35 -2q-6 2 -12.5 157t6.5 165q6 2 178 -1t341 -7t169 -6l1 -14q1 -13 1 -33.5t1 -48l2 -55.5t1 -55.5v-49t-1 -35t-3 -13.5l-168 -22q-8 -66 -16.5 -264.5 t-12.5 -364.5t-2 -166q207 0 211 8q2 4 36 131.5t34 133.5t133 -12.5t139 -22.5q2 -2 5 -145.5t3 -265.5t-2 -142h-12q-1063 -16 -1063 4zM362 -317q-2 94 59.5 151t151.5 57q84 0 146.5 -58t77.5 -140q96 -567 -283 -635q-8 16 -21.5 57t-22.5 73l-9 32q125 11 165 112 q31 78 -13 125q-21 23 -54 23q-104 0 -148.5 51.5t-48.5 151.5z" />
<glyph glyph-name="lcommaaccent" unicode="&#x13c;" horiz-adv-x="872" d="M117 0q-4 16 -10.5 45t-15.5 104.5t-9 133.5l176 28l-6 858q-2 2 -65.5 12.5t-69.5 10.5q-2 0 -17.5 135t-15.5 143q0 6 111.5 16.5t234.5 13.5t205 -11v-1192l168 -14l4 -279q-2 -2 -41 -3t-100.5 -2t-134 -1h-147.5t-133 1t-97 1t-37 0zM217 -317q-2 94 59.5 151 t151.5 57q84 0 146.5 -58t76.5 -140q96 -567 -282 -635q-8 16 -21.5 57t-22.5 73l-10 32q125 11 166 112q31 78 -14 125q-21 23 -53 23q-104 0 -148.5 51.5t-48.5 151.5z" />
<glyph glyph-name="Lcaron" unicode="&#x13d;" horiz-adv-x="1177" d="M422 1565q-4 -2 -112.5 68.5l-215.5 142.5l-106 71q141 211 174 228l237 -160l236 174q12 -2 33.5 -26.5t44 -59.5l43 -68.5l35.5 -57.5l14 -24q2 0 -35 -29.5l-92 -71.5l-111.5 -84l-97.5 -71.5t-47 -31.5zM51 0q0 6 -2 87t-3 137.5t1 74.5q2 2 70.5 5t70.5 5t4.5 162 t6.5 364.5t10 288.5q-6 4 -32.5 4t-59.5 -2t-35 -2q-6 2 -12.5 157t6.5 165q6 2 178 -1t341 -7t169 -6l1 -14q1 -13 1 -33.5t1 -48l2 -55.5t1 -55.5v-49t-1 -35t-3 -13.5l-168 -22q-8 -66 -16.5 -264.5t-12.5 -364.5t-2 -166q207 0 211 8q2 4 36 131.5t34 133.5t133 -12.5 t139 -22.5q2 -2 5 -145.5t3 -265.5t-2 -142h-12q-1063 -16 -1063 4z" />
<glyph glyph-name="lcaron" unicode="&#x13e;" horiz-adv-x="1132" d="M850 891q-8 18 -21.5 59t-21.5 74l-8 33q120 11 163 108q33 75 -6 119q-18 20 -49 21q-100 0 -142 52t-46 156q-2 96 57.5 154.5t143.5 58.5q80 0 140 -60t73 -142q90 -561 -283 -633zM117 0q-4 16 -10.5 45t-15.5 104.5t-9 133.5l176 28l-6 858q-2 2 -65.5 12.5 t-69.5 10.5q-2 0 -17.5 135t-15.5 143q0 6 111.5 16.5t234.5 13.5t205 -11v-1192l168 -14l4 -279q-2 -2 -41 -3t-100.5 -2t-134 -1h-147.5t-133 1t-97 1t-37 0z" />
<glyph glyph-name="Ldot" unicode="&#x13f;" horiz-adv-x="1327" d="M51 0q0 6 -2 87t-3 137.5t1 74.5q2 2 70.5 5t70.5 5t4.5 162t6.5 364.5t10 288.5q-6 4 -32.5 4t-59.5 -2t-35 -2q-6 2 -12.5 157t6.5 165q6 2 178 -1t341 -7t169 -6l1 -14q1 -13 1 -33.5t1 -48l2 -55.5t1 -55.5v-49t-1 -35t-3 -13.5l-168 -22q-8 -66 -16.5 -264.5 t-12.5 -364.5t-2 -166q207 0 211 8q2 4 36 131.5t34 133.5t133 -12.5t139 -22.5q2 -2 5 -145.5t3 -265.5t-2 -142h-12q-1063 -16 -1063 4zM952 938q-2 92 53.5 148.5t135.5 56.5t142.5 -59.5t62.5 -135.5q0 -90 -44.5 -150.5t-136.5 -60.5q-100 0 -154.5 53.5t-58.5 147.5z " />
<glyph glyph-name="ldot" unicode="&#x140;" horiz-adv-x="1146" d="M117 0q-4 16 -10.5 45t-15.5 104.5t-9 133.5l176 28l-6 858q-2 2 -65.5 12.5t-69.5 10.5q-2 0 -17.5 135t-15.5 143q0 6 111.5 16.5t234.5 13.5t205 -11v-1192l168 -14l4 -279q-2 -2 -41 -3t-100.5 -2t-134 -1h-147.5t-133 1t-97 1t-37 0zM776 842q-2 92 53.5 148.5 t135 56.5t142 -59.5t62.5 -135.5q0 -90 -44 -150.5t-136 -60.5q-100 0 -154.5 53.5t-58.5 147.5z" />
<glyph glyph-name="Lslash" unicode="&#x141;" horiz-adv-x="1177" d="M51 0q0 6 -2 87t-3 137.5t1 74.5q2 2 70.5 5t70.5 5l7 238l-86 -37l-47 113q-6 21 -3 24q2 6 138 66q12 408 12 411q-6 4 -32.5 4t-59.5 -2t-35 -2q-6 2 -12.5 157t6.5 165q6 2 178 -1t341 -7t169 -6l1 -14q1 -13 1 -33.5t1 -48l2 -55.5t1 -55.5v-49t-1 -35t-3 -13.5 l-168 -22q-2 -10 -14 -229q164 66 166 65q8 -2 23 -35t27 -64l11 -32l-233 -100l-7.5 -201.5t-3.5 -143v-55.5q207 0 211 8q2 4 36 131.5t34 133.5t133 -12.5t139 -22.5q2 -2 5 -145.5t3 -265.5t-2 -142h-12q-1063 -16 -1063 4z" />
<glyph glyph-name="lslash" unicode="&#x142;" horiz-adv-x="872" d="M117 0q-4 16 -10.5 45t-15.5 104.5t-9 133.5l176 28l-2 262l-147 -63l-47 113q-6 21 -3 24q4 8 195 90l-2 432q-2 2 -65.5 12.5t-69.5 10.5q-2 0 -17.5 135t-15.5 143q0 6 111.5 16.5t234.5 13.5t205 -11v-592q111 45 115 45q8 -2 23 -35t27 -64l11 -32l-176 -76v-438 l168 -14l4 -279q-2 -2 -41 -3t-100.5 -2t-134 -1h-147.5t-133 1t-97 1t-37 0z" />
<glyph glyph-name="Nacute" unicode="&#x143;" horiz-adv-x="1468" d="M489 1556q-14 8 -44.5 70t-53.5 120l-22 58l568 230q24 9 26 8q8 -2 40.5 -76t60.5 -146.5t23 -74.5q-586 -195 -598 -189zM78 -10q4 6 -7.5 131t-9.5 127q4 2 70 11t68 11q4 4 0 313.5t-13 483.5q-23 -2 -75 -2t-56 4t-16 179t-6 179q2 2 33.5 2.5t77.5 0.5t101.5 -1.5 t100.5 -1.5t78 -1l33 -1q2 0 250.5 -356t253.5 -358q4 14 2 109t-7 206l-4 111q-166 10 -168 10t-10 72.5t-12 136t2 76.5q12 4 332.5 6t320.5 -2l2 -31q2 -31 3 -71t3 -81t1 -68.5t-5 -27.5q-12 0 -75.5 -7t-63.5 -9l3 -122l7 -287t7.5 -342t4.5 -284.5t-1 -119.5 q-2 0 -53.5 -4.5t-107 -7.5t-106.5 -4t-53 3l-434 729q0 -399 10 -411q4 -4 40 -9.5t69.5 -9.5t33.5 -10q0 -2 7.5 -68.5t11.5 -114.5t-2 -65q-2 -2 -40 -5t-95.5 -5t-125 -5l-135 -6t-123 -4t-90 -1t-32.5 2z" />
<glyph glyph-name="nacute" unicode="&#x144;" d="M440 1167q-14 8 -44.5 69.5t-53.5 120.5l-23 58l569 230q24 9 25 8q8 -2 41 -76t60.5 -146.5t23.5 -74.5q-586 -195 -598 -189zM88 0q-2 14 -4 40t-6 95.5t-4 126.5l135 8l2 490q-8 2 -32.5 0t-57.5 -4l-33 -2q-2 0 -17.5 139t-15.5 147q0 4 101.5 17.5t202.5 24.5 l102 12l65 -148q10 14 31 36t90.5 57.5t147.5 35.5q420 0 419 -524l-2 -268l86 -19q14 -201 0 -266l-530 6l-10 260l100 19l-2 219q0 207 -156 207q-61 0 -107 -58.5t-46 -148.5l2 -226l123 -26l4 -246q-2 -2 -36 -3t-86 -2t-113.5 -1h-125t-113.5 1t-83 1t-31 0z" />
<glyph glyph-name="Ncommaaccent" unicode="&#x145;" horiz-adv-x="1468" d="M78 -10q4 6 -7.5 131t-9.5 127q4 2 70 11t68 11q4 4 0 313.5t-13 483.5q-23 -2 -75 -2t-56 4t-16 179t-6 179q2 2 33.5 2.5t77.5 0.5t101.5 -1.5t100.5 -1.5t78 -1l33 -1q2 0 250.5 -356t253.5 -358q4 14 2 109t-7 206l-4 111q-166 10 -168 10t-10 72.5t-12 136t2 76.5 q12 4 332.5 6t320.5 -2l2 -31q2 -31 3 -71t3 -81t1 -68.5t-5 -27.5q-12 0 -75.5 -7t-63.5 -9l3 -122l7 -287t7.5 -342t4.5 -284.5t-1 -119.5q-2 0 -53.5 -4.5t-107 -7.5t-106.5 -4t-53 3l-434 729q0 -399 10 -411q4 -4 40 -9.5t69.5 -9.5t33.5 -10q0 -2 7.5 -68.5 t11.5 -114.5t-2 -65q-2 -2 -40 -5t-95.5 -5t-125 -5l-135 -6t-123 -4t-90 -1t-32.5 2zM504 -317q-2 94 59.5 151t151.5 57q84 0 146.5 -58t76.5 -140q96 -567 -283 -635q-8 16 -21 57l-23 73l-9 32q125 11 165 112q31 78 -13 125q-21 23 -54 23q-104 0 -148 51.5t-48 151.5z " />
<glyph glyph-name="ncommaaccent" unicode="&#x146;" d="M88 0q-2 14 -4 40t-6 95.5t-4 126.5l135 8l2 490q-8 2 -32.5 0t-57.5 -4l-33 -2q-2 0 -17.5 139t-15.5 147q0 4 101.5 17.5t202.5 24.5l102 12l65 -148q10 14 31 36t90.5 57.5t147.5 35.5q420 0 419 -524l-2 -268l86 -19q14 -201 0 -266l-530 6l-10 260l100 19l-2 219 q0 207 -156 207q-61 0 -107 -58.5t-46 -148.5l2 -226l123 -26l4 -246q-2 -2 -36 -3t-86 -2t-113.5 -1h-125t-113.5 1t-83 1t-31 0zM455 -317q-2 94 59 151t152 57q84 0 146 -58t77 -140q96 -567 -283 -635q-8 16 -21.5 57t-22.5 73l-9 32q125 11 165 112q31 78 -13 125 q-21 23 -54 23q-104 0 -148 51.5t-48 151.5z" />
<glyph glyph-name="Ncaron" unicode="&#x147;" horiz-adv-x="1468" d="M754 1565q-4 -2 -113 68.5l-215 142.5l-107 71q141 211 175 228l237 -160l236 174q12 -2 33.5 -26.5t44 -59.5l43 -68.5l34.5 -57.5l15 -24q2 0 -35 -29.5l-92.5 -71.5l-111.5 -84l-97 -71.5t-47 -31.5zM78 -10q4 6 -7.5 131t-9.5 127q4 2 70 11t68 11q4 4 0 313.5 t-13 483.5q-23 -2 -75 -2t-56 4t-16 179t-6 179q2 2 33.5 2.5t77.5 0.5t101.5 -1.5t100.5 -1.5t78 -1l33 -1q2 0 250.5 -356t253.5 -358q4 14 2 109t-7 206l-4 111q-166 10 -168 10t-10 72.5t-12 136t2 76.5q12 4 332.5 6t320.5 -2l2 -31q2 -31 3 -71t3 -81t1 -68.5 t-5 -27.5q-12 0 -75.5 -7t-63.5 -9l3 -122l7 -287t7.5 -342t4.5 -284.5t-1 -119.5q-2 0 -53.5 -4.5t-107 -7.5t-106.5 -4t-53 3l-434 729q0 -399 10 -411q4 -4 40 -9.5t69.5 -9.5t33.5 -10q0 -2 7.5 -68.5t11.5 -114.5t-2 -65q-2 -2 -40 -5t-95.5 -5t-125 -5l-135 -6 t-123 -4t-90 -1t-32.5 2z" />
<glyph glyph-name="ncaron" unicode="&#x148;" d="M705 1163q-4 -2 -113 69l-215 142l-107 72q141 211 174 227l238 -160l236 175q12 -2 33.5 -27t44 -59.5l43 -68.5l34.5 -57l14 -24q2 0 -34.5 -29.5l-92 -71.5l-111.5 -84l-97 -72t-47 -32zM88 0q-2 14 -4 40t-6 95.5t-4 126.5l135 8l2 490q-8 2 -32.5 0t-57.5 -4l-33 -2 q-2 0 -17.5 139t-15.5 147q0 4 101.5 17.5t202.5 24.5l102 12l65 -148q10 14 31 36t90.5 57.5t147.5 35.5q420 0 419 -524l-2 -268l86 -19q14 -201 0 -266l-530 6l-10 260l100 19l-2 219q0 207 -156 207q-61 0 -107 -58.5t-46 -148.5l2 -226l123 -26l4 -246q-2 -2 -36 -3 t-86 -2t-113.5 -1h-125t-113.5 1t-83 1t-31 0z" />
<glyph glyph-name="napostrophe" unicode="&#x149;" horiz-adv-x="1724" d="M117 891q-8 18 -21.5 59t-21.5 74l-8 33q120 11 163 108q33 75 -6 119q-18 20 -49 21q-100 0 -142 52t-46 156q-2 96 57 154.5t143 58.5q80 0 140.5 -60t72.5 -142q91 -561 -282 -633zM492 0q-2 14 -4.5 40t-6.5 95.5t-4 126.5l135 8l2 490q-8 2 -32.5 0t-57.5 -4l-32 -2 q-2 0 -17.5 139t-15.5 147q0 4 101.5 17.5t202.5 24.5l101 12l66 -148q10 14 30.5 36t90 57.5t147.5 35.5q420 0 420 -524l-2 -268l86 -19q14 -201 0 -266l-531 6l-10 260l101 19l-2 219q0 207 -156 207q-61 0 -107.5 -58.5t-46.5 -148.5l2 -226l123 -26l4 -246 q-2 -2 -35.5 -3t-86 -2t-114 -1h-125t-113.5 1t-82.5 1t-30.5 0z" />
<glyph glyph-name="Eng" unicode="&#x14a;" horiz-adv-x="1468" d="M78 -10q4 6 -7.5 131t-9.5 127q4 2 70 11t68 11q4 4 0 313.5t-13 483.5q-23 -2 -75 -2t-56 4t-16 179t-6 179q2 2 33.5 2.5t77.5 0.5t101.5 -1.5t100.5 -1.5t78 -1l33 -1q2 0 250.5 -356t253.5 -358q4 14 2 109t-7 206l-4 111q-166 10 -168 10t-10 72.5t-12 136t2 76.5 q12 4 332.5 6t320.5 -2l2 -31q2 -31 3 -71t3 -81t1 -68.5t-5 -27.5q-12 0 -75.5 -7t-63.5 -9l1 -56q1 -55 4 -142t5 -199.5l4 -226.5t4.5 -222.5t3.5 -187t-1 -121.5q-6 -211 -152.5 -340t-345.5 -138q-4 10 -10.5 29l-22.5 68l-28.5 88t-22.5 74.5t-8 46.5q8 2 21.5 8 t48 26.5t61 43t49 58.5t25.5 73q2 55 -90.5 225t-185.5 312l-93 142q0 -399 10 -411q4 -4 40 -9.5t69.5 -9.5t33.5 -10q0 -2 7.5 -68.5t11.5 -114.5t-2 -65q-2 -2 -40 -5t-95.5 -5t-125 -5l-135 -6t-123 -4t-90 -1t-32.5 2z" />
<glyph glyph-name="eng" unicode="&#x14b;" d="M88 0q-2 14 -4 40t-6 95.5t-4 126.5l135 8l2 490q-8 2 -32.5 0t-57.5 -4l-33 -2q-2 0 -17.5 139t-15.5 147q0 4 101.5 17.5t202.5 24.5l102 12l65 -148q10 14 31 36t90.5 57.5t147.5 35.5q178 0 302 -103.5t136 -336.5q8 -184 5 -397t-15 -299q-29 -195 -159 -308.5 t-321 -122.5q-4 10 -10 29l-22.5 68t-28.5 88l-22.5 74.5t-8.5 46.5q8 2 22.5 7t50.5 23.5t62.5 41t49 62.5t22.5 85l-2 469q0 207 -156 207q-61 0 -107 -58.5t-46 -148.5l2 -226l123 -26l4 -246q-2 -2 -36 -3t-86 -2t-113.5 -1h-125t-113.5 1t-83 1t-31 0z" />
<glyph glyph-name="Omacron" unicode="&#x14c;" horiz-adv-x="1488" d="M426 1595q-10 0 -8 141.5t8 145.5q10 4 356 12.5t353 -2.5q4 -12 -2.5 -146t-10.5 -134q-2 0 -345 -8.5t-351 -8.5zM61 731q0 197 54.5 343.5t154 230.5t222 123.5t272.5 39.5q297 0 481.5 -197.5t184.5 -543.5q0 -150 -40 -284t-118 -243.5t-208 -173t-298 -63.5 q-326 0 -515.5 188.5t-189.5 579.5zM762 373q106 0 172.5 81t66.5 259q0 170 -59 272t-182 102q-274 0 -275 -376q0 -166 83 -252t194 -86z" />
<glyph glyph-name="omacron" unicode="&#x14d;" horiz-adv-x="1124" d="M229 1186q-10 0 -8 141t8 146q10 4 356.5 12t352.5 -2q4 -12 -2 -146.5t-10 -134.5q-2 0 -345.5 -8t-351.5 -8zM41 516q0 279 146.5 407t383.5 128q223 0 362.5 -143.5t139.5 -395.5q0 -231 -127 -392t-372.5 -161t-389 136t-143.5 421zM414 502q0 -86 52 -139.5 t114 -53.5q63 0 102 49.5t39 143.5q0 88 -36 149.5t-105 61.5q-86 0 -126 -59.5t-40 -151.5z" />
<glyph glyph-name="Obreve" unicode="&#x14e;" horiz-adv-x="1488" d="M768 1536q-324 0 -324 360q100 20 211 0q0 -53 36 -91t91 -38q53 0 88 35t35 88q25 12 108 15.5t95 -4.5q0 -68 -18.5 -130.5t-56.5 -117t-106.5 -86t-158.5 -31.5zM61 731q0 197 54.5 343.5t154 230.5t222 123.5t272.5 39.5q297 0 481.5 -197.5t184.5 -543.5 q0 -150 -40 -284t-118 -243.5t-208 -173t-298 -63.5q-326 0 -515.5 188.5t-189.5 579.5zM762 373q106 0 172.5 81t66.5 259q0 170 -59 272t-182 102q-274 0 -275 -376q0 -166 83 -252t194 -86z" />
<glyph glyph-name="obreve" unicode="&#x14f;" horiz-adv-x="1124" d="M571 1147q-324 0 -323 360q100 20 211 0q0 -53 35.5 -91t91.5 -38q53 0 88 35t35 88q25 12 107.5 15.5t94.5 -5.5q0 -68 -18.5 -130t-56 -116.5t-106.5 -86t-159 -31.5zM41 516q0 279 146.5 407t383.5 128q223 0 362.5 -143.5t139.5 -395.5q0 -231 -127 -392t-372.5 -161 t-389 136t-143.5 421zM414 502q0 -86 52 -139.5t114 -53.5q63 0 102 49.5t39 143.5q0 88 -36 149.5t-105 61.5q-86 0 -126 -59.5t-40 -151.5z" />
<glyph glyph-name="Ohungarumlaut" unicode="&#x150;" horiz-adv-x="1488" d="M874 1604q-2 6 70 240.5t76 238.5q-4 2 76 -10.5t160.5 -26.5t78.5 -16l-260 -467q-197 33 -201 41zM463 1610q-4 4 16.5 116.5l42.5 222.5l23 109q23 8 101.5 -2t147 -23.5t68.5 -15.5t-111.5 -229t-113.5 -227q-6 0 -87 21.5t-87 27.5zM61 731q0 197 54.5 343.5 t154 230.5t222 123.5t272.5 39.5q297 0 481.5 -197.5t184.5 -543.5q0 -150 -40 -284t-118 -243.5t-208 -173t-298 -63.5q-326 0 -515.5 188.5t-189.5 579.5zM762 373q106 0 172.5 81t66.5 259q0 170 -59 272t-182 102q-274 0 -275 -376q0 -166 83 -252t194 -86z" />
<glyph glyph-name="ohungarumlaut" unicode="&#x151;" horiz-adv-x="1124" d="M678 1194q-2 6 69.5 240.5t75.5 238.5q-4 2 76 -10t161 -26.5t79 -16.5l-260 -467q-197 33 -201 41zM266 1200q-4 4 16.5 117t43.5 222l22 110q23 8 101.5 -2.5t147.5 -23.5t69 -15t-112 -229.5t-114 -227.5q-6 0 -87 21.5t-87 27.5zM41 516q0 279 146.5 407t383.5 128 q223 0 362.5 -143.5t139.5 -395.5q0 -231 -127 -392t-372.5 -161t-389 136t-143.5 421zM414 502q0 -86 52 -139.5t114 -53.5q63 0 102 49.5t39 143.5q0 88 -36 149.5t-105 61.5q-86 0 -126 -59.5t-40 -151.5z" />
<glyph glyph-name="OE" unicode="&#x152;" horiz-adv-x="1947" d="M61 731q0 197 54.5 343.5t154 230.5t222 123.5t272.5 39.5q84 0 154 -14l899 2q8 -12 14 -38.5t8 -61.5t3 -77t0 -83t-3 -81t-4 -69.5t-3 -49.5l-1 -19q0 -4 -140.5 -6t-154.5 0q-6 0 -12 36.5t-9.5 75.5t-3.5 41q-2 4 -115.5 6.5t-117.5 -2t-2 -119t6 -116.5 q2 0 55.5 -2t104.5 -5t51 -5t2 -32t4 -70t3 -83t2 -68.5t-1 -29.5q-2 0 -59.5 -3t-112.5 -7t-57 -6q-4 -6 -4 -269q8 -4 63.5 -3t120 6.5t64.5 7.5q0 4 28.5 109.5t28.5 107.5t83 -6.5t167 -18.5t84 -12q0 -10 -19.5 -263t-21.5 -255l-61 1q-60 1 -158.5 2t-211 2t-237.5 3 t-217 2q-104 -33 -217 -33q-326 0 -515.5 188.5t-189.5 579.5zM762 373q80 0 133 33q35 475 10 636q-55 45 -145 45q-274 0 -275 -376q0 -166 83 -252t194 -86z" />
<glyph glyph-name="oe" unicode="&#x153;" horiz-adv-x="1732" d="M41 516q0 279 146.5 407t383.5 128q190 0 320 -105q141 123 338 123q168 0 306 -109.5t144 -189.5l-55 -209l-395 -217q31 -37 362 -37q-2 -59 -13 -142t-22 -135l-10 -53q-383 -27 -606 138q-135 -156 -367 -156q-246 0 -389 136t-143 421zM1071 584l250 153 q-6 18 -32.5 36t-55.5 18q-100 0 -146.5 -68.5t-15.5 -138.5zM414 502q0 -86 52 -139.5t114 -53.5q63 0 102 49.5t39 143.5q0 88 -36 149.5t-105 61.5q-86 0 -126 -59.5t-40 -151.5z" />
<glyph glyph-name="Racute" unicode="&#x154;" horiz-adv-x="1429" d="M414 1556q-14 8 -45 70t-54 120l-22 58l568 230q24 9 26 8q8 -2 41 -76t60.5 -146.5t23.5 -74.5q-586 -195 -598 -189zM92 6q0 -2 -4 25.5t-9 66.5t-8 80t-1 68.5t12 27.5q35 0 83 6.5t48 14.5v821q-131 -4 -135 6q-4 8 0 159t10 157q35 4 121 2t237.5 -5t192.5 -3 q59 0 97 -1t106.5 -8.5t115 -22t102.5 -42t91 -66.5t58.5 -99t23.5 -138q0 -80 -20.5 -149.5t-49 -111.5t-58.5 -72t-50 -42l-21 -12l199 -406q121 4 121 0l2 -42q2 -42 5 -89t4 -90t-1 -47q-4 -10 -311.5 -7t-309.5 15q-4 18 -4 136t9 118q94 0 94 12q0 8 -68.5 157.5 t-73 149.5t-78 -8t-77.5 -8t-5 -72.5t1 -145.5t10 -73q88 0 88 -8v-260zM551 866l45 1q45 1 91 8.5t86 45t40 103.5q0 55 -64.5 77.5t-130.5 17.5l-65 -5v-41.5t-1 -81t-1 -91.5t0 -34z" />
<glyph glyph-name="racute" unicode="&#x155;" horiz-adv-x="1171" d="M238 1167q-14 8 -45 69.5t-54 120.5l-22 58l568 230q24 9 26 8q8 -2 40.5 -76t60.5 -146.5t24 -74.5q-586 -195 -598 -189zM88 0q-2 16 -4 45t-6 104.5t-4 133.5l135 8l2 481q-8 2 -32.5 0t-57.5 -4l-33 -2q-2 0 -17.5 129t-15.5 137q0 4 103.5 22.5t207.5 34.5l103 15 l66 -139q8 10 24 26.5t78.5 44t140.5 27.5q82 0 163 -38t121 -75t38 -47q-2 -16 -55.5 -89t-105.5 -136.5t-56 -59.5q-82 82 -156 82q-80 0 -129 -57t-49 -149q0 -59 4 -108.5t8 -69.5l4 -19l209 -27l4 -266q-2 -2 -41 -3t-100.5 -2t-134 -1h-147t-133 1t-97.5 1t-37 0z" />
<glyph glyph-name="Rcommaaccent" unicode="&#x156;" horiz-adv-x="1429" d="M92 6q0 -2 -4 25.5t-9 66.5t-8 80t-1 68.5t12 27.5q35 0 83 6.5t48 14.5v821q-131 -4 -135 6q-4 8 0 159t10 157q35 4 121 2t237.5 -5t192.5 -3q59 0 97 -1t106.5 -8.5t115 -22t102.5 -42t91 -66.5t58.5 -99t23.5 -138q0 -80 -20.5 -149.5t-49 -111.5t-58.5 -72t-50 -42 l-21 -12l199 -406q121 4 121 0l2 -42q2 -42 5 -89t4 -90t-1 -47q-4 -10 -311.5 -7t-309.5 15q-4 18 -4 136t9 118q94 0 94 12q0 8 -68.5 157.5t-73 149.5t-78 -8t-77.5 -8t-5 -72.5t1 -145.5t10 -73q88 0 88 -8v-260zM551 866l45 1q45 1 91 8.5t86 45t40 103.5 q0 55 -64.5 77.5t-130.5 17.5l-65 -5v-41.5t-1 -81t-1 -91.5t0 -34zM492 -317q-2 94 59 151t151 57q84 0 146.5 -58t77.5 -140q96 -567 -283 -635q-8 16 -21.5 57t-22.5 73l-9 32q125 11 165 112q31 78 -13 125q-21 23 -54 23q-104 0 -148 51.5t-48 151.5z" />
<glyph glyph-name="rcommaaccent" unicode="&#x157;" horiz-adv-x="1171" d="M88 0q-2 16 -4 45t-6 104.5t-4 133.5l135 8l2 481q-8 2 -32.5 0t-57.5 -4l-33 -2q-2 0 -17.5 129t-15.5 137q0 4 103.5 22.5t207.5 34.5l103 15l66 -139q8 10 24 26.5t78.5 44t140.5 27.5q82 0 163 -38t121 -75t38 -47q-2 -16 -55.5 -89t-105.5 -136.5t-56 -59.5 q-82 82 -156 82q-80 0 -129 -57t-49 -149q0 -59 4 -108.5t8 -69.5l4 -19l209 -27l4 -266q-2 -2 -41 -3t-100.5 -2t-134 -1h-147t-133 1t-97.5 1t-37 0zM209 -317q-2 94 59.5 151t151.5 57q84 0 146.5 -58t76.5 -140q96 -567 -283 -635q-8 16 -21 57l-23 73l-9 32 q125 11 165 112q31 78 -13 125q-21 23 -53 23q-104 0 -148.5 51.5t-48.5 151.5z" />
<glyph glyph-name="Rcaron" unicode="&#x158;" horiz-adv-x="1429" d="M678 1565q-4 -2 -112.5 68.5l-215.5 142.5l-106 71q141 211 174 228l237 -160l236 174q12 -2 33.5 -26.5t44 -59.5l43 -68.5l35.5 -57.5l14 -24q2 0 -35 -29.5l-92 -71.5l-111.5 -84l-97.5 -71.5t-47 -31.5zM92 6q0 -2 -4 25.5t-9 66.5t-8 80t-1 68.5t12 27.5 q35 0 83 6.5t48 14.5v821q-131 -4 -135 6q-4 8 0 159t10 157q35 4 121 2t237.5 -5t192.5 -3q59 0 97 -1t106.5 -8.5t115 -22t102.5 -42t91 -66.5t58.5 -99t23.5 -138q0 -80 -20.5 -149.5t-49 -111.5t-58.5 -72t-50 -42l-21 -12l199 -406q121 4 121 0l2 -42q2 -42 5 -89 t4 -90t-1 -47q-4 -10 -311.5 -7t-309.5 15q-4 18 -4 136t9 118q94 0 94 12q0 8 -68.5 157.5t-73 149.5t-78 -8t-77.5 -8t-5 -72.5t1 -145.5t10 -73q88 0 88 -8v-260zM551 866l45 1q45 1 91 8.5t86 45t40 103.5q0 55 -64.5 77.5t-130.5 17.5l-65 -5v-41.5t-1 -81t-1 -91.5 t0 -34z" />
<glyph glyph-name="rcaron" unicode="&#x159;" horiz-adv-x="1171" d="M502 1163q-4 -2 -112.5 69l-215.5 142l-106 72q141 211 174 227l237 -160l236 175q12 -2 33.5 -27t44 -59.5l43 -68.5l34.5 -57l15 -24q2 0 -35 -29.5l-92.5 -71.5l-111.5 -84l-97 -72t-47 -32zM88 0q-2 16 -4 45t-6 104.5t-4 133.5l135 8l2 481q-8 2 -32.5 0t-57.5 -4 l-33 -2q-2 0 -17.5 129t-15.5 137q0 4 103.5 22.5t207.5 34.5l103 15l66 -139q8 10 24 26.5t78.5 44t140.5 27.5q82 0 163 -38t121 -75t38 -47q-2 -16 -55.5 -89t-105.5 -136.5t-56 -59.5q-82 82 -156 82q-80 0 -129 -57t-49 -149q0 -59 4 -108.5t8 -69.5l4 -19l209 -27 l4 -266q-2 -2 -41 -3t-100.5 -2t-134 -1h-147t-133 1t-97.5 1t-37 0z" />
<glyph glyph-name="Sacute" unicode="&#x15a;" horiz-adv-x="1161" d="M342 1556q-14 8 -45 70t-53 120l-23 58l569 230q24 9 25 8q8 -2 41 -76t60.5 -146.5t23.5 -74.5q-586 -195 -598 -189zM63 -16q-4 45 -4 520q213 47 322 31q27 -98 80 -155.5t106 -57.5q47 0 80 24.5t33 69.5q0 33 -13.5 60.5t-43 50t-53 37t-71.5 38l-73 35.5 q-86 45 -136 79t-108.5 92t-86 138t-27.5 184q0 158 120.5 263.5t321.5 105.5q150 0 227 -82l15 99q213 8 313 -35q4 -2 -2 -102.5t-14.5 -219.5t-8.5 -143q0 -14 -79.5 -20.5t-159.5 -5.5t-80 5q-6 82 -48 123t-95 41q-39 0 -76 -23.5t-37 -76.5q0 -33 37 -61.5t130 -74.5 t138 -73q82 -47 132 -84t102.5 -93.5t77 -128t24.5 -161.5q0 -170 -124 -288t-282 -118q-217 0 -317 115q-2 -18 -4 -51t-4 -54l-2 -22z" />
<glyph glyph-name="sacute" unicode="&#x15b;" horiz-adv-x="1024" d="M268 1167q-14 8 -44.5 69.5t-53.5 120.5l-23 58l569 230q24 9 25 8q8 -2 41 -76t60.5 -146.5t23.5 -74.5q-586 -195 -598 -189zM63 -20q-4 31 -4 393q61 10 151.5 12t102.5 -2q18 -55 54 -87t71 -32q76 0 76 53q0 18 -8 34t-28.5 28t-37 20.5t-48.5 21.5t-48 19 q-55 25 -94 48.5t-82 62.5t-65.5 98.5t-22.5 134.5q0 115 101.5 201t271.5 86q131 0 198 -59l13 71q205 6 292 -24q4 -2 -1 -84t-12 -175t-7 -106q-10 -8 -72.5 -6t-135.5 7t-73 10q-4 45 -36.5 67.5t-69.5 22.5q-63 0 -64 -52q0 -18 28 -35.5t93.5 -44t93.5 -40.5 q106 -49 181 -140.5t75 -216.5q0 -123 -100 -208t-238 -85q-193 0 -266 68q-2 -12 -4 -34.5t-4 -36.5l-2 -13z" />
<glyph glyph-name="Scircumflex" unicode="&#x15c;" horiz-adv-x="1161" d="M344 1561q-12 2 -33.5 26.5t-44 59l-43 68.5l-35.5 58l-14 23q-2 0 35 29.5l92 71.5l111.5 84l97.5 72t47 32q4 2 112.5 -68.5l215.5 -142.5l106 -72q-141 -211 -174 -227l-237 160zM63 -16q-4 45 -4 520q213 47 322 31q27 -98 80 -155.5t106 -57.5q47 0 80 24.5t33 69.5 q0 33 -13.5 60.5t-43 50t-53 37t-71.5 38l-73 35.5q-86 45 -136 79t-108.5 92t-86 138t-27.5 184q0 158 120.5 263.5t321.5 105.5q150 0 227 -82l15 99q213 8 313 -35q4 -2 -2 -102.5t-14.5 -219.5t-8.5 -143q0 -14 -79.5 -20.5t-159.5 -5.5t-80 5q-6 82 -48 123t-95 41 q-39 0 -76 -23.5t-37 -76.5q0 -33 37 -61.5t130 -74.5t138 -73q82 -47 132 -84t102.5 -93.5t77 -128t24.5 -161.5q0 -170 -124 -288t-282 -118q-217 0 -317 115q-2 -18 -4 -51t-4 -54l-2 -22z" />
<glyph glyph-name="scircumflex" unicode="&#x15d;" horiz-adv-x="1024" d="M270 1159q-12 2 -33.5 26.5t-44 59.5l-43 69l-34.5 57l-15 24q-2 0 35 29.5l92.5 71.5l111.5 84l97 71.5t47 31.5q4 2 113 -68.5l215 -141.5l107 -72q-141 -211 -175 -227l-237 159zM63 -20q-4 31 -4 393q61 10 151.5 12t102.5 -2q18 -55 54 -87t71 -32q76 0 76 53 q0 18 -8 34t-28.5 28t-37 20.5t-48.5 21.5t-48 19q-55 25 -94 48.5t-82 62.5t-65.5 98.5t-22.5 134.5q0 115 101.5 201t271.5 86q131 0 198 -59l13 71q205 6 292 -24q4 -2 -1 -84t-12 -175t-7 -106q-10 -8 -72.5 -6t-135.5 7t-73 10q-4 45 -36.5 67.5t-69.5 22.5 q-63 0 -64 -52q0 -18 28 -35.5t93.5 -44t93.5 -40.5q106 -49 181 -140.5t75 -216.5q0 -123 -100 -208t-238 -85q-193 0 -266 68q-2 -12 -4 -34.5t-4 -36.5l-2 -13z" />
<glyph glyph-name="Scedilla" unicode="&#x15e;" horiz-adv-x="1161" d="M63 -16q-4 45 -4 520q213 47 322 31q27 -98 80 -155.5t106 -57.5q47 0 80 24.5t33 69.5q0 33 -13.5 60.5t-43 50t-53 37t-71.5 38l-73 35.5q-86 45 -136 79t-108.5 92t-86 138t-27.5 184q0 158 120.5 263.5t321.5 105.5q150 0 227 -82l15 99q213 8 313 -35 q4 -2 -2 -102.5t-14.5 -219.5t-8.5 -143q0 -14 -79.5 -20.5t-159.5 -5.5t-80 5q-6 82 -48 123t-95 41q-39 0 -76 -23.5t-37 -76.5q0 -33 37 -61.5t130 -74.5t138 -73q82 -47 132 -84t102.5 -93.5t77 -128t24.5 -161.5q0 -156 -107.5 -269.5t-253.5 -131.5l-4 -86 q6 -2 17.5 -7.5t40 -24t50 -40t40 -59t18.5 -80.5q0 -31 -11 -59.5t-30.5 -51.5t-45 -41t-54.5 -31.5t-56.5 -25t-54 -18.5l-46 -12t-31.5 -7l-13 -2q-2 -2 -18.5 44t-28.5 92t-8 48q2 0 18.5 3t35 9.5t38 14.5t31.5 21.5t12 29.5q0 33 -36 54.5t-70 25.5l-35 4q4 172 4 223 q-78 29 -125 86q-2 -18 -4 -51t-4 -54l-2 -22z" />
<glyph glyph-name="scedilla" unicode="&#x15f;" horiz-adv-x="1024" d="M63 -20q-4 31 -4 393q61 10 151.5 12t102.5 -2q18 -55 54 -87t71 -32q76 0 76 53q0 18 -8 34t-28.5 28t-37 20.5t-48.5 21.5t-48 19q-55 25 -94 48.5t-82 62.5t-65.5 98.5t-22.5 134.5q0 115 101.5 201t271.5 86q131 0 198 -59l13 71q205 6 292 -24q4 -2 -1 -84t-12 -175 t-7 -106q-10 -8 -72.5 -6t-135.5 7t-73 10q-4 45 -36.5 67.5t-69.5 22.5q-63 0 -64 -52q0 -18 28 -35.5t93.5 -44t93.5 -40.5q106 -49 181 -140.5t75 -216.5q0 -111 -81.5 -191.5t-202.5 -97.5l-4 -81q6 -2 17 -7.5t40 -24t50.5 -40t40 -59t18.5 -80.5q0 -31 -11.5 -59.5 t-31 -51.5t-45 -41t-54 -31.5t-56.5 -25t-54.5 -18.5l-46 -12t-31.5 -7l-12 -2q-2 -2 -18.5 44t-29 92t-8.5 48q2 0 18.5 3t35 9.5t38 14.5t31.5 21.5t12 29.5q0 33 -35.5 54.5t-70.5 25.5l-35 4q4 150 4 213q-49 12 -82 45q-2 -12 -4 -34.5t-4 -36.5l-2 -13z" />
<glyph glyph-name="Scaron" unicode="&#x160;" horiz-adv-x="1161" d="M606 1565q-4 -2 -112.5 68.5l-214.5 142.5l-107 71q141 211 174 228l238 -160l235 174q12 -2 33.5 -26.5t44.5 -59.5l43.5 -68.5l34.5 -57.5l14 -24q2 0 -34.5 -29.5l-92 -71.5l-112 -84l-97.5 -71.5t-47 -31.5zM63 -16q-4 45 -4 520q213 47 322 31q27 -98 80 -155.5 t106 -57.5q47 0 80 24.5t33 69.5q0 33 -13.5 60.5t-43 50t-53 37t-71.5 38l-73 35.5q-86 45 -136 79t-108.5 92t-86 138t-27.5 184q0 158 120.5 263.5t321.5 105.5q150 0 227 -82l15 99q213 8 313 -35q4 -2 -2 -102.5t-14.5 -219.5t-8.5 -143q0 -14 -79.5 -20.5t-159.5 -5.5 t-80 5q-6 82 -48 123t-95 41q-39 0 -76 -23.5t-37 -76.5q0 -33 37 -61.5t130 -74.5t138 -73q82 -47 132 -84t102.5 -93.5t77 -128t24.5 -161.5q0 -170 -124 -288t-282 -118q-217 0 -317 115q-2 -18 -4 -51t-4 -54l-2 -22z" />
<glyph glyph-name="scaron" unicode="&#x161;" horiz-adv-x="1024" d="M532 1163q-4 -2 -112.5 69l-214.5 142l-107 72q141 211 174 227l238 -160l235 175q12 -2 34 -27t44.5 -59.5l43 -68.5l34.5 -57l14 -24q2 0 -34.5 -29.5l-92 -71.5l-111.5 -84l-97.5 -72t-47.5 -32zM63 -20q-4 31 -4 393q61 10 151.5 12t102.5 -2q18 -55 54 -87t71 -32 q76 0 76 53q0 18 -8 34t-28.5 28t-37 20.5t-48.5 21.5t-48 19q-55 25 -94 48.5t-82 62.5t-65.5 98.5t-22.5 134.5q0 115 101.5 201t271.5 86q131 0 198 -59l13 71q205 6 292 -24q4 -2 -1 -84t-12 -175t-7 -106q-10 -8 -72.5 -6t-135.5 7t-73 10q-4 45 -36.5 67.5t-69.5 22.5 q-63 0 -64 -52q0 -18 28 -35.5t93.5 -44t93.5 -40.5q106 -49 181 -140.5t75 -216.5q0 -123 -100 -208t-238 -85q-193 0 -266 68q-2 -12 -4 -34.5t-4 -36.5l-2 -13z" />
<glyph glyph-name="Tcommaaccent" unicode="&#x162;" horiz-adv-x="1429" d="M283 -6q-2 4 1 143t5 142l63 5q63 5 125 13t62 16l-17 805l-170 -2q-10 -252 -10 -260q0 -2 -29.5 -3t-72.5 0t-86 3t-77 3t-36 1q-6 0 -7 135t4 275.5t15 152.5q10 10 329.5 25.5t636 25t318.5 5.5q2 -6 6.5 -306.5t2 -308.5t-136.5 -5t-138 9l-27 254q-141 -2 -151 -4 q-2 -8 0 -85t7 -201.5l10 -241.5t10 -204l4 -87q0 -2 54 -1t102 3t61 -2q6 -6 12 -142.5t0 -150.5t-438 -15t-432 3zM465 -317q-2 94 59.5 151t151.5 57q84 0 146.5 -58t76.5 -140q96 -567 -283 -635q-8 16 -21 57l-23 73l-9 32q125 11 165 112q31 78 -13 125q-21 23 -53 23 q-104 0 -148.5 51.5t-48.5 151.5z" />
<glyph glyph-name="tcommaaccent" unicode="&#x163;" horiz-adv-x="1032" d="M522 -45q-59 0 -107 13.5t-82 46t-57.5 63.5t-39 92t-23.5 101t-11 123t-4 127t-1 140v46q0 2 -36 2t-72 1t-38 3l4 301l148 16q23 238 22 242q25 16 117 31.5t172 21.5l80 6l12 -313l258 4q14 -203 -12 -301l-270 -14l-2 -169q8 -178 57 -178q29 0 66.5 16.5t61.5 32.5 l23 15l148 -295q-8 -6 -21.5 -18.5t-58.5 -42t-91 -53t-113 -42t-130 -18.5zM303 -317q-2 94 59.5 151t151.5 57q84 0 146.5 -58t76.5 -140q96 -567 -282 -635q-8 16 -21.5 57t-22.5 73l-10 32q125 11 166 112q31 78 -14 125q-21 23 -53 23q-104 0 -148.5 51.5t-48.5 151.5z " />
<glyph glyph-name="Tcaron" unicode="&#x164;" horiz-adv-x="1429" d="M715 1565q-4 -2 -112.5 68.5l-215.5 142.5l-106 71q141 211 174 228l237 -160l236 174q12 -2 33.5 -26.5t44 -59.5l43 -68.5l34.5 -57.5l15 -24q2 0 -35 -29.5l-92.5 -71.5l-111.5 -84l-97 -71.5t-47 -31.5zM283 -6q-2 4 1 143t5 142l63 5q63 5 125 13t62 16l-17 805 l-170 -2q-10 -252 -10 -260q0 -2 -29.5 -3t-72.5 0t-86 3t-77 3t-36 1q-6 0 -7 135t4 275.5t15 152.5q10 10 329.5 25.5t636 25t318.5 5.5q2 -6 6.5 -306.5t2 -308.5t-136.5 -5t-138 9l-27 254q-141 -2 -151 -4q-2 -8 0 -85t7 -201.5l10 -241.5t10 -204l4 -87q0 -2 54 -1 t102 3t61 -2q6 -6 12 -142.5t0 -150.5t-438 -15t-432 3z" />
<glyph glyph-name="tcaron" unicode="&#x165;" horiz-adv-x="1247" d="M965 891q-8 18 -21.5 59t-21.5 74l-9 33q120 11 164 108q33 75 -6 119q-18 20 -49 21q-100 0 -142 52t-46 156q-2 96 57 154.5t143 58.5q80 0 140.5 -60t72.5 -142q91 -561 -282 -633zM522 -45q-59 0 -107 13.5t-82 46t-57.5 63.5t-39 92t-23.5 101t-11 123t-4 127 t-1 140v46q0 2 -36 2t-72 1t-38 3l4 301l148 16q23 238 22 242q25 16 117 31.5t172 21.5l80 6l12 -313l258 4q14 -203 -12 -301l-270 -14l-2 -169q8 -178 57 -178q29 0 66.5 16.5t61.5 32.5l23 15l148 -295q-8 -6 -21.5 -18.5t-58.5 -42t-91 -53t-113 -42t-130 -18.5z" />
<glyph glyph-name="Tbar" unicode="&#x166;" horiz-adv-x="1429" d="M283 -6q-2 4 1 143t5 142l63 5q63 5 125 13t62 16q0 2 -1 31t-2 85t-1 110q-182 0 -187 2q-8 4 -2 80.5t12 80.5q74 -2 172 -2l-8 418l-170 -2q-10 -211 -10 -219q0 -2 -29.5 -3t-72.5 0t-86 3t-77 3t-36 1q-6 0 -7 125t4 255t15 142q10 10 329.5 25.5t636 25t318.5 5.5 q2 -6 6.5 -286t2 -288t-136.5 -5t-138 9l-27 213q-141 -2 -151 -4q-8 -2 12 -424q174 -4 174 -6q0 -6 -7 -69.5t-9 -67.5q-2 -2 -152 -6q2 -61 5.5 -122t5.5 -92l2 -32q0 -2 54 -1t102 3t61 -2q6 -6 12 -142.5t0 -150.5t-438 -15t-432 3z" />
<glyph glyph-name="tbar" unicode="&#x167;" horiz-adv-x="1032" d="M74 500q-8 4 -2 70.5t12 70.5h113v107q0 2 -36 2t-72 1t-38 3l4 260l148 16q23 238 22 242q25 16 117 31.5t172 21.5l80 6l12 -313l258 4q14 -162 -12 -260l-270 -14q-4 -47 -4 -107q166 0 165.5 -2t0.5 -30.5t2.5 -56.5t1.5 -30q-4 -4 -166 -10q12 -152 55 -152 q29 0 66.5 16.5t61.5 32.5l23 15l148 -295q-8 -6 -21.5 -18.5t-58.5 -42t-91 -53t-112.5 -42t-130.5 -18.5q-78 0 -135 29.5t-92 75.5t-56.5 120t-29.5 147.5t-10 172.5q-121 -4 -125 0z" />
<glyph glyph-name="Utilde" unicode="&#x168;" horiz-adv-x="1505" d="M313 1634q0 8 -1 21.5t2 51.5t12.5 73t31 78t53 73.5t85 51t122.5 20.5q63 0 126 -33t106 -66.5t63 -33.5q23 0 39.5 24.5t22.5 49.5l6 24q203 -16 252 -49q0 -8 -1 -20.5t-7 -49.5t-16.5 -70.5t-33 -74.5t-51 -70.5t-74.5 -50t-104 -20.5q-51 0 -100 21.5t-80 47 t-65.5 47t-61.5 21.5q-23 0 -35 -22.5t-18 -51.5t-11 -33q-12 -11 -262 41zM205 543l-4 571l-150 23l-12 280q-2 -2 159.5 4l325.5 12.5t164 4.5q2 -8 8 -152.5t0 -152.5l-110 -17q6 -532 6 -575q0 -70 43 -117t131 -47q86 0 129 42t43 113l-2 594h-121l-4 306 q35 12 188.5 14t289.5 -1l136 -3q12 -283 13 -287l-119 -35q2 -510 2 -600q0 -258 -143.5 -402.5t-413.5 -144.5q-264 0 -411.5 151t-147.5 419z" />
<glyph glyph-name="utilde" unicode="&#x169;" d="M184 1225q0 8 -1 21.5t2 51t12.5 72.5t31 78t53 73.5t85 51t122.5 20.5q63 0 126 -32.5t106 -66.5t63 -34q23 0 39.5 24.5t22.5 49.5l6 25q203 -16 252 -50q0 -8 -1 -20t-7 -49t-16.5 -71t-33 -75t-51 -70.5t-75 -50t-103.5 -20.5q-51 0 -100 21.5t-80 47t-65.5 47 t-61.5 21.5q-23 0 -35 -22.5t-18 -51t-11 -32.5q-12 -11 -262 41zM143 498l2 233l-86 8q-4 23 -8 56.5t-12 117.5t2 101l469 33q0 -137 2 -494q0 -207 145 -207q59 0 96.5 57.5t37.5 149.5l-3 145l-135 7l-16 290l508 39v-702q2 -2 64.5 -14.5t66.5 -12.5q2 0 2 -309 q0 -4 -96.5 -7t-192.5 -4l-96 -1l-35 90q-12 -10 -35.5 -27.5t-97.5 -45.5t-152 -28q-86 0 -156.5 23.5t-135 78t-101.5 162t-37 261.5z" />
<glyph glyph-name="Umacron" unicode="&#x16a;" horiz-adv-x="1505" d="M422 1595q-10 0 -8 141.5t8 145.5q10 4 356 12.5t352 -2.5q4 -12 -2 -146t-10 -134q-2 0 -345 -8.5t-351 -8.5zM205 543l-4 571l-150 23l-12 280q-2 -2 159.5 4l325.5 12.5t164 4.5q2 -8 8 -152.5t0 -152.5l-110 -17q6 -532 6 -575q0 -70 43 -117t131 -47q86 0 129 42 t43 113l-2 594h-121l-4 306q35 12 188.5 14t289.5 -1l136 -3q12 -283 13 -287l-119 -35q2 -510 2 -600q0 -258 -143.5 -402.5t-413.5 -144.5q-264 0 -411.5 151t-147.5 419z" />
<glyph glyph-name="umacron" unicode="&#x16b;" d="M293 1186q-10 0 -8 141t8 146q10 4 356 12t352 -2q4 -12 -2 -146.5t-10 -134.5q-2 0 -345 -8t-351 -8zM143 498l2 233l-86 8q-4 23 -8 56.5t-12 117.5t2 101l469 33q0 -137 2 -494q0 -207 145 -207q59 0 96.5 57.5t37.5 149.5l-3 145l-135 7l-16 290l508 39v-702 q2 -2 64.5 -14.5t66.5 -12.5q2 0 2 -309q0 -4 -96.5 -7t-192.5 -4l-96 -1l-35 90q-12 -10 -35.5 -27.5t-97.5 -45.5t-152 -28q-86 0 -156.5 23.5t-135 78t-101.5 162t-37 261.5z" />
<glyph glyph-name="Ubreve" unicode="&#x16c;" horiz-adv-x="1505" d="M764 1536q-324 0 -324 360q100 20 211 0q0 -53 36 -91t91 -38q53 0 88 35t35 88q25 12 108 15.5t95 -4.5q0 -68 -18.5 -130.5t-56.5 -117t-106.5 -86t-158.5 -31.5zM205 543l-4 571l-150 23l-12 280q-2 -2 159.5 4l325.5 12.5t164 4.5q2 -8 8 -152.5t0 -152.5l-110 -17 q6 -532 6 -575q0 -70 43 -117t131 -47q86 0 129 42t43 113l-2 594h-121l-4 306q35 12 188.5 14t289.5 -1l136 -3q12 -283 13 -287l-119 -35q2 -510 2 -600q0 -258 -143.5 -402.5t-413.5 -144.5q-264 0 -411.5 151t-147.5 419z" />
<glyph glyph-name="ubreve" unicode="&#x16d;" d="M635 1147q-324 0 -324 360q100 20 211 0q0 -53 36 -91t91 -38q53 0 88 35t35 88q25 12 108 15.5t95 -5.5q0 -68 -18.5 -130t-56.5 -116.5t-106.5 -86t-158.5 -31.5zM143 498l2 233l-86 8q-4 23 -8 56.5t-12 117.5t2 101l469 33q0 -137 2 -494q0 -207 145 -207 q59 0 96.5 57.5t37.5 149.5l-3 145l-135 7l-16 290l508 39v-702q2 -2 64.5 -14.5t66.5 -12.5q2 0 2 -309q0 -4 -96.5 -7t-192.5 -4l-96 -1l-35 90q-12 -10 -35.5 -27.5t-97.5 -45.5t-152 -28q-86 0 -156.5 23.5t-135 78t-101.5 162t-37 261.5z" />
<glyph glyph-name="Uring" unicode="&#x16e;" horiz-adv-x="1505" d="M780 1530q-285 0 -284 280q0 137 78.5 202t205.5 65q119 0 194 -72t75 -197q0 -117 -68 -197.5t-201 -80.5zM780 1702q80 0 80 90q0 39 -20.5 68.5t-59.5 29.5q-86 0 -86 -98q0 -41 27.5 -65.5t58.5 -24.5zM205 543l-4 571l-150 23l-12 280q-2 -2 159.5 4l325.5 12.5 t164 4.5q2 -8 8 -152.5t0 -152.5l-110 -17q6 -532 6 -575q0 -70 43 -117t131 -47q86 0 129 42t43 113l-2 594h-121l-4 306q35 12 188.5 14t289.5 -1l136 -3q12 -283 13 -287l-119 -35q2 -510 2 -600q0 -258 -143.5 -402.5t-413.5 -144.5q-264 0 -411.5 151t-147.5 419z" />
<glyph glyph-name="uring" unicode="&#x16f;" d="M651 1141q-285 0 -284 280q0 137 78.5 202t205.5 65q119 0 194 -72t75 -197q0 -117 -68 -197.5t-201 -80.5zM651 1313q80 0 80 90q0 39 -20.5 68.5t-59.5 29.5q-86 0 -86 -98q0 -41 27.5 -65.5t58.5 -24.5zM143 498l2 233l-86 8q-4 23 -8 56.5t-12 117.5t2 101l469 33 q0 -137 2 -494q0 -207 145 -207q59 0 96.5 57.5t37.5 149.5l-3 145l-135 7l-16 290l508 39v-702q2 -2 64.5 -14.5t66.5 -12.5q2 0 2 -309q0 -4 -96.5 -7t-192.5 -4l-96 -1l-35 90q-12 -10 -35.5 -27.5t-97.5 -45.5t-152 -28q-86 0 -156.5 23.5t-135 78t-101.5 162t-37 261.5 z" />
<glyph glyph-name="Uhungarumlaut" unicode="&#x170;" horiz-adv-x="1505" d="M870 1604q-2 6 70 240.5t76 238.5q-4 2 75.5 -10.5l160.5 -26.5t79 -16l-260 -467q-197 33 -201 41zM459 1610q-4 4 16.5 116.5l42.5 222.5l23 109q23 8 101.5 -2t147 -23.5t68.5 -15.5t-111.5 -229t-113.5 -227q-6 0 -87 21.5t-87 27.5zM205 543l-4 571l-150 23l-12 280 q-2 -2 159.5 4l325.5 12.5t164 4.5q2 -8 8 -152.5t0 -152.5l-110 -17q6 -532 6 -575q0 -70 43 -117t131 -47q86 0 129 42t43 113l-2 594h-121l-4 306q35 12 188.5 14t289.5 -1l136 -3q12 -283 13 -287l-119 -35q2 -510 2 -600q0 -258 -143.5 -402.5t-413.5 -144.5 q-264 0 -411.5 151t-147.5 419z" />
<glyph glyph-name="uhungarumlaut" unicode="&#x171;" d="M741 1194q-2 6 70 240.5t76 238.5q-4 2 75.5 -10t160.5 -26.5t79 -16.5l-260 -467q-197 33 -201 41zM330 1200q-4 4 16.5 117t42.5 222l23 110q23 8 101.5 -2.5t147 -23.5t68.5 -15t-111.5 -229.5t-113.5 -227.5q-6 0 -87 21.5t-87 27.5zM143 498l2 233l-86 8 q-4 23 -8 56.5t-12 117.5t2 101l469 33q0 -137 2 -494q0 -207 145 -207q59 0 96.5 57.5t37.5 149.5l-3 145l-135 7l-16 290l508 39v-702q2 -2 64.5 -14.5t66.5 -12.5q2 0 2 -309q0 -4 -96.5 -7t-192.5 -4l-96 -1l-35 90q-12 -10 -35.5 -27.5t-97.5 -45.5t-152 -28 q-86 0 -156.5 23.5t-135 78t-101.5 162t-37 261.5z" />
<glyph glyph-name="Uogonek" unicode="&#x172;" horiz-adv-x="1505" d="M205 543l-4 571l-150 23l-12 280q-2 -2 159.5 4l325.5 12.5t164 4.5q2 -8 8 -152.5t0 -152.5l-110 -17q6 -532 6 -575q0 -70 43 -117t131 -47q86 0 129 42t43 113l-2 594h-121l-4 306q35 12 188.5 14t289.5 -1l136 -3q12 -283 13 -287l-119 -35q2 -510 2 -600 q0 -213 -100.5 -351t-292.5 -179q-90 -115 -90 -228q0 -39 30.5 -66.5t61.5 -35.5l31 -8q6 -2 -20 -85t-30 -83q-25 -4 -74 4t-114.5 29.5t-112.5 80t-47 144.5q0 141 119 235q-227 20 -352 169t-125 397z" />
<glyph glyph-name="uogonek" unicode="&#x173;" d="M143 498l2 233l-86 8q-4 23 -8 56.5t-12 117.5t2 101l469 33q0 -137 2 -494q0 -207 145 -207q59 0 96.5 57.5t37.5 149.5l-3 145l-135 7l-16 290l508 39v-702q2 -2 64.5 -14.5t66.5 -12.5q2 0 2 -309q0 -2 -61 -6q-90 -113 -91 -228q0 -39 31 -66.5t62 -35.5l30 -8 q6 -2 -19.5 -85t-29.5 -83q-25 -4 -74 4t-114.5 29.5t-112.5 80t-47 144.5q0 147 129 242h-88l-35 90q-12 -10 -35.5 -27.5t-97.5 -45.5t-152 -28q-86 0 -156.5 23.5t-135 78t-101.5 162t-37 261.5z" />
<glyph glyph-name="Wcircumflex" unicode="&#x174;" horiz-adv-x="1998" d="M766 1561q-12 2 -33.5 26.5t-44 59l-43 68.5l-35.5 58l-14 23q-2 0 35 29.5l92 71.5l111.5 84l97.5 72t47 32q4 2 112.5 -68.5l215.5 -142.5l106 -72q-141 -211 -174 -227l-238 160zM494 -4q-10 4 -150.5 557t-144.5 557q-6 10 -65.5 18.5t-80.5 8.5q-6 0 0 68.5 t15.5 139t9.5 66.5q670 10 676 10q2 0 3 -75.5t0 -142t1 -83.5q0 -2 -11.5 -4t-30 -3t-39 -2l-40 -2t-30.5 -1h-15q-2 0 25.5 -109.5t59.5 -219t34 -107.5t47 113.5l90 223.5l45 111q199 0 215 -8q2 0 63.5 -117.5l122 -232.5t60.5 -111q0 2 21.5 117l43 227.5t19.5 112.5 q-199 0 -211 6q-4 2 -6 149.5t0 151.5q4 6 729 6q4 0 5 -77.5t1 -154.5v-77q-131 -10 -133 -10l-267 -1106q-283 -4 -290 -4q-4 0 -132 271.5t-132.5 271.5t-67 -136.5l-123.5 -272.5l-61 -136q-240 0 -256 6z" />
<glyph glyph-name="wcircumflex" unicode="&#x175;" horiz-adv-x="1998" d="M766 1159q-12 2 -33.5 26.5t-44 59.5l-43 69l-35.5 57l-14 24q-2 0 35 29.5l92 71.5l111.5 84l97.5 71.5t47 31.5q4 2 112.5 -68.5l215.5 -141.5l106 -72q-141 -211 -174 -227l-238 159zM469 -6q-250 596 -281 764l-129 6q-4 23 -8 55.5t-13 116.5t1 100l612 -6l11 -268 l-109 -4l109 -250l245 434l187 -6l272 -432l98 248l-116 6l2 272q2 2 36.5 3t89 2t118 1h128t116.5 -1t86 -1t32 0q2 -16 4 -42.5t6 -99.5t4 -130l-123 -8q-203 -580 -327 -766q-166 -14 -252 6l-279 446l-248 -452q-186 -14 -272 6z" />
<glyph glyph-name="Ycircumflex" unicode="&#x176;" horiz-adv-x="1437" d="M492 1561q-12 2 -34 26.5t-44.5 59l-43 68.5l-34.5 58l-14 23q-2 0 34.5 29.5l92 71.5l111.5 84l97 72t48 32q4 2 112.5 -68.5l214.5 -142.5l107 -72q-141 -211 -174 -227l-238 160zM410 -14q-4 2 -6.5 141t-0.5 141q2 0 37 4t69 9.5t34 7.5v395q0 4 -77 108.5l-155 205 t-80 98.5t-40.5 3l-77.5 10t-39 7q0 311 2 320l602 -11l22 -280q-2 -4 -98 -4l35 -40l71 -81l35 -41q8 10 23.5 27.5t45.5 54.5l49.5 62.5t17.5 27.5t-82 2q-6 2 -4 142.5t4 142.5t276.5 -3t284.5 -9.5t19 -139.5t5 -139q-6 -6 -125 -6l-346 -463q6 -362 7 -383 q0 -8 28.5 -10t60 -2t35.5 -4q6 -8 7 -275q0 -6 -317.5 -13t-321.5 -5z" />
<glyph glyph-name="ycircumflex" unicode="&#x177;" horiz-adv-x="1419" d="M459 1159q-12 2 -34 26.5t-44.5 59.5l-43 69l-34.5 57l-14 24q-2 0 34.5 29.5l92 71.5l112 84l97.5 71.5t47 31.5q4 2 112.5 -68.5l214.5 -141.5l107 -72q-141 -211 -174 -227l-238 159zM205 -352q-6 0 68.5 118.5l150.5 238.5t72 120q-287 471 -318 639l-112 6 q-4 23 -8.5 54.5t-13.5 113.5t1 98l612 2l11 -270l-115 -4l156 -289l147 283l-102 6l-4 266q2 2 64.5 3t148.5 -1l171 -4t145 -4t58 -2q2 -14 4 -40t6.5 -95.5t4.5 -126.5l-113 -6q-555 -1094 -680 -1280q-12 2 -31.5 7t-73 20.5t-97.5 35t-89 49t-63 62.5z" />
<glyph glyph-name="Ydieresis" unicode="&#x178;" horiz-adv-x="1437" d="M1014 1567q-100 0 -154.5 53t-58.5 147q-2 92 54 148.5t136 56.5t141.5 -59.5t61.5 -134.5q0 -90 -44 -150.5t-136 -60.5zM479 1567q-100 0 -154.5 53t-58.5 147q-2 92 53.5 148.5t135.5 56.5t142 -59.5t62 -134.5q0 -90 -44 -150.5t-136 -60.5zM410 -14q-4 2 -6.5 141 t-0.5 141q2 0 37 4t69 9.5t34 7.5v395q0 4 -77 108.5l-155 205t-80 98.5t-40.5 3l-77.5 10t-39 7v29v70.5t1 86t1 82v52.5l602 -11l22 -280q-2 -4 -98 -4l35 -40l71 -81l35 -41q8 10 23.5 27.5t45.5 54.5l49.5 62.5t17.5 27.5t-82 2q-6 2 -4 142.5t4 142.5t276.5 -3 t284.5 -9.5t19 -139.5t5 -139q-6 -6 -125 -6l-346 -463q6 -362 7 -383q0 -8 28.5 -10t60 -2t35.5 -4q6 -8 7 -275q0 -6 -317.5 -13t-321.5 -5z" />
<glyph glyph-name="Zacute" unicode="&#x179;" horiz-adv-x="1314" d="M422 1556q-14 8 -45 70t-53 120l-23 58l569 230q24 9 25 8q8 -2 41 -76t60.5 -146.5t23.5 -74.5q-586 -195 -598 -189zM129 10q-2 0 -14.5 81l-24.5 163t-10 84q0 2 173 204.5l341 403.5t164 201q-266 0 -283 -10l-41 -181q-260 16 -280 27q-12 10 -12.5 229.5t3.5 223.5 q1067 2 1067 -6q0 -2 10.5 -77t18.5 -146.5t4 -74t-164.5 -200l-318.5 -395t-156 -197.5q18 0 176 8t160 12q2 2 10.5 58.5l17.5 112t11 55.5q39 0 145.5 -6.5t114.5 -18.5q6 -29 4 -151.5t-8 -261.5l-6 -138h-1102z" />
<glyph glyph-name="zacute" unicode="&#x17a;" horiz-adv-x="1173" d="M338 1167q-14 8 -45 69.5t-53 120.5l-23 58l569 230q24 9 25 8q8 -2 41 -76t60.5 -146.5t23.5 -74.5q-586 -195 -598 -189zM115 2q-2 0 -28 135t-24 137q0 2 135.5 129l268.5 253t129 126q-2 0 -50 5.5t-93 9.5t-47 2l-23 -131q-289 20 -305 28q-6 14 -5 90t6 163l5 87 q940 0 940 -6q0 -2 11.5 -68.5t21.5 -132t8 -65.5q-2 -2 -55.5 -49l-127 -116l-147 -136.5l-125 -114.5t-49.5 -47l34 -1q34 -1 72 -2t71.5 -2t33.5 1t2 32.5l4 60.5t4 30q297 0 310 -19q6 -20 4 -109t-7 -190l-6 -100h-968z" />
<glyph glyph-name="Zdotaccent" unicode="&#x17b;" horiz-adv-x="1314" d="M680 1567q-100 0 -154.5 53t-58.5 147q-2 92 53 148.5t135 56.5t142.5 -59.5t62.5 -134.5q0 -90 -44 -150.5t-136 -60.5zM129 10q-2 0 -14.5 81l-24.5 163t-10 84q0 2 173 204.5l341 403.5t164 201q-266 0 -283 -10l-41 -181q-260 16 -280 27q-12 10 -12.5 229.5 t3.5 223.5q1067 2 1067 -6q0 -2 10.5 -77t18.5 -146.5t4 -74t-164.5 -200l-318.5 -395t-156 -197.5q18 0 176 8t160 12q2 2 10.5 58.5l17.5 112t11 55.5q39 0 145.5 -6.5t114.5 -18.5q6 -29 4 -151.5t-8 -261.5l-6 -138h-1102z" />
<glyph glyph-name="zdotaccent" unicode="&#x17c;" horiz-adv-x="1173" d="M596 1159q-100 0 -154.5 53.5t-58.5 147.5q-2 92 53.5 148.5t135 56.5t142 -59.5t62.5 -135.5q0 -90 -44 -150.5t-136 -60.5zM115 2q-2 0 -28 135t-24 137q0 2 135.5 129l268.5 253t129 126q-2 0 -50 5.5t-93 9.5t-47 2l-23 -131q-289 20 -305 28q-6 14 -5 90t6 163l5 87 q940 0 940 -6q0 -2 11.5 -68.5t21.5 -132t8 -65.5q-2 -2 -55.5 -49l-127 -116l-147 -136.5l-125 -114.5t-49.5 -47l34 -1q34 -1 72 -2t71.5 -2t33.5 1t2 32.5l4 60.5t4 30q297 0 310 -19q6 -20 4 -109t-7 -190l-6 -100h-968z" />
<glyph glyph-name="Zcaron" unicode="&#x17d;" horiz-adv-x="1314" d="M686 1565q-4 -2 -112.5 68.5l-215.5 142.5l-106 71q141 211 174 228l238 -160l235 174q12 -2 33.5 -26.5t44 -59.5l43 -68.5l35.5 -57.5l14 -24q2 0 -35 -29.5l-92 -71.5l-111.5 -84l-97.5 -71.5t-47 -31.5zM129 10q-2 0 -14.5 81l-24.5 163t-10 84q0 2 173 204.5 l341 403.5t164 201q-266 0 -283 -10l-41 -181q-260 16 -280 27q-12 10 -12.5 229.5t3.5 223.5q1067 2 1067 -6q0 -2 10.5 -77t18.5 -146.5t4 -74t-164.5 -200l-318.5 -395t-156 -197.5q18 0 176 8t160 12q2 2 10.5 58.5l17.5 112t11 55.5q39 0 145.5 -6.5t114.5 -18.5 q6 -29 4 -151.5t-8 -261.5l-6 -138h-1102z" />
<glyph glyph-name="zcaron" unicode="&#x17e;" horiz-adv-x="1173" d="M602 1163q-4 -2 -112.5 69l-215.5 142l-106 72q141 211 174 227l238 -160l235 175q12 -2 33.5 -27t44 -59.5l43 -68.5l35.5 -57l14 -24q2 0 -35 -29.5l-92 -71.5l-111.5 -84l-97.5 -72t-47 -32zM115 2q-2 0 -28 135t-24 137q0 2 135.5 129l268.5 253t129 126 q-2 0 -50 5.5t-93 9.5t-47 2l-23 -131q-289 20 -305 28q-6 14 -5 90t6 163l5 87q940 0 940 -6q0 -2 11.5 -68.5t21.5 -132t8 -65.5q-2 -2 -55.5 -49l-127 -116l-147 -136.5l-125 -114.5t-49.5 -47l34 -1q34 -1 72 -2t71.5 -2t33.5 1t2 32.5l4 60.5t4 30q297 0 310 -19 q6 -20 4 -109t-7 -190l-6 -100h-968z" />
<glyph glyph-name="florin" unicode="&#x192;" horiz-adv-x="919" d="M-86 -66q70 -47 127 -47q43 0 61.5 18.5t28.5 74t20.5 138.5l31 251l40.5 327l-157 -2q29 297 32 301q2 2 43 3t81 1t40 2q34 213 95 322q106 188 302 188q63 0 123 -13t101 -32.5t71.5 -40t45.5 -33.5l16 -14l-137 -270q-74 47 -148 47q-39 0 -64.5 -39t-31.5 -77 l-6 -38l243 -14q6 -55 1 -121.5t-15 -123.5l-10 -56l-252 4q-55 -539 -86 -753q-61 -426 -406 -426q-98 0 -189 33.5t-133 66.5l-42 33q10 55 54 127.5t82 117.5z" />
<glyph glyph-name="Aringacute" unicode="&#x1fa;" horiz-adv-x="1435" d="M645 1530q-285 0 -285 235q0 90 50 146l-64 141l569 230q24 9 25 8q8 -2 36 -60.5t50.5 -116t17.5 -59.5l-268 -88q137 -53 137 -201q0 -98 -67.5 -166.5t-200.5 -68.5zM645 1675q80 0 80 76q0 33 -20.5 57.5t-59.5 24.5q-45 0 -65.5 -23.5t-20.5 -58.5t27.5 -55.5 t58.5 -20.5zM82 -25q-12 27 -19.5 101t-8.5 134l-1 60l135 33q41 225 104.5 508t106.5 453l43 170q49 12 141.5 9t183.5 -12l91 -10l399 -1128h119v-301l-499 -18q-68 0 -74 3q-14 10 -26.5 149.5t-2.5 143.5l105 6l-56 166l-276 4l-27 -135l139 -18q2 -18 4.5 -45 t7.5 -99.5t5 -99v-45.5zM582 698l182 11l-102 266z" />
<glyph glyph-name="aringacute" unicode="&#x1fb;" d="M707 1141q-285 0 -285 235q0 90 49 146l-63 141l568 230q24 9 25 8q8 -2 36 -60.5t50.5 -116t18.5 -59.5l-268 -88q137 -53 137 -201q0 -98 -67.5 -166.5t-200.5 -68.5zM707 1286q80 0 79 76q0 33 -20.5 57.5t-58.5 24.5q-45 0 -65.5 -23.5t-20.5 -58.5t27.5 -55.5 t58.5 -20.5zM498 -18q-78 0 -152 27.5t-144.5 86t-113.5 171t-43 261.5q0 139 41 241.5t110.5 157t146.5 80t161 25.5q78 0 153.5 -25.5t112.5 -51.5l37 -25v102q109 4 217.5 6t216.5 -2q0 -4 3 -72.5l6 -134.5l3 -65q-4 0 -76.5 -16.5t-74.5 -18.5l4 -432q170 0 172 -12 q4 -10 3 -148.5t-7 -138.5q-35 0 -250 5t-215 9l-21 105l-10 -15.5t-31.5 -32t-56.5 -41t-82 -32.5t-110 -14zM569 328q70 0 115 52t45 138q0 82 -44 140.5t-107 58.5q-78 0 -124 -51.5t-46 -143.5q0 -86 49 -140t112 -54z" />
<glyph glyph-name="AEacute" unicode="&#x1fc;" horiz-adv-x="1976" d="M958 1556q-14 8 -44.5 70t-53.5 120l-22 58l568 230q24 9 26 8q8 -2 40.5 -76t60.5 -146.5t23 -74.5q-586 -195 -598 -189zM82 -25q-12 27 -19.5 101t-8.5 134l-1 60l135 33l357.5 751t210.5 392q2 6 274.5 9t543.5 2l271 -1q8 -12 14.5 -38.5t8.5 -61.5t3 -77t0 -83 t-3 -81t-4 -69.5t-3 -49.5l-1 -19q0 -4 -140.5 -6t-154.5 0q-6 0 -12.5 36.5t-9.5 75.5t-3 41q-2 4 -115.5 6.5t-117.5 -2t-2 -119t6 -116.5q2 0 55 -2t104.5 -5t51.5 -5t2 -32t4 -70t3 -83t2 -68.5t-1 -29.5q-2 0 -59.5 -3t-112.5 -7t-57 -6q-4 -6 -5 -269q8 -4 63.5 -3 t120 6.5t64.5 7.5q0 4 29 109.5t29 107.5t82.5 -6.5t166.5 -18.5t84 -12q0 -10 -19.5 -263t-21.5 -255q-2 0 -105 -2l-236.5 -4.5t-282 -3.5t-276.5 3.5t-183 14.5q0 283 10 305q10 10 115 10l-4 133l-305 4l-47 -135l98 -18q2 -18 4 -45t7 -99.5t5 -99v-45.5zM729 717 l199 -8v401z" />
<glyph glyph-name="aeacute" unicode="&#x1fd;" horiz-adv-x="1685" d="M590 1167q-14 8 -45 69.5t-53 120.5l-23 58l569 230q24 9 25 8q8 -2 41 -76t60.5 -146.5t23.5 -74.5q-586 -195 -598 -189zM39 301q0 111 53 187.5t141.5 109.5t176.5 44t180 3q4 39 -32 68.5t-109 29.5q-51 0 -114 -13t-99 -27l-37 -13q-20 45 -45 113.5t-38 115.5 l-14 46q14 10 41 26.5t121 44t201 27.5q113 0 210 -41t140 -98q133 145 367 145q168 0 306 -109.5t144 -189.5l-55 -209l-395 -217q31 -37 362 -37q-2 -59 -13 -142t-22 -135l-10 -53q-420 -31 -637 150q-25 -23 -78 -53.5t-159.5 -65.5t-210.5 -35q-188 0 -281.5 89 t-93.5 239zM1024 584l250 153q-6 18 -33 36t-55 18q-100 0 -146.5 -68.5t-15.5 -138.5zM420 313q8 -49 78.5 -46t126.5 50q8 74 0 121q-82 0 -147.5 -34t-57.5 -91z" />
<glyph glyph-name="Oslashacute" unicode="&#x1fe;" horiz-adv-x="1488" d="M514 1556q-14 8 -45 70t-53 120l-23 58l569 230q24 9 25 8q8 -2 41 -76t60.5 -146.5t23.5 -74.5q-586 -195 -598 -189zM250 -55q0 4 76 141q-264 188 -265 645q0 197 54.5 343.5t154 230.5t222 123.5t272.5 39.5q162 0 295 -61l63 106q14 4 55.5 -15t75 -40.5t33.5 -23.5 l-76 -131q219 -199 220 -576q0 -150 -40 -284t-118 -243.5t-208 -173t-298 -63.5q-164 0 -299 49l-76 -133l-113 43q-31 15 -28 23zM545 487l319 574q-49 27 -104 26q-274 0 -275 -376q1 -138 60 -224zM682 385q40 -12 80 -12q106 0 172.5 81t66.5 259q0 100 -22 186z" />
<glyph glyph-name="oslashacute" unicode="&#x1ff;" horiz-adv-x="1124" d="M317 1167q-14 8 -44.5 69.5t-53.5 120.5l-22 58l568 230q24 9 26 8q8 -2 40.5 -76t60.5 -146.5t23 -74.5q-586 -195 -598 -189zM160 -80q0 6 71 135q-190 137 -190 461q0 279 146.5 407t383.5 128q104 0 197 -35q63 111 72 119q8 2 40.5 -14.5t61.5 -34.5l29 -17 l-74 -129q176 -145 176 -428q0 -231 -127 -392t-373 -161q-123 0 -223 35l-76 -131l-97 42q-18 10 -17 15zM406 365l200 358q-6 2 -18 2q-106 0 -154.5 -72.5t-48.5 -181.5q1 -49 21 -106zM508 285q25 -6 53 -6q76 0 124 59t48 172q0 63 -20 129z" />
<glyph glyph-name="Scommaaccent" unicode="&#x218;" horiz-adv-x="1161" d="M63 -16q-4 45 -4 520q213 47 322 31q27 -98 80 -155.5t106 -57.5q47 0 80 24.5t33 69.5q0 33 -13.5 60.5t-43 50t-53 37t-71.5 38l-73 35.5q-86 45 -136 79t-108.5 92t-86 138t-27.5 184q0 158 120.5 263.5t321.5 105.5q150 0 227 -82l15 99q213 8 313 -35 q4 -2 -2 -102.5t-14.5 -219.5t-8.5 -143q0 -14 -79.5 -20.5t-159.5 -5.5t-80 5q-6 82 -48 123t-95 41q-39 0 -76 -23.5t-37 -76.5q0 -33 37 -61.5t130 -74.5t138 -73q82 -47 132 -84t102.5 -93.5t77 -128t24.5 -161.5q0 -170 -124 -288t-282 -118q-217 0 -317 115 q-2 -18 -4 -51t-4 -54l-2 -22zM356 -317q-2 94 59.5 151t151.5 57q84 0 146.5 -58t77.5 -140q96 -567 -283 -635q-8 16 -21.5 57t-22.5 73l-9 32q125 11 165 112q31 78 -13 125q-21 23 -54 23q-104 0 -148.5 51.5t-48.5 151.5z" />
<glyph glyph-name="scommaaccent" unicode="&#x219;" horiz-adv-x="1024" d="M63 -20q-4 31 -4 393q61 10 151.5 12t102.5 -2q18 -55 54 -87t71 -32q76 0 76 53q0 18 -8 34t-28.5 28t-37 20.5t-48.5 21.5t-48 19q-55 25 -94 48.5t-82 62.5t-65.5 98.5t-22.5 134.5q0 115 101.5 201t271.5 86q131 0 198 -59l13 71q205 6 292 -24q4 -2 -1 -84t-12 -175 t-7 -106q-10 -8 -72.5 -6t-135.5 7t-73 10q-4 45 -36.5 67.5t-69.5 22.5q-63 0 -64 -52q0 -18 28 -35.5t93.5 -44t93.5 -40.5q106 -49 181 -140.5t75 -216.5q0 -123 -100 -208t-238 -85q-193 0 -266 68q-2 -12 -4 -34.5t-4 -36.5l-2 -13zM283 -317q-2 94 59 151t152 57 q84 0 146 -58t77 -140q96 -567 -283 -635q-8 16 -21.5 57t-22.5 73l-9 32q125 11 165 112q31 78 -13 125q-21 23 -54 23q-104 0 -148 51.5t-48 151.5z" />
<glyph glyph-name="uni021A" unicode="&#x21a;" horiz-adv-x="1433" d="M285 -6q-2 4 1 143t5 142l63 5q63 5 125 13t62 16l-17 805l-170 -2q-10 -252 -10 -260q0 -2 -29.5 -3t-72.5 0t-86 3t-77 3t-36 1q-6 0 -7 135t4 275.5t15 152.5q10 10 330 25.5t636 25t318 5.5q2 -6 6.5 -306.5t2.5 -308.5t-136.5 -5t-138.5 9l-26 254q-141 -2 -152 -4 q-2 -8 0 -85t7 -201.5t10.5 -241.5l9.5 -204l4 -87q0 -2 54 -1t102 3t61 -2q6 -6 12 -142.5t0 -150.5t-438 -15t-432 3zM467 -317q-2 94 59.5 151t151.5 57q84 0 146.5 -58t76.5 -140q96 -567 -283 -635q-8 16 -21 57l-23 73l-9 32q125 11 165 112q31 78 -13 125 q-21 23 -53 23q-104 0 -148.5 51.5t-48.5 151.5z" />
<glyph glyph-name="uni021B" unicode="&#x21b;" horiz-adv-x="1032" d="M522 -45q-59 0 -107 13.5t-82 46t-57.5 63.5t-39 92t-23.5 101t-11 123t-4 127t-1 140v46q0 2 -36 2t-72 1t-38 3l4 301l148 16q23 238 22 242q25 16 117 31.5t172 21.5l80 6l12 -313l258 4q14 -203 -12 -301l-270 -14l-2 -169q8 -178 57 -178q29 0 66.5 16.5t61.5 32.5 l23 15l148 -295q-8 -6 -21.5 -18.5t-58.5 -42t-91 -53t-113 -42t-130 -18.5zM303 -317q-2 94 59.5 151t151.5 57q84 0 146.5 -58t76.5 -140q96 -567 -282 -635q-8 16 -21.5 57t-22.5 73l-10 32q125 11 166 112q31 78 -14 125q-21 23 -53 23q-104 0 -148.5 51.5t-48.5 151.5z " />
<glyph glyph-name="uni0237" unicode="&#x237;" horiz-adv-x="677" d="M51 -102q43 -41 121 -41q86 0 86 129q0 135 -20.5 353t-38.5 298l-138 18l-10 342q492 4 500 -10q27 -51 51.5 -393t24.5 -596q0 -63 -6.5 -121.5t-30 -132.5t-63.5 -127t-112.5 -91t-168.5 -38q-100 0 -190.5 33t-131.5 66l-41 34z" />
<glyph glyph-name="circumflex" unicode="&#x2c6;" horiz-adv-x="1024" d="M274 1159q-12 2 -33.5 26.5t-44 59.5l-43 69l-34.5 57l-15 24q-2 0 35 29.5l92.5 71.5l111.5 84l97 71.5t47 31.5q4 2 113 -68.5l215 -141.5l107 -72q-141 -211 -174 -227l-238 159z" />
<glyph glyph-name="caron" unicode="&#x2c7;" horiz-adv-x="1024" d="M537 1163q-4 -2 -113 69l-215 142l-107 72q141 211 174 227l238 -160l236 175q12 -2 33.5 -27t44 -59.5l43 -68.5l34.5 -57l15 -24q2 0 -35 -29.5l-92.5 -71.5l-111.5 -84l-97 -72t-47 -32z" />
<glyph glyph-name="breve" unicode="&#x2d8;" horiz-adv-x="868" d="M426 1147q-324 0 -324 360q100 20 211 0q0 -53 36 -91t91 -38q53 0 88 35t35 88q25 12 108 15.5t95 -5.5q0 -68 -18.5 -130t-56.5 -116.5t-106.5 -86t-158.5 -31.5z" />
<glyph glyph-name="dotaccent" unicode="&#x2d9;" horiz-adv-x="600" d="M317 1159q-100 0 -154 53.5t-59 147.5q-2 92 53.5 148.5t135.5 56.5t142.5 -59.5t62.5 -135.5q0 -90 -44.5 -150.5t-136.5 -60.5z" />
<glyph glyph-name="ring" unicode="&#x2da;" horiz-adv-x="757" d="M387 1141q-285 0 -285 280q0 137 79 202t206 65q119 0 193.5 -72t74.5 -197q0 -117 -67.5 -197.5t-200.5 -80.5zM387 1313q80 0 80 90q0 39 -20.5 68.5t-59.5 29.5q-86 0 -86 -98q0 -41 27.5 -65.5t58.5 -24.5z" />
<glyph glyph-name="ogonek" unicode="&#x2db;" horiz-adv-x="604" d="M102 -258q0 55 18.5 103.5t45.5 78t53.5 51t44.5 30.5l19 9q37 10 112.5 12.5t91.5 -12.5q-12 -14 -30.5 -37.5t-49 -90t-30.5 -124.5q0 -39 30.5 -66.5t61.5 -35.5l31 -8q6 -2 -19.5 -85t-29.5 -83q-25 -4 -74 4t-114.5 29.5t-113 80t-47.5 144.5z" />
<glyph glyph-name="tilde" unicode="&#x2dc;" horiz-adv-x="1126" d="M104 1225q0 8 -1 21.5t2.5 51t12.5 72.5t30.5 78t53 73.5t85 51t123.5 20.5q63 0 125.5 -32.5t105.5 -66.5t64 -34q23 0 39 24.5t22 49.5l6 25q203 -16 252 -50q0 -8 -1 -20t-7 -49t-16.5 -71t-33 -75t-51 -70.5t-74.5 -50t-104 -20.5q-51 0 -100 21.5t-80 47t-65.5 47 t-61.5 21.5q-23 0 -35 -22.5t-18 -51t-10 -32.5q-13 -11 -263 41z" />
<glyph glyph-name="hungarumlaut" unicode="&#x2dd;" horiz-adv-x="1081" d="M639 1194q-2 6 69.5 240.5t75.5 238.5q-4 2 76 -10t161 -26.5t79 -16.5l-260 -467q-197 33 -201 41zM401 1151q-6 0 -87 21.5t-87 27.5q-4 4 16.5 117t43.5 222l22 110q23 8 101.5 -2.5t147.5 -23.5t69 -15t-112 -229.5t-114 -227.5z" />
<glyph glyph-name="Delta" unicode="&#x394;" horiz-adv-x="1511" d="M84 14q0 4 281.5 786.5t283.5 782.5l68 4q-2 -4 362.5 -780t347.5 -807q-4 -6 -79.5 -12t-195.5 -9.5t-263.5 -5.5t-285.5 0t-260 6.5t-189.5 13.5t-69.5 21zM463 250q6 -4 222 -2t216 8q0 4 -63.5 129l-129 255t-69.5 140l-45 -131l-89 -263t-42 -136z" />
<glyph glyph-name="Omega" unicode="&#x3a9;" horiz-adv-x="1644" d="M727 -4l-608 -14q-16 16 -25.5 95t-10.5 149l-1 71l233 16q-8 8 -21 24.5t-49 68t-62.5 105.5t-48 135t-21.5 161q0 319 212 498.5t509 179.5q362 0 544.5 -177.5t182.5 -465.5q0 -84 -25 -168t-59.5 -143.5t-69.5 -107.5t-59 -72l-25 -23l231 4l7 -293q-1 -17 -2 -21 q-6 -12 -317.5 -15t-317.5 1t-17.5 187.5t-5.5 185.5q10 4 35 20.5t72 56.5t86 85t69.5 111.5t30.5 133.5q0 150 -96.5 242t-272.5 92q-158 0 -254 -109.5t-96 -230.5q0 -78 31 -149.5t79 -121.5t86 -80t74 -50z" />
<glyph glyph-name="pi" unicode="&#x3c0;" horiz-adv-x="1460" d="M346 0q-2 442 10 678q-115 0 -166 -29q-27 51 -54 132t-42 137l-14 55q78 45 323 59q125 8 522.5 1t411.5 -19q8 -33 12.5 -137.5t-6.5 -206.5l-180 -8q-8 -76 -4 -200t41 -124q25 0 53.5 5t46 9t17.5 6q20 -37 46 -104.5t41 -117.5l15 -50q-16 -14 -42.5 -33.5 t-105.5 -53.5t-151 -34q-82 0 -139 31t-88 74t-47.5 116.5t-20.5 131t-4 143.5l6 209l-114 2q4 -664 -4 -672q-4 -4 -99 -4z" />
<glyph glyph-name="Wgrave" unicode="&#x1e80;" horiz-adv-x="1998" d="M682 1722q-4 2 21.5 72t56.5 141.5t39 73.5q4 2 151.5 -49l291.5 -102l144 -52q-74 -238 -106 -254q-6 -2 -290.5 80t-307.5 90zM494 -4q-10 4 -150.5 557t-144.5 557q-6 10 -65.5 18.5t-80.5 8.5q-6 0 0 68.5t15.5 139t9.5 66.5q670 10 676 10q2 0 3 -75.5t0 -142 t1 -83.5q0 -2 -11.5 -4t-30 -3t-39 -2l-40 -2t-30.5 -1h-15q-2 0 25.5 -109.5t59.5 -219t34 -107.5t47 113.5l90 223.5l45 111q199 0 215 -8q2 0 63.5 -117.5l122 -232.5t60.5 -111q0 2 21.5 117l43 227.5t19.5 112.5q-199 0 -211 6q-4 2 -6 149.5t0 151.5q4 6 729 6 q4 0 5 -77.5t1 -154.5v-77q-131 -10 -133 -10l-267 -1106q-283 -4 -290 -4q-4 0 -132 271.5t-132.5 271.5t-67 -136.5l-123.5 -272.5l-61 -136q-240 0 -256 6z" />
<glyph glyph-name="wgrave" unicode="&#x1e81;" horiz-adv-x="1998" d="M657 1356q-4 2 22 71.5t56.5 141t38.5 73.5q4 2 151.5 -49l292.5 -102l144 -51q-74 -238 -107 -254q-6 -2 -290.5 80t-307.5 90zM469 -6q-250 596 -281 764l-129 6q-4 23 -8 55.5t-13 116.5t1 100l612 -6l11 -268l-109 -4l109 -250l245 434l187 -6l272 -432l98 248 l-116 6l2 272q2 2 36.5 3t89 2t118 1h128t116.5 -1t86 -1t32 0q2 -16 4 -42.5t6 -99.5t4 -130l-123 -8q-203 -580 -327 -766q-166 -14 -252 6l-279 446l-248 -452q-186 -14 -272 6z" />
<glyph glyph-name="Wacute" unicode="&#x1e82;" horiz-adv-x="1998" d="M764 1556q-14 8 -45 70t-53 120l-23 58l569 230q24 9 25 8q8 -2 41 -76t60.5 -146.5t23.5 -74.5q-586 -195 -598 -189zM494 -4q-10 4 -150.5 557t-144.5 557q-6 10 -65.5 18.5t-80.5 8.5q-6 0 0 68.5t15.5 139t9.5 66.5q670 10 676 10q2 0 3 -75.5t0 -142t1 -83.5 q0 -2 -11.5 -4t-30 -3t-39 -2l-40 -2t-30.5 -1h-15q-2 0 25.5 -109.5t59.5 -219t34 -107.5t47 113.5l90 223.5l45 111q199 0 215 -8q2 0 63.5 -117.5l122 -232.5t60.5 -111q0 2 21.5 117l43 227.5t19.5 112.5q-199 0 -211 6q-4 2 -6 149.5t0 151.5q4 6 729 6q4 0 5 -77.5 t1 -154.5v-77q-131 -10 -133 -10l-267 -1106q-283 -4 -290 -4q-4 0 -132 271.5t-132.5 271.5t-67 -136.5l-123.5 -272.5l-61 -136q-240 0 -256 6z" />
<glyph glyph-name="wacute" unicode="&#x1e83;" horiz-adv-x="1998" d="M764 1167q-14 8 -45 69.5t-53 120.5l-23 58l569 230q24 9 25 8q8 -2 41 -76t60.5 -146.5t23.5 -74.5q-586 -195 -598 -189zM469 -6q-250 596 -281 764l-129 6q-4 23 -8 55.5t-13 116.5t1 100l612 -6l11 -268l-109 -4l109 -250l245 434l187 -6l272 -432l98 248l-116 6 l2 272q2 2 36.5 3t89 2t118 1h128t116.5 -1t86 -1t32 0q2 -16 4 -42.5t6 -99.5t4 -130l-123 -8q-203 -580 -327 -766q-166 -14 -252 6l-279 446l-248 -452q-186 -14 -272 6z" />
<glyph glyph-name="Wdieresis" unicode="&#x1e84;" horiz-adv-x="1998" d="M1288 1567q-100 0 -154.5 53t-58.5 147q-2 92 54.5 148.5t136.5 56.5t141 -59.5t61 -134.5q0 -90 -44 -150.5t-136 -60.5zM754 1567q-100 0 -154.5 53t-58.5 147q-2 92 53 148.5t135 56.5t142.5 -59.5t62.5 -134.5q0 -90 -44 -150.5t-136 -60.5zM494 -4q-10 4 -150.5 557 t-144.5 557q-6 10 -65.5 18.5t-80.5 8.5q-6 0 0 68.5t15.5 139t9.5 66.5q670 10 676 10q2 0 3 -75.5t0 -142t1 -83.5q0 -2 -11.5 -4t-30 -3t-39 -2l-40 -2t-30.5 -1h-15q-2 0 25.5 -109.5t59.5 -219t34 -107.5t47 113.5l90 223.5l45 111q199 0 215 -8q2 0 63.5 -117.5 l122 -232.5t60.5 -111q0 2 21.5 117l43 227.5t19.5 112.5q-199 0 -211 6q-4 2 -6 149.5t0 151.5q4 6 729 6q4 0 5 -77.5t1 -154.5v-77q-131 -10 -133 -10l-267 -1106q-283 -4 -290 -4q-4 0 -132 271.5t-132.5 271.5t-67 -136.5l-123.5 -272.5l-61 -136q-240 0 -256 6z" />
<glyph glyph-name="wdieresis" unicode="&#x1e85;" horiz-adv-x="1998" d="M1288 1159q-100 0 -154.5 53.5t-58.5 147.5q-2 92 54.5 148.5t136.5 56.5t141 -59.5t61 -135.5q0 -90 -44 -150.5t-136 -60.5zM754 1159q-100 0 -154.5 53.5t-58.5 147.5q-2 92 53 148.5t135 56.5t142.5 -59.5t62.5 -135.5q0 -90 -44 -150.5t-136 -60.5zM469 -6 q-250 596 -281 764l-129 6q-4 23 -8 55.5t-13 116.5t1 100l612 -6l11 -268l-109 -4l109 -250l245 434l187 -6l272 -432l98 248l-116 6l2 272q2 2 36.5 3t89 2t118 1h128t116.5 -1t86 -1t32 0q2 -16 4 -42.5t6 -99.5t4 -130l-123 -8q-203 -580 -327 -766q-166 -14 -252 6 l-279 446l-248 -452q-186 -14 -272 6z" />
<glyph glyph-name="Ygrave" unicode="&#x1ef2;" horiz-adv-x="1437" d="M408 1722q-4 2 21.5 72t56 141.5t38.5 73.5q4 2 151.5 -49l292.5 -102l144 -52q-74 -238 -106 -254q-6 -2 -290.5 80t-307.5 90zM410 -14q-4 2 -6.5 141t-0.5 141q2 0 37 4t69 9.5t34 7.5v395q0 4 -77 108.5l-155 205t-80 98.5t-40.5 3l-77.5 10t-39 7q0 303 2 320 l602 -11l22 -280q-2 -4 -98 -4l35 -40l71 -81l35 -41q8 10 23.5 27.5t45.5 54.5l49.5 62.5t17.5 27.5t-82 2q-6 2 -4 142.5t4 142.5t276.5 -3t284.5 -9.5t19 -139.5t5 -139q-6 -6 -125 -6l-346 -463q6 -362 7 -383q0 -8 28.5 -10t60 -2t35.5 -4q6 -8 7 -275q0 -6 -317.5 -13 t-321.5 -5z" />
<glyph glyph-name="ygrave" unicode="&#x1ef3;" horiz-adv-x="1419" d="M350 1356q-4 2 21.5 71.5t56.5 141t39 73.5q4 2 151.5 -49l291.5 -102l145 -51q-74 -238 -107 -254q-6 -2 -290.5 80t-307.5 90zM205 -352q-6 0 68.5 118.5l150.5 238.5t72 120q-287 471 -318 639l-112 6q-4 23 -8.5 54.5t-13.5 113.5t1 98l612 2l11 -270l-115 -4 l156 -289l147 283l-102 6l-4 266q2 2 64.5 3t148.5 -1l171 -4t145 -4t58 -2q2 -14 4 -40t6.5 -95.5t4.5 -126.5l-113 -6q-555 -1094 -680 -1280q-12 2 -31.5 7t-73 20.5t-97.5 35t-89 49t-63 62.5z" />
<glyph glyph-name="endash" unicode="&#x2013;" horiz-adv-x="1130" d="M111 387q-10 0 -8.5 145.5t8.5 149.5q10 4 444 15.5t436 0.5q4 -12 -2 -150t-10 -138q-2 0 -431 -11.5t-437 -11.5z" />
<glyph glyph-name="emdash" unicode="&#x2014;" horiz-adv-x="1593" d="M111 408q-10 0 -8.5 135t8.5 139q10 4 679.5 15.5t671.5 0.5q4 -12 -2 -140t-10 -128q-2 0 -666.5 -11t-672.5 -11z" />
<glyph glyph-name="quoteleft" unicode="&#x2018;" horiz-adv-x="663" d="M346 891q-84 0 -146.5 58.5t-76.5 140.5q-94 555 297 624q8 -16 21.5 -57t22.5 -73l9 -32q-126 -11 -171 -108q-35 -75 6 -120q20 -22 52 -21q104 0 148.5 -51.5t48.5 -151.5q2 -94 -59.5 -151.5t-151.5 -57.5z" />
<glyph glyph-name="quoteright" unicode="&#x2019;" horiz-adv-x="624" d="M233 891q-8 18 -21 59t-22 74l-8 33q120 11 164 108q33 75 -7 119q-18 20 -48 21q-100 0 -142.5 52t-46.5 156q-2 96 57.5 154.5t143.5 58.5q80 0 140.5 -60t72.5 -142q90 -561 -283 -633z" />
<glyph glyph-name="quotesinglbase" unicode="&#x201a;" horiz-adv-x="630" d="M117 193q-2 96 57 154.5t143 58.5q80 0 140.5 -60.5t72.5 -142.5q47 -291 -20.5 -464t-247.5 -208q-8 18 -21.5 59t-21.5 74l-8 33q116 11 155 118q32 87 -8 142q-20 27 -53 27q-100 0 -142 52.5t-46 156.5z" />
<glyph glyph-name="quotedblleft" unicode="&#x201c;" horiz-adv-x="1206" d="M913 903q-80 0 -140 60.5t-73 142.5q-90 561 283 633q8 -18 21.5 -59.5t21.5 -73.5l8 -33q-120 -11 -164 -109q-33 -75 7 -119q18 -20 49 -20q100 0 142 -52t46 -157q2 -96 -57.5 -154.5t-143.5 -58.5zM387 891q-84 0 -146.5 58.5t-76.5 140.5q-94 555 297 624 q8 -16 21.5 -57t22.5 -73l9 -32q-126 -11 -171 -108q-35 -75 6 -120q20 -22 52 -21q104 0 148.5 -51.5t48.5 -151.5q2 -94 -59.5 -151.5t-151.5 -57.5z" />
<glyph glyph-name="quotedblright" unicode="&#x201d;" horiz-adv-x="1206" d="M756 915q-8 16 -21.5 57.5t-22.5 73.5l-10 31q126 11 172 108q35 75 -6 121q-20 22 -53 21q-104 0 -148 51.5t-49 151.5q-2 94 59.5 151.5t151.5 57.5q84 0 146.5 -58.5t77.5 -140.5q94 -555 -297 -625zM233 891q-8 18 -21 59t-22 74l-8 33q120 11 164 108q33 75 -7 119 q-18 20 -48 21q-100 0 -142.5 52t-46.5 156q-2 96 57.5 154.5t143.5 58.5q80 0 140.5 -60t72.5 -142q90 -561 -283 -633z" />
<glyph glyph-name="quotedblbase" unicode="&#x201e;" horiz-adv-x="1206" d="M117 193q-2 96 57 154.5t143 58.5q80 0 140.5 -60.5t72.5 -142.5q47 -291 -20.5 -464t-247.5 -208q-8 18 -21.5 59t-21.5 74l-8 33q116 11 155 118q32 87 -8 142q-20 27 -53 27q-100 0 -142 52.5t-46 156.5zM633 180q-2 94 59.5 151.5t151.5 57.5q84 0 146.5 -58.5 t76.5 -140.5q96 -567 -283 -634q-8 16 -21 57l-23 73l-9 31q125 11 165 112q31 78 -13 126q-21 23 -54 22q-104 0 -148 51.5t-48 151.5z" />
<glyph glyph-name="dagger" unicode="&#x2020;" horiz-adv-x="1267" d="M352 168q-4 82 117 178q4 23 1 130.5t-9 232.5l-6 125q-313 2 -324 20q-8 16 -21.5 154.5t-0.5 140.5l350 8q2 -2 4 65.5t5 139.5t5 76t84 8t164 3t82 -7v-303q0 -2 181 3t181 -7q0 -47 -5 -174t-11 -127q-350 0 -365 -9q-4 -2 -8 -123.5t-6 -242.5l-2 -121 q14 -8 34.5 -22.5t54.5 -60.5t34 -93t-42 -90t-84 -62l-42 -18l-55 -529q-100 0 -113 5q-8 2 -24.5 237.5t-16.5 261.5q0 2 -40 34t-80 79t-42 88z" />
<glyph glyph-name="daggerdbl" unicode="&#x2021;" horiz-adv-x="1267" d="M109 70q350 0 364 8q4 0 12.5 94t8.5 141q-113 76 -113 168q0 72 102 133q-2 49 -9 104.5t-13 85.5l-6 30q-313 2 -324 20q-8 16 -21.5 154.5t-0.5 140.5l350 8q2 -2 4 65.5t5 139.5t5 76t84 8t164 3t82 -7v-303q0 -2 181 3t181 -7q0 -47 -5 -174t-11 -127 q-350 0 -365 -9q-2 -2 -8 -25.5t-12 -67.5t-6 -89q131 -102 135 -168q0 -16 -4 -33.5t-12.5 -33t-19.5 -29.5t-21.5 -25.5t-22.5 -21.5l-20.5 -16.5l-16.5 -12.5l-8 -6q-4 -4 2 -60.5t14 -111.5l9 -55q311 -2 321 -21q8 -16 15.5 -146t-5.5 -134l-325 -9q-2 2 -4 -65.5 t-5.5 -139t-5.5 -75.5t-81.5 -8t-158.5 -3t-79 7l-10 303q0 2 -176.5 -3t-176.5 7q1 287 7 287z" />
<glyph glyph-name="bullet" unicode="&#x2022;" horiz-adv-x="651" d="M346 489q-285 0 -285 281q0 137 79 201.5t206 64.5q119 0 193.5 -71.5t74.5 -196.5q0 -117 -67.5 -198t-200.5 -81z" />
<glyph glyph-name="ellipsis" unicode="&#x2026;" horiz-adv-x="1951" d="M1419 193q-2 96 57.5 154.5t143.5 58.5t148.5 -61.5t64.5 -141.5q0 -92 -47 -155.5t-144 -63.5q-104 0 -161.5 55.5t-61.5 153.5zM778 193q-2 96 57.5 154.5t143.5 58.5t148.5 -61.5t64.5 -141.5q0 -92 -47 -155.5t-144 -63.5q-104 0 -161.5 55.5t-61.5 153.5zM117 193 q-2 96 57 154.5t143 58.5t148.5 -61.5t64.5 -141.5q0 -92 -47 -155.5t-143 -63.5q-104 0 -161.5 55.5t-61.5 153.5z" />
<glyph glyph-name="perthousand" unicode="&#x2030;" horiz-adv-x="2232" d="M209 117l251 341l502.5 679t260.5 338q14 0 105 -78t87 -94q-6 -29 -494.5 -713t-508.5 -670q-14 10 -65.5 57.5t-95.5 92.5t-42 47zM424 782q-158 0 -250 73t-92 222q0 147 94 216t246 69q145 0 234 -76t89 -209q0 -123 -81.5 -209t-239.5 -86zM424 1004q78 0 78 69 q0 78 -78 78q-86 0 -86 -78q0 -69 86 -69zM913 264q0 168 103.5 246t271.5 78q53 0 104.5 -22.5t76 -41t61.5 -53.5q113 117 262 117q162 0 260 -85t98 -239q0 -139 -91 -235.5t-265 -96.5q-74 0 -149.5 34t-114.5 75q-39 -41 -104.5 -75t-135.5 -34q-174 0 -275.5 82 t-101.5 250zM1692 252q0 -43 32.5 -65.5t75.5 -22.5q88 0 88 88q0 98 -92 98q-104 0 -104 -98zM1188 252q0 -43 32.5 -65.5t75.5 -22.5q88 0 88 88q0 98 -92 98q-104 0 -104 -98z" />
<glyph glyph-name="guilsinglleft" unicode="&#x2039;" horiz-adv-x="688" d="M424 -82q-4 2 -176 263t-172 271.5t172 247t180 242.5q6 4 64.5 -38t58.5 -48q0 -2 -98.5 -192.5t-96.5 -194.5q0 -2 106.5 -212t106.5 -216t-70.5 -65.5t-74.5 -57.5z" />
<glyph glyph-name="guilsinglright" unicode="&#x203a;" horiz-adv-x="731" d="M82 37l258 436q-227 432 -231 442q-2 4 31.5 22.5t72.5 34t51 13.5q391 -537 391 -545q0 -4 -99 -133l-199.5 -256t-102.5 -125z" />
<glyph glyph-name="fraction" unicode="&#x2044;" d="M63 117l251 341l503 679t260 338q14 0 89 -57.5t71 -74.5q-6 -29 -494.5 -712.5t-509.5 -669.5q-16 10 -58 47t-78 72t-34 37z" />
<glyph glyph-name="uni2070" unicode="&#x2070;" horiz-adv-x="737" d="M371 793q-135 0 -212 78.5t-77 277.5t79 283t201 84q129 0 211 -85t82 -282q1 -356 -284 -356zM360.5 1014q61.5 0 61.5 123q0 150 -60 149q-31 0 -47 -40t-16 -99q0 -133 61.5 -133z" />
<glyph glyph-name="uni2074" unicode="&#x2074;" horiz-adv-x="716" d="M227 829l1 47l2 92l1 46l107 2l6 94l-260 12l1 103l2 205l1 102l193 6v-242h65l8 162q199 -6 201 -6l4 -164q76 0 76 -2v-172l-84 -4q-2 -96 -2 -98l15 -1q15 -1 32.5 -3t21.5 -4q6 -4 7 -173q-1 -2 -398 -2z" />
<glyph glyph-name="uni2075" unicode="&#x2075;" horiz-adv-x="704" d="M367 815q-57 0 -107.5 11.5t-82.5 26.5t-54.5 31.5t-31.5 27.5l-9 12q94 135 100 135q2 0 18.5 -7.5t40 -14.5t40.5 -7q49 0 49 33q0 82 -160 82l-20 22l24 346q8 0 21.5 1.5t51.5 2.5l73.5 2t80.5 2t79 1h60.5t32.5 -2q-16 -184 -22 -187l-170 -8l-6 -39q10 -2 26.5 -5 t59.5 -19.5t75.5 -41t59.5 -73.5t27 -111q0 -98 -79 -159.5t-177 -61.5z" />
<glyph glyph-name="uni2076" unicode="&#x2076;" horiz-adv-x="686" d="M338 807q-102 0 -179 77t-77 201q0 76 25.5 150t61.5 126t70.5 93t60.5 62l26 20q0 2 49 -15.5t100 -42t57 -38.5l-27 -23q-28 -23 -62.5 -58.5t-49.5 -68.5q90 -18 150.5 -78.5t60.5 -164.5q0 -111 -72.5 -175.5t-193.5 -64.5zM365 1049q12 0 23 10t11 26 q0 33 -28.5 51.5t-57.5 18.5q-20 -23 -5.5 -64.5t57.5 -41.5z" />
<glyph glyph-name="uni2077" unicode="&#x2077;" horiz-adv-x="757" d="M410 803q-2 0 -53.5 14t-112 34.5t-76.5 35.5l219 401h-108l4 -86l-168 -4q-2 0 -13.5 72.5t-16.5 139.5t5 87q20 18 510 6h4l72 -94q-264 -606 -266 -606z" />
<glyph glyph-name="uni2078" unicode="&#x2078;" horiz-adv-x="714" d="M365 809q-113 0 -198 54.5t-85 154.5q0 117 82 166q-63 45 -64 143q0 90 79 141.5t171 51.5t174 -53.5t82 -143.5q0 -92 -63 -139q90 -51 90 -170q0 -94 -81 -149.5t-187 -55.5zM352 1251q43 0 43 33q0 41 -43 41t-43 -37t43 -37zM356 1004q53 0 54 47q0 55 -50 55 q-53 0 -53 -51t49 -51z" />
<glyph glyph-name="uni2079" unicode="&#x2079;" horiz-adv-x="686" d="M360 811q0 -2 -49 15.5t-100 42t-57 38.5l27 23q28 23 63 58.5t49 68.5q-90 18 -150.5 78.5t-60.5 164.5q0 111 72.5 175.5t193.5 64.5q102 0 179 -77t77 -201q0 -76 -25.5 -150t-60.5 -126t-70.5 -93t-61.5 -62zM373 1192q20 23 6 64.5t-57 41.5q-12 0 -23.5 -10 t-11.5 -26q0 -33 28.5 -51.5t57.5 -18.5z" />
<glyph glyph-name="Euro" unicode="&#x20ac;" horiz-adv-x="1409" d="M92 438l-8 209h76q-4 53 -4 88q-59 -4 -103 -4q-6 0 -16 82t-2 84q55 0 131 2q39 287 206 424t382 137q70 0 129 -21.5t82.5 -39t29.5 -27.5q12 80 23 117q238 -23 307 -59q4 -27 1 -143t-7 -248l-4 -132l-279 -22q-2 8 -8 23.5t-28.5 53t-49 67.5t-73 53.5t-97.5 23.5 q-160 0 -207 -205q295 4 299.5 0t7.5 -59.5t-3 -67.5q-4 -8 -320 -24v-7q0 -49 6 -86q55 0 130 2.5t93.5 2.5h36.5l-10 -150q-78 -10 -180 -20q86 -113 192 -113q59 0 119 31.5t88.5 59.5t44.5 50q47 -31 113.5 -90t111.5 -103l44 -44l-16.5 -34t-54.5 -75t-97.5 -93 t-148.5 -74t-204 -34q-199 0 -374 124t-250 349q-109 -10 -109 -8z" />
<glyph glyph-name="afii61289" unicode="&#x2113;" horiz-adv-x="935" d="M102 225q0 90 36 206t72 187l36 72l-10.5 32.5t-19.5 84t-20.5 124t-6.5 139.5t16 144q33 143 136 215t224 72q309 0 309 -213q0 -109 -93 -341l-186 -444t-93 -270q0 -55 51 -55q25 0 59.5 17.5t57.5 33.5l22 17q27 -14 55.5 -46t44.5 -56l15 -23q-4 -6 -14.5 -17.5 t-48 -40t-84 -50t-123 -40t-164.5 -18.5q-113 0 -192 65.5t-79 204.5zM356 885l160 432q-51 20 -93 -10.5t-60.5 -77.5t-26.5 -96q-8 -78 -3 -133.5t14 -85.5z" />
<glyph glyph-name="trademark" unicode="&#x2122;" horiz-adv-x="1429" d="M154 799v43t1 80l1 43l25 2q26 2 50.5 6t24.5 8l-6 272l-49 -2q-4 -70 -4 -73h-38t-71 1l-41 1q-4 0 -4 60t2 122.5t6 69.5q6 6 286.5 16t283.5 6q0 -2 2 -135t2 -137q-2 -2 -69 -2t-71 4l-10 71q-43 -2 -47 -2q-2 -4 -1 -29.5t4 -68.5t5 -83t4 -70l2 -29h23q23 0 42 1 t25 -1q2 -4 4.5 -83t0.5 -87q0 -4 -96.5 -5t-191.5 -1t-95 2zM680 803q-4 8 -5 88t5 84q2 2 15.5 2h26.5t13 2q0 266 -4 278q0 2 -10 2.5t-22.5 0.5t-16.5 2q-4 4 -6 88t2 88q2 4 108.5 4t112.5 -2l94 -133q96 127 103 131q2 2 60 3t116.5 0t58.5 -3l1 -81q1 -81 1 -85 q0 -10 -57 -10q0 -281 4 -287q2 -4 16.5 -4t28.5 -1t14 -3l9 -174h-77q-77 0 -153 2t-76 6q0 166 2 166q57 0 58 2l2 198q-2 -2 -17.5 -23.5l-30.5 -41.5l-16 -21q-80 -4 -82 0q-2 2 -28.5 41l-30.5 45l1 -46l2 -94l1 -48q0 -4 30 -7l30 -3l6 -170q-269 0 -289 4z" />
<glyph glyph-name="estimated" unicode="&#x212e;" horiz-adv-x="1685" d="M545 281q14 -12 40.5 -32t119 -52.5t192.5 -32.5q123 0 238.5 59.5t170.5 117.5l54 58q78 -47 139 -118q-6 -12 -20.5 -33t-68.5 -72t-117.5 -90t-172 -71.5t-229.5 -32.5q-162 0 -302 44t-250 130t-173.5 230t-63.5 329q0 336 226.5 545.5t550.5 207.5 q367 -2 566.5 -238.5t110.5 -563.5q-49 -16 -302 -16.5t-481 7.5l-228 9q-6 -92 -6 -188.5t3 -146.5zM545 848q98 -8 250.5 -8t255.5 4l102 4q8 31 8 107.5t-4 138.5l-4 61q-16 47 -102 82t-182.5 35t-189.5 -33t-130 -78q-2 -20 -3 -52t-3 -122t2 -139z" />
<glyph glyph-name="onethird" unicode="&#x2153;" horiz-adv-x="1544" d="M133 840l-4 196l102 2l9 267q-74 -35 -82 -37q-6 -2 -40 52t-34 58q0 2 53 46l106.5 88t53.5 42l174 -45l-6 -469q0 -2 40 -1t46 -5q2 -2 3 -13t1 -28.5v-37t-1 -40t-1 -37t-1 -26.5l-1 -10q-2 -2 -418 -2zM166 117l251 341l502.5 679t260.5 338q14 0 88.5 -57.5 t70.5 -74.5q-6 -29 -494.5 -712.5t-508.5 -669.5q-16 10 -58 47t-78 72t-34 37zM942 109q100 133 107 133q2 0 14 -12.5t34.5 -23.5t47.5 -11q31 0 31 30q0 51 -76 51q-4 8 -3 34t3 55l2 28h22t19.5 2t19.5 7.5t11.5 14.5t5.5 23q0 39 -37 39q-18 0 -39 -7t-31 -14l-10 -7 q-4 4 -10 13t-22.5 31.5l-29 41t-21.5 37t-9 24.5q2 14 25.5 33.5t81 39t128.5 19.5q88 0 166 -51t80 -137q2 -47 -16.5 -85t-32.5 -49.5t-25 -17.5q8 -4 24.5 -17.5t38 -50t21.5 -79.5q0 -100 -88 -163t-188 -63q-51 0 -95 13.5t-70 33t-45.5 39t-26.5 32.5z" />
<glyph glyph-name="twothirds" unicode="&#x2154;" horiz-adv-x="1605" d="M113 827q-4 4 -13.5 83t-7.5 98q25 27 91.5 91t99 103t32.5 62q0 12 -12 23t-27 11q-27 0 -51 -9t-35 -18l-10 -9q-4 -4 -16 10t-25.5 37.5l-27 49t-21.5 45t-8 23.5q0 10 27.5 33t88 45.5t132.5 22.5q100 0 181 -47t81 -142q0 -100 -156 -299l156 2q2 -4 4 -27.5t2 -54 v-60.5t-2 -50.5t-4 -20.5q-8 2 -242.5 -1t-236.5 -1zM227 117l251 341l503 679t260 338q14 0 89 -57.5t71 -74.5q-6 -29 -494.5 -712.5t-509.5 -669.5q-16 10 -58 47t-78 72t-34 37zM1004 109q100 133 106 133q2 0 14.5 -12.5t35 -23.5t46.5 -11q31 0 31 30q0 51 -76 51 q-4 8 -3 34t3 55l2 28h22.5t20 2t19.5 7.5t11 14.5t5 23q0 39 -37 39q-18 0 -38.5 -7t-30.5 -14l-11 -7q-4 4 -10 13t-22.5 31.5t-28.5 41t-21.5 37t-9.5 24.5q2 14 25.5 33.5t81 39t129.5 19.5q88 0 165.5 -51t79.5 -137q2 -47 -16 -85t-32.5 -49.5t-24.5 -17.5 q8 -4 24.5 -17.5t38 -50t21.5 -79.5q0 -100 -88 -163t-189 -63q-51 0 -95 13.5t-69.5 33t-45 39t-26.5 32.5z" />
<glyph glyph-name="oneeighth" unicode="&#x215b;" horiz-adv-x="1574" d="M133 840l-4 196l102 2l9 267q-74 -35 -82 -37q-6 -2 -40 52t-34 58q0 2 53 46l106.5 88t53.5 42l174 -45l-6 -469q0 -2 40 -1t46 -5q2 -2 3 -13t1 -28.5v-37t-1 -40t-1 -37t-1 -26.5l-1 -10q-2 -2 -418 -2zM166 117l251 341l502.5 679t260.5 338q14 0 88.5 -57.5 t70.5 -74.5q-6 -29 -494.5 -712.5t-508.5 -669.5q-16 10 -58 47t-78 72t-34 37zM942 184q0 117 82 166q-63 45 -63 144q0 90 78.5 141t171 51t174 -53t81.5 -144q0 -92 -63 -139q90 -51 90 -170q0 -94 -81 -149.5t-187 -55.5q-113 0 -198 54.5t-85 154.5zM1169 455 q0 -37 43 -37t43 33q0 41 -43 41t-43 -37zM1167 221q0 -51 50 -51q53 0 53 47q0 55 -49 55q-54 0 -54 -51z" />
<glyph glyph-name="threeeighths" unicode="&#x215c;" horiz-adv-x="1574" d="M326 811q-51 0 -95.5 13.5t-70 33t-45 38.5t-26.5 33l-7 13q100 133 106 133q2 0 14.5 -11t35 -23.5t47.5 -12.5q31 0 30 31q0 51 -75 51q-4 8 -3 33.5t3 54.5l2 29h22t19.5 2t19.5 7t11 14.5t5 23.5q0 39 -36 39q-18 0 -39 -7.5t-31 -14.5l-10 -7q-4 4 -10.5 13.5 l-22.5 32l-28.5 41t-21.5 36.5t-9 25q2 14 25.5 33.5t80.5 39t129 19.5q88 0 166 -51.5t80 -137.5q2 -47 -16.5 -85t-33 -49t-24.5 -17q8 -4 24.5 -17.5t38 -50.5t21.5 -80q0 -100 -88 -162.5t-188 -62.5zM166 117l251 341l502.5 679t260.5 338q14 0 88.5 -57.5t70.5 -74.5 q-6 -29 -494.5 -712.5t-508.5 -669.5q-16 10 -58 47t-78 72t-34 37zM942 184q0 117 82 166q-63 45 -63 144q0 90 78.5 141t171 51t174 -53t81.5 -144q0 -92 -63 -139q90 -51 90 -170q0 -94 -81 -149.5t-187 -55.5q-113 0 -198 54.5t-85 154.5zM1169 455q0 -37 43 -37t43 33 q0 41 -43 41t-43 -37zM1167 221q0 -51 50 -51q53 0 53 47q0 55 -49 55q-54 0 -54 -51z" />
</font>
</defs>
</svg>
